<svg width="2000" height="1000" viewBox="0 0 2000 1000" fill="none" xmlns="http://www.w3.org/2000/svg">
<g clip-path="url(#clip0_3_7)">
<path d="M812.036 -59.4162C811.577 -47.5396 812.345 -35.605 814.644 -23.74C821.947 13.9544 843.084 46.9717 873.692 72.8677C925.277 116.509 998.337 143.417 1031.68 203.012C1043.96 224.941 1048.39 249.1 1038.28 272.468C1028.72 294.563 1010.52 312.215 994.713 330.694C974.778 354.001 959.354 378.461 957.349 408.573C955.344 438.645 963.792 468.183 973.27 496.723C992.726 555.312 1018.67 615.005 1004.41 677.174C1003.91 679.346 1003.31 681.489 1002.73 683.64C979.375 715.278 951.85 744.259 919.128 768.287C813.295 846.01 676.532 862.077 546.056 877.499C413.434 893.18 273.196 911.7 174.581 1002C173.194 1003.27 171.718 1004.12 170.207 1004.68C166.978 1008.05 163.758 1011.43 160.541 1014.82H488.588H1972.11C1999.33 1014.82 2021.39 994.749 2021.39 969.996V656.738V136.516C2021.39 87.3394 2021.41 38.1628 2021.46 -11.0051H2021.39V-14.5948C2021.39 -39.3512 1999.33 -59.4162 1972.11 -59.4162H812.036Z" fill="url(#paint0_radial_3_7)"/>
<path d="M930.301 -59.4169C926.871 -40.0391 926.3 -20.3336 930.767 -0.9906C937.86 29.6955 956.781 55.5045 982.308 76.2161C1014.96 102.698 1054.81 121.377 1097.98 128.081C1147.22 135.727 1197.62 131.273 1247.13 136.414C1316.12 143.576 1372.95 172.691 1419.14 219.339C1464 264.642 1497.35 318.257 1542.72 363.18C1568.69 388.888 1597.86 412.386 1626.2 435.881C1658.02 462.267 1690.77 487.833 1725.31 511.244C1790.84 555.659 1864.51 595.157 1944.97 611.705C1969.99 616.852 1995.57 619.862 2021.39 621.056V136.515C2021.39 87.3388 2021.41 38.1622 2021.46 -11.0057H2021.39V-14.5954C2021.39 -39.3519 1999.33 -59.4169 1972.11 -59.4169H930.301Z" fill="url(#paint1_radial_3_7)"/>
<path d="M63.5692 651.116V644.641H65.9929C66.5418 644.641 67.0136 644.73 67.4083 644.909C67.803 645.082 68.1052 645.335 68.3148 645.668C68.5307 645.995 68.6386 646.392 68.6386 646.861C68.6386 647.317 68.5307 647.712 68.3148 648.045C68.1052 648.372 67.803 648.625 67.4083 648.804C67.0136 648.976 66.5418 649.063 65.9929 649.063H63.9485L64.2537 648.748V651.116H63.5692ZM67.9911 651.116L66.3259 648.767H67.066L68.7404 651.116H67.9911ZM64.2537 648.804L63.9485 648.48H65.9744C66.6219 648.48 67.1122 648.338 67.4453 648.054C67.7845 647.771 67.9541 647.373 67.9541 646.861C67.9541 646.343 67.7845 645.942 67.4453 645.658C67.1122 645.375 66.6219 645.233 65.9744 645.233H63.9485L64.2537 644.909V648.804ZM70.8649 647.536H74.2877V648.119H70.8649V647.536ZM70.9389 650.524H74.8335V651.116H70.2543V644.641H74.6947V645.233H70.9389V650.524ZM75.4065 651.116L78.3668 644.641H79.0421L82.0023 651.116H81.2808L78.561 645.039H78.8386L76.1188 651.116H75.4065ZM76.5721 649.386L76.7756 648.831H80.5407L80.7442 649.386H76.5721ZM83.0735 651.116V644.641H85.71C86.4008 644.641 87.0051 644.78 87.5232 645.057C88.0474 645.328 88.4544 645.708 88.7443 646.195C89.0341 646.682 89.1791 647.243 89.1791 647.879C89.1791 648.514 89.0341 649.075 88.7443 649.562C88.4544 650.049 88.0474 650.432 87.5232 650.709C87.0051 650.981 86.4008 651.116 85.71 651.116H83.0735ZM83.7581 650.524H85.673C86.2466 650.524 86.743 650.413 87.1624 650.191C87.5879 649.963 87.9179 649.652 88.1522 649.257C88.3866 648.856 88.5038 648.397 88.5038 647.879C88.5038 647.354 88.3866 646.895 88.1522 646.5C87.9179 646.106 87.5879 645.797 87.1624 645.575C86.743 645.347 86.2466 645.233 85.673 645.233H83.7581V650.524ZM93.1374 651.116V644.641H93.7017L96.662 649.692H96.3659L99.2984 644.641H99.8627V651.116H99.2059V645.668H99.3632L96.662 650.293H96.3382L93.6184 645.668H93.7942V651.116H93.1374ZM104.803 651.172C104.316 651.172 103.863 651.092 103.444 650.931C103.03 650.765 102.67 650.534 102.361 650.238C102.059 649.935 101.822 649.587 101.649 649.192C101.482 648.791 101.399 648.353 101.399 647.879C101.399 647.404 101.482 646.969 101.649 646.574C101.822 646.173 102.059 645.825 102.361 645.529C102.67 645.227 103.03 644.995 103.444 644.835C103.857 644.669 104.31 644.585 104.803 644.585C105.291 644.585 105.741 644.669 106.154 644.835C106.567 644.995 106.925 645.224 107.227 645.52C107.535 645.816 107.773 646.164 107.939 646.565C108.112 646.966 108.198 647.404 108.198 647.879C108.198 648.353 108.112 648.791 107.939 649.192C107.773 649.593 107.535 649.942 107.227 650.238C106.925 650.534 106.567 650.765 106.154 650.931C105.741 651.092 105.291 651.172 104.803 651.172ZM104.803 650.561C105.192 650.561 105.55 650.497 105.876 650.367C106.21 650.231 106.496 650.043 106.737 649.803C106.983 649.556 107.175 649.272 107.31 648.952C107.446 648.625 107.514 648.267 107.514 647.879C107.514 647.49 107.446 647.135 107.31 646.815C107.175 646.488 106.983 646.204 106.737 645.964C106.496 645.717 106.21 645.529 105.876 645.399C105.55 645.264 105.192 645.196 104.803 645.196C104.415 645.196 104.054 645.264 103.721 645.399C103.388 645.529 103.098 645.717 102.851 645.964C102.611 646.204 102.42 646.488 102.278 646.815C102.142 647.135 102.074 647.49 102.074 647.879C102.074 648.261 102.142 648.616 102.278 648.942C102.42 649.269 102.611 649.556 102.851 649.803C103.098 650.043 103.388 650.231 103.721 650.367C104.054 650.497 104.415 650.561 104.803 650.561ZM109.733 651.116V644.641H112.157C112.705 644.641 113.177 644.73 113.572 644.909C113.967 645.082 114.269 645.335 114.478 645.668C114.694 645.995 114.802 646.392 114.802 646.861C114.802 647.317 114.694 647.712 114.478 648.045C114.269 648.372 113.967 648.625 113.572 648.804C113.177 648.976 112.705 649.063 112.157 649.063H110.112L110.417 648.748V651.116H109.733ZM114.155 651.116L112.49 648.767H113.23L114.904 651.116H114.155ZM110.417 648.804L110.112 648.48H112.138C112.786 648.48 113.276 648.338 113.609 648.054C113.948 647.771 114.118 647.373 114.118 646.861C114.118 646.343 113.948 645.942 113.609 645.658C113.276 645.375 112.786 645.233 112.138 645.233H110.112L110.417 644.909V648.804ZM117.029 647.536H120.451V648.119H117.029V647.536ZM117.103 650.524H120.997V651.116H116.418V644.641H120.858V645.233H117.103V650.524Z" fill="white"/>
<path d="M916.593 713.575C854.312 724.64 954.391 877.27 954.391 877.27C886.642 796.338 797.989 782.907 808.912 822.637C819.843 862.364 917.378 899.261 917.378 899.261H1020.82C1088.02 852.285 1111.64 791.617 1070.94 787.761C1030.24 783.907 1012.64 862.651 1012.64 862.651C1012.64 862.651 981.09 713.024 922.737 713.027C920.719 713.027 918.672 713.207 916.593 713.575" fill="url(#paint2_radial_3_7)"/>
<path d="M986.421 893.03C986.421 893.03 974.766 803.99 914.094 718.322" stroke="url(#paint3_radial_3_7)" stroke-width="0.933333" stroke-miterlimit="10" stroke-linecap="round" stroke-linejoin="round"/>
<path d="M954.392 890.702C954.392 890.702 865.663 851.584 825.701 803.991" stroke="url(#paint4_radial_3_7)" stroke-width="0.933333" stroke-miterlimit="10" stroke-linecap="round" stroke-linejoin="round"/>
<path d="M1070.94 798.256C1070.94 798.256 1040.79 878.217 996.919 890.703" stroke="url(#paint5_radial_3_7)" stroke-width="0.933333" stroke-miterlimit="10" stroke-linecap="round" stroke-linejoin="round"/>
<path d="M1066.29 533.35C1033.57 548.071 1030.24 599.727 1049.6 632.402C1074.77 674.869 1103.21 687.024 1082.58 686.708C994.763 685.377 1005.2 751.035 1104.15 762.572C1217.59 775.803 1162.1 818.377 1132.96 823.594C1075.15 833.945 1094.39 859.824 1138.41 867.771C1214.52 881.515 1353.42 872.182 1353.42 872.182C1234.4 842.824 1349.02 645.027 1312.39 635.481C1295.05 630.964 1277.18 655.181 1260.94 679.398C1242.88 706.335 1226.85 733.278 1215.85 720.653C1206.06 709.409 1285.81 583.515 1236.66 572.802C1217.47 568.623 1205.36 583.823 1194.51 599.028C1184.09 613.639 1174.83 628.25 1161.58 625.649C1136.69 620.769 1135.23 528.145 1087.59 528.154C1081.34 528.154 1074.29 529.749 1066.29 533.35" fill="url(#paint6_radial_3_7)"/>
<path d="M1318.72 866.721C1243.26 839.291 1253.58 788.456 1166 721.479C1093.6 666.106 1074.48 603.333 1080.32 531.456" stroke="url(#paint7_radial_3_7)" stroke-width="0.933333" stroke-miterlimit="10" stroke-linecap="round" stroke-linejoin="round"/>
<path d="M1420.01 831.562C1420.01 831.562 1402.41 752.815 1361.71 756.675C1321.01 760.531 1344.63 821.196 1411.83 868.169H1515.27C1515.27 868.169 1612.81 831.272 1623.74 791.545C1634.66 751.821 1551.12 756.219 1483.37 837.149C1483.37 837.149 1584.61 699.916 1522.34 688.851C1520.17 688.468 1518.04 688.283 1515.92 688.283C1457.32 688.28 1420.01 831.562 1420.01 831.562Z" fill="url(#paint8_radial_3_7)"/>
<path d="M1446.23 861.939C1446.23 861.939 1462.83 765.754 1524.83 693.596" stroke="url(#paint9_radial_3_7)" stroke-width="0.933333" stroke-miterlimit="10" stroke-linecap="round" stroke-linejoin="round"/>
<path d="M1478.26 859.614C1478.26 859.614 1558.37 793.391 1606.95 781.178" stroke="url(#paint10_radial_3_7)" stroke-width="0.933333" stroke-miterlimit="10" stroke-linecap="round" stroke-linejoin="round"/>
<path d="M1361.71 767.168C1361.71 767.168 1391.86 847.129 1435.73 859.615" stroke="url(#paint11_radial_3_7)" stroke-width="0.933333" stroke-miterlimit="10" stroke-linecap="round" stroke-linejoin="round"/>
<path d="M1917.22 630.337C1904.17 632.898 1904.61 611.832 1903.09 590.767C1901.47 568.168 1897.61 545.569 1872.47 552.136C1823.89 564.833 1890.36 674.857 1877.19 703.006C1870.19 717.994 1864.49 689.66 1855.17 661.322C1846.97 636.435 1835.98 611.551 1818.86 616.011C1782.23 625.556 1858.65 825.18 1739.63 854.538C1739.63 854.538 1878.53 863.871 1954.64 850.127C1998.66 842.18 2017.9 816.304 1960.08 805.95C1930.95 800.73 1882.17 782.327 1988.9 744.928C2001.22 740.608 2012.07 735.867 2021.39 730.961V677.49C2016.37 678.215 2010.88 679.27 2004.91 680.685C1971.53 688.604 1996.42 671.047 2021.39 643.591V513.595C2016.58 511.977 2012.05 511.229 2007.79 511.226C1955.16 511.212 1942.57 625.365 1917.22 630.337" fill="url(#paint12_radial_3_7)"/>
<path d="M1774.33 849.078C1849.79 821.648 1839.47 770.813 1927.05 703.835C1999.45 648.463 2025.48 600.765 2019.64 528.887" stroke="url(#paint13_radial_3_7)" stroke-width="0.933333" stroke-miterlimit="10" stroke-linecap="round" stroke-linejoin="round"/>
<path d="M851.426 928.712C851.426 967.969 1108.57 999.789 1425.77 999.789C1742.98 999.789 2000.12 967.969 2000.12 928.712C2000.12 889.454 1742.98 857.634 1425.77 857.634C1108.57 857.634 851.426 889.454 851.426 928.712Z" fill="url(#paint14_radial_3_7)"/>
<path d="M1837.75 156.375V163.403L1627.11 237.673C1617.34 241.117 1610.9 249.671 1610.9 259.205V859.438C1610.9 868.972 1617.34 877.526 1627.11 880.973L1837.75 955.243V962.271H1861.78V962.231C1875.46 962.538 1887.76 952.598 1887.76 939.153V179.487C1887.76 166.045 1875.46 156.108 1861.78 156.412V156.375H1837.75Z" fill="url(#paint15_linear_3_7)"/>
<path d="M1837.75 156.375V163.403L1627.11 237.673C1617.34 241.117 1610.9 249.671 1610.9 259.205V859.438C1610.9 868.972 1617.34 877.526 1627.11 880.973L1837.75 955.243V962.271H1861.78V962.231C1875.46 962.538 1887.76 952.598 1887.76 939.153V179.487C1887.76 166.045 1875.46 156.108 1861.78 156.412V156.375H1837.75Z" fill="url(#paint16_radial_3_7)"/>
<path d="M1828.93 157.955L1602.85 237.673C1593.08 241.117 1586.64 249.671 1586.64 259.205V859.438C1586.64 868.972 1593.08 877.526 1602.85 880.973L1828.93 960.688C1845.57 966.557 1863.5 955.388 1863.5 939.153V179.487C1863.5 166.245 1851.56 156.375 1838.13 156.372C1835.1 156.372 1832 156.876 1828.93 157.955Z" fill="url(#paint17_linear_3_7)"/>
<path d="M1836.38 183.132L1610.23 255.731C1608.23 256.372 1606.89 258.088 1606.89 259.999V858.646C1606.89 860.557 1608.23 862.271 1610.23 862.912L1836.38 935.511C1837.01 935.717 1837.62 935.807 1838.23 935.786C1840.25 935.723 1843.25 934.174 1843.25 931.04V187.606C1843.25 184.468 1840.25 182.92 1838.23 182.856C1838.18 182.856 1838.13 182.853 1838.07 182.853C1837.51 182.853 1836.96 182.943 1836.38 183.132" fill="url(#paint18_linear_3_7)"/>
<path d="M1836.38 183.132L1754.72 209.344C1694.36 281.784 1807.53 377.756 1798.62 490.755C1793.96 549.82 1740.31 654.792 1606.89 639.428V691.182C1737.3 718.29 1817.92 677.166 1843.25 641.669V187.606C1843.25 184.469 1840.25 182.92 1838.23 182.856C1838.18 182.856 1838.13 182.854 1838.07 182.854C1837.51 182.854 1836.96 182.943 1836.38 183.132Z" fill="url(#paint19_linear_3_7)"/>
<g opacity="0.559998">
<path d="M1606.89 806.482V858.645C1606.89 860.556 1608.23 862.269 1610.23 862.913L1836.38 935.512C1837.01 935.715 1837.62 935.808 1838.23 935.788C1840.25 935.724 1843.25 934.173 1843.25 931.038V834.074L1606.89 806.482Z" fill="#FFFFFD"/>
</g>
<g opacity="0.330002">
<path d="M1543.42 475.862L1786.87 482.725C1803.2 483.186 1817.43 468.381 1817.43 450.835V349.646C1817.43 332.098 1803.2 319.83 1786.87 323.202L1543.42 373.42C1530.34 376.119 1520.41 389.263 1520.41 403.819V449.56C1520.41 464.116 1530.34 475.493 1543.42 475.862Z" fill="#606060"/>
</g>
<g opacity="0.330002">
<path d="M1730.36 210.604C1730.36 242.238 1710.28 267.882 1685.51 267.882C1660.74 267.882 1640.67 242.238 1640.67 210.604C1640.67 178.969 1660.74 153.326 1685.51 153.326C1710.28 153.326 1730.36 178.969 1730.36 210.604Z" fill="#606060"/>
</g>
<g opacity="0.330002">
<path d="M1682.5 678.892C1682.5 711.333 1659.65 737.635 1631.47 737.635C1603.28 737.635 1580.44 711.333 1580.44 678.892C1580.44 646.452 1603.28 620.153 1631.47 620.153C1659.65 620.153 1682.5 646.452 1682.5 678.892Z" fill="#606060"/>
</g>
<g opacity="0.330002">
<path d="M1834.45 806.767C1834.45 836.764 1815.58 861.079 1792.3 861.079C1769.02 861.079 1750.15 836.764 1750.15 806.767C1750.15 776.769 1769.02 752.453 1792.3 752.453C1815.58 752.453 1834.45 776.769 1834.45 806.767Z" fill="#606060"/>
</g>
<g opacity="0.330002">
<path d="M1817.6 593.443C1817.6 628.62 1797.48 657.138 1772.64 657.138C1747.81 657.138 1727.68 628.62 1727.68 593.443C1727.68 558.265 1747.81 529.748 1772.64 529.748C1797.48 529.748 1817.6 558.265 1817.6 593.443Z" fill="#606060"/>
</g>
<path d="M1686.25 854.88C1686.25 866.374 1689.88 875.69 1694.37 875.69C1698.85 875.69 1702.48 866.374 1702.48 854.88C1702.48 843.389 1698.85 834.075 1694.37 834.075C1689.88 834.075 1686.25 843.389 1686.25 854.88" fill="url(#paint20_linear_3_7)"/>
<path d="M1763.06 264.769L1469.09 327.916C1452.75 331.43 1440.29 348.056 1440.29 366.349V423.839C1440.29 442.135 1452.75 456.161 1469.09 456.262L1763.06 458.112C1782.11 458.234 1798.62 439.984 1798.62 418.805V296.661C1798.62 277.863 1785.61 264.088 1769.37 264.088C1767.31 264.088 1765.2 264.308 1763.06 264.769" fill="url(#paint21_linear_3_7)"/>
<path d="M1763.06 264.769L1469.09 327.916C1452.75 331.43 1440.29 348.056 1440.29 366.349V423.839C1440.29 442.135 1452.75 456.161 1469.09 456.262L1763.06 458.112C1782.11 458.234 1798.62 439.984 1798.62 418.805V296.661C1798.62 277.863 1785.61 264.088 1769.37 264.088C1767.31 264.088 1765.2 264.308 1763.06 264.769" fill="url(#paint22_radial_3_7)"/>
<path d="M1747.56 264.769L1453.81 327.895C1437.47 331.407 1425.02 348.024 1425.02 366.312V423.781C1425.02 442.069 1437.47 456.091 1453.81 456.195L1747.56 458.042C1766.6 458.161 1783.1 439.92 1783.1 418.747V296.649C1783.1 277.86 1770.1 264.09 1753.87 264.087C1751.81 264.087 1749.71 264.308 1747.56 264.769Z" fill="url(#paint23_radial_3_7)"/>
<path d="M1706.6 326.918L1700.37 345.061C1699.8 346.731 1698.66 347.981 1697.34 348.378L1683.41 352.562C1680.27 353.51 1679.01 358.901 1681.31 361.591L1691.4 373.416C1692.35 374.532 1692.78 376.263 1692.54 378.012L1689.97 396.737C1689.37 401.049 1692.75 404.128 1695.62 401.869L1708.31 391.898C1709.51 390.952 1710.96 390.845 1712.17 391.616L1725.37 400.034C1728.49 402.014 1732.19 398.346 1731.54 393.896L1728.71 374.718C1728.45 372.94 1728.92 371.047 1729.96 369.684L1741.31 354.833C1743.98 351.347 1742.52 345.864 1738.89 345.71L1723.55 345.061C1722.15 345.006 1720.94 344.023 1720.34 342.463L1713.9 325.817C1713.24 324.123 1712.01 323.317 1710.73 323.317C1709.12 323.317 1707.41 324.57 1706.6 326.918" fill="url(#paint24_linear_3_7)"/>
<path d="M1622.1 338.905L1617.04 355.178C1616.69 356.303 1616.1 356.859 1615.79 356.961L1604.45 360.582C1602.88 361.084 1601.64 362.397 1600.97 364.282C1600.09 366.776 1600.4 369.559 1601.79 371.369L1610.01 382.138C1610.52 382.796 1610.75 383.962 1610.61 385.098L1608.51 401.982C1608.23 404.293 1608.87 406.5 1610.23 407.886C1611.11 408.776 1612.23 409.263 1613.4 409.263C1614.14 409.263 1615.25 409.063 1616.36 408.106L1626.67 399.193C1626.79 399.086 1626.9 399.028 1627.04 399.028C1627.1 399.028 1627.18 399.042 1627.28 399.074L1637.96 406.726C1638.76 407.303 1639.69 407.608 1640.63 407.608C1641.9 407.608 1643.14 407.057 1644.12 406.053C1645.64 404.49 1646.36 402.101 1646.04 399.666L1643.76 382.416C1643.6 381.213 1643.88 379.922 1644.48 379.047L1653.63 365.822C1655.3 363.407 1655.5 359.999 1654.12 357.532C1653.25 355.981 1651.81 355.033 1650.18 354.934L1637.8 354.177C1637.65 354.166 1637.2 353.864 1636.91 353.023L1631.71 337.966C1630.95 335.762 1629.28 334.446 1627.26 334.446C1624.97 334.446 1622.94 336.197 1622.1 338.905" fill="url(#paint25_linear_3_7)"/>
<path d="M1627.26 332.696C1624.09 332.696 1621.33 334.946 1620.25 338.431L1615.19 354.7C1615.08 355.051 1614.95 355.28 1614.86 355.399L1603.81 358.931C1601.66 359.618 1600 361.326 1599.15 363.741C1598.08 366.739 1598.5 370.126 1600.21 372.367L1608.43 383.136C1608.57 383.316 1608.81 383.98 1608.7 384.902L1606.6 401.783C1606.25 404.582 1607.08 407.298 1608.8 409.05C1610.04 410.317 1611.67 411.016 1613.4 411.016C1614.49 411.016 1616.12 410.732 1617.69 409.375L1627.14 401.201L1636.77 408.102C1637.92 408.922 1639.25 409.357 1640.63 409.357C1642.46 409.357 1644.21 408.595 1645.56 407.214C1647.44 405.283 1648.33 402.384 1647.95 399.455L1645.67 382.209C1645.55 381.286 1645.81 380.425 1646.11 379.979L1655.26 366.757C1657.27 363.846 1657.51 359.725 1655.83 356.736C1654.65 354.622 1652.64 353.329 1650.31 353.187L1638.75 352.479L1633.54 337.442C1632.33 333.942 1629.5 332.696 1627.26 332.696ZM1627.26 336.198C1628.32 336.198 1629.33 336.938 1629.87 338.492L1635.08 353.549C1635.57 354.958 1636.54 355.854 1637.68 355.924L1650.05 356.681C1652.97 356.858 1654.15 361.793 1652 364.892L1642.86 378.114C1642.01 379.329 1641.64 381.025 1641.85 382.626L1644.13 399.873C1644.55 403.1 1642.69 405.854 1640.63 405.854C1640.14 405.854 1639.64 405.698 1639.15 405.35L1628.47 397.698C1628.03 397.385 1627.55 397.228 1627.07 397.228C1626.47 397.228 1625.87 397.46 1625.34 397.927L1615.03 406.837C1614.5 407.301 1613.93 407.513 1613.4 407.513C1611.6 407.513 1610.05 405.167 1610.43 402.178L1612.53 385.294C1612.72 383.719 1612.37 382.153 1611.59 381.141L1603.37 370.37C1601.5 367.914 1602.52 363.054 1605.09 362.233L1616.43 358.612C1617.5 358.27 1618.43 357.156 1618.9 355.651L1623.95 339.385C1624.6 337.3 1625.97 336.198 1627.26 336.198" fill="white"/>
<path d="M1554.36 349.161L1550.17 363.905C1549.91 364.839 1549.47 365.309 1549.32 365.375L1539.91 368.559C1538.59 369.006 1537.54 370.134 1536.94 371.734C1536.22 373.662 1536.12 376.513 1537.52 378.534L1544.35 388.418C1544.67 388.873 1544.98 389.848 1544.84 391.1L1543.1 406.471C1542.85 408.706 1543.45 410.8 1544.72 412.079C1545.49 412.853 1546.47 413.276 1547.49 413.276C1548.18 413.276 1549.22 413.079 1550.23 412.134L1558.7 403.995L1567.52 411.006C1568.25 411.594 1569.12 411.905 1570.01 411.908C1571.1 411.908 1572.17 411.438 1573 410.588C1574.39 409.185 1575.07 406.874 1574.79 404.557L1572.92 388.885C1572.79 387.798 1573.01 386.635 1573.5 385.858L1581.03 373.944C1582.47 371.659 1582.58 368.368 1581.3 366.121C1580.52 364.778 1579.33 363.978 1577.93 363.865L1567.83 363.07C1567.75 363.03 1567.48 362.769 1567.28 362.128L1562.97 348.384C1562.31 346.261 1560.8 344.991 1558.94 344.991C1556.84 344.991 1555.09 346.592 1554.36 349.161" fill="url(#paint26_linear_3_7)"/>
<path d="M1558.93 343.241C1555.97 343.241 1553.45 345.396 1552.5 348.724L1548.31 363.472C1548.26 363.657 1548.2 363.799 1548.15 363.901L1539.24 366.919C1537.37 367.551 1535.9 369.065 1535.12 371.176C1534.32 373.327 1534.04 376.789 1535.89 379.468L1542.73 389.353C1542.83 389.507 1543.02 390.116 1542.92 390.925L1541.19 406.292C1540.88 409.009 1541.67 411.613 1543.29 413.251C1544.43 414.397 1545.92 415.029 1547.49 415.029C1549 415.029 1550.46 414.434 1551.61 413.35L1558.89 406.478L1566.25 412.326C1567.34 413.196 1568.65 413.657 1570.01 413.657C1571.66 413.657 1573.23 412.982 1574.44 411.758C1576.2 409.969 1577.05 407.206 1576.71 404.364L1574.83 388.695C1574.73 387.871 1574.94 387.1 1575.17 386.732L1582.7 374.818C1584.47 372.008 1584.6 368.099 1583 365.313C1581.93 363.448 1580.15 362.286 1578.1 362.12L1569.05 361.395L1564.82 347.904C1563.75 344.465 1561.07 343.241 1558.93 343.241ZM1558.93 346.744C1559.82 346.744 1560.67 347.431 1561.12 348.863L1565.43 362.607C1565.83 363.892 1566.63 364.718 1567.57 364.791L1577.76 365.608C1580.16 365.803 1581.12 370.285 1579.36 373.072L1571.83 384.986C1571.15 386.082 1570.83 387.622 1571.01 389.075L1572.88 404.744C1573.23 407.67 1571.7 410.157 1570.01 410.157C1569.61 410.157 1569.18 410.01 1568.78 409.688L1559.96 402.677C1559.6 402.387 1559.2 402.242 1558.79 402.242C1558.3 402.242 1557.81 402.45 1557.37 402.865L1548.84 410.92C1548.4 411.338 1547.93 411.526 1547.49 411.526C1545.99 411.526 1544.71 409.377 1545.02 406.652L1546.76 391.281C1546.92 389.849 1546.63 388.419 1545.99 387.489L1539.15 377.601C1537.59 375.348 1538.44 370.923 1540.58 370.201L1549.99 367.015C1550.88 366.713 1551.65 365.71 1552.04 364.347L1556.23 349.6C1556.76 347.73 1557.87 346.744 1558.93 346.744" fill="white"/>
<path d="M1497.84 357.72L1494.31 371.209C1494.11 372.012 1493.79 372.375 1493.76 372.409L1485.82 375.245C1484.68 375.654 1483.79 376.614 1483.25 378.02C1482.57 379.777 1482.4 382.567 1483.65 384.538L1489.42 393.678C1489.7 394.121 1489.93 395.046 1489.82 396.125L1488.36 410.228C1488.13 412.391 1488.7 414.389 1489.89 415.569C1490.57 416.257 1491.45 416.636 1492.36 416.636C1493.03 416.636 1494.01 416.436 1494.94 415.494L1501.75 408.289L1508.93 414.557C1509.8 415.32 1510.7 415.48 1511.3 415.482C1512.27 415.482 1513.2 415.074 1513.94 414.331C1515.22 413.044 1515.86 410.855 1515.61 408.616L1514.04 394.261C1513.94 393.283 1514.12 392.205 1514.53 391.515L1520.83 380.679C1522.08 378.513 1522.13 375.329 1520.93 373.273C1520.25 372.105 1519.21 371.392 1517.99 371.276L1509.72 370.51C1509.65 370.461 1509.46 370.223 1509.31 369.704L1505.69 357.065C1504.82 354.02 1502.63 353.785 1501.97 353.785C1500.48 353.785 1498.61 354.821 1497.84 357.72" fill="url(#paint27_linear_3_7)"/>
<path d="M1501.98 352.034C1499.74 352.034 1496.99 353.42 1495.97 357.314L1492.45 370.797C1492.42 370.884 1492.4 370.96 1492.38 371.021L1485.12 373.616C1483.95 374.033 1482.36 375.039 1481.43 377.437C1480.58 379.632 1480.43 382.947 1481.98 385.408L1487.75 394.545C1487.83 394.681 1487.98 395.241 1487.91 395.96L1486.44 410.063C1486.17 412.708 1486.92 415.207 1488.46 416.747C1489.52 417.805 1490.9 418.385 1492.36 418.385C1493.86 418.385 1495.28 417.773 1496.37 416.66L1501.98 410.922L1507.6 415.825C1508.64 416.732 1509.95 417.231 1511.3 417.231C1512.81 417.231 1514.26 416.619 1515.36 415.506C1517.03 413.841 1517.84 411.2 1517.53 408.445L1515.96 394.087C1515.88 393.373 1516.03 392.666 1516.23 392.335L1522.53 381.494C1524.08 378.818 1524.13 375.013 1522.63 372.453C1521.66 370.78 1520.04 369.716 1518.2 369.533L1511.05 368.826L1507.56 356.624C1506.59 353.24 1504.04 352.034 1501.98 352.034ZM1501.98 355.537C1502.73 355.537 1503.45 356.175 1503.83 357.506L1507.45 370.145C1507.78 371.328 1508.46 372.091 1509.24 372.169L1517.78 373.015C1519.79 373.216 1520.6 377.324 1519.12 379.858L1512.82 390.697C1512.24 391.697 1511.98 393.104 1512.13 394.435L1513.7 408.79C1513.99 411.464 1512.72 413.731 1511.3 413.731C1510.96 413.731 1510.6 413.595 1510.26 413.296L1502.86 406.827C1502.55 406.555 1502.2 406.421 1501.86 406.421C1501.46 406.421 1501.05 406.61 1500.68 406.987L1493.5 414.331C1493.13 414.711 1492.74 414.882 1492.36 414.882C1491.1 414.882 1490.01 412.902 1490.27 410.391L1491.74 396.29C1491.88 394.974 1491.63 393.66 1491.09 392.802L1485.32 383.666C1484 381.578 1484.72 377.521 1486.53 376.875L1494.47 374.036C1495.22 373.769 1495.87 372.856 1496.19 371.609L1499.72 358.126C1500.16 356.427 1501.09 355.537 1501.98 355.537" fill="white"/>
<path d="M1449.97 364.969L1446.96 377.391C1446.8 378.035 1446.57 378.368 1446.62 378.38L1439.85 380.932C1438.85 381.308 1438.06 382.158 1437.57 383.388C1436.92 385.043 1436.72 387.708 1437.84 389.639L1442.78 398.135C1443.02 398.544 1443.22 399.399 1443.12 400.388L1441.86 413.418C1441.66 415.512 1442.2 417.42 1443.31 418.519C1443.94 419.142 1444.74 419.484 1445.58 419.484C1446.49 419.484 1447.35 419.075 1448.03 418.342L1453.7 412.09L1459.44 417.556C1460.26 418.339 1461.13 418.501 1461.72 418.501C1462.59 418.501 1463.44 418.136 1464.1 417.478C1465.29 416.292 1465.89 414.213 1465.67 412.047L1464.33 398.799C1464.24 397.903 1464.4 396.914 1464.73 396.288L1470.09 386.345C1471.22 384.252 1471.21 381.23 1470.08 379.319C1469.47 378.287 1468.54 377.649 1467.47 377.525L1460.54 376.704C1460.47 376.588 1460.38 376.4 1460.3 376.113L1457.23 364.407C1456.45 361.455 1454.38 361.226 1453.76 361.226C1451.95 361.226 1450.53 362.624 1449.97 364.969" fill="url(#paint28_linear_3_7)"/>
<path d="M1453.76 359.477C1451.62 359.477 1449.01 360.82 1448.09 364.592L1445.08 377.011C1445.08 377.034 1445.07 377.054 1445.07 377.072L1439.11 379.313C1438.06 379.71 1436.62 380.635 1435.76 382.79C1434.94 384.866 1434.74 388.041 1436.15 390.456L1441.08 398.949C1441.14 399.077 1441.27 399.578 1441.21 400.236L1439.95 413.267C1439.7 415.842 1440.43 418.249 1441.89 419.704C1442.89 420.69 1444.2 421.235 1445.58 421.235C1447.07 421.235 1448.47 420.603 1449.51 419.458L1453.81 414.723L1458.05 418.765C1459.05 419.724 1460.36 420.252 1461.72 420.252C1463.14 420.252 1464.49 419.684 1465.52 418.654C1467.09 417.097 1467.86 414.566 1467.59 411.887L1466.25 398.639C1466.18 397.914 1466.35 397.288 1466.47 397.059L1471.82 387.116C1473.22 384.521 1473.2 380.893 1471.78 378.493C1470.87 376.947 1469.43 375.987 1467.72 375.787L1462.02 375.115L1459.1 364.003C1458.22 360.666 1455.77 359.477 1453.76 359.477ZM1453.76 362.98C1454.41 362.98 1455.03 363.577 1455.36 364.815L1458.43 376.518C1458.72 377.614 1459.3 378.324 1459.96 378.4L1467.23 379.258C1468.93 379.461 1469.61 383.254 1468.36 385.573L1463.01 395.519C1462.52 396.435 1462.29 397.728 1462.42 398.961L1463.76 412.206C1464.01 414.668 1462.92 416.749 1461.72 416.749C1461.43 416.749 1461.13 416.622 1460.83 416.346L1454.53 410.341C1454.26 410.086 1453.97 409.959 1453.68 409.959C1453.33 409.959 1452.98 410.133 1452.67 410.475L1446.54 417.228C1446.22 417.576 1445.89 417.732 1445.58 417.732C1444.5 417.732 1443.56 415.894 1443.78 413.572L1445.04 400.541C1445.16 399.326 1444.94 398.111 1444.48 397.311L1439.55 388.821C1438.42 386.881 1439.04 383.132 1440.58 382.549L1447.37 379.995C1448.01 379.754 1448.56 378.916 1448.84 377.765L1451.85 365.346C1452.23 363.792 1453.01 362.98 1453.76 362.98" fill="white"/>
<path d="M1700.3 577.003C1700.3 612.177 1720.43 640.695 1745.27 640.695C1770.1 640.695 1790.23 612.177 1790.23 577.003C1790.23 541.825 1770.1 513.308 1745.27 513.308C1720.43 513.308 1700.3 541.825 1700.3 577.003" fill="url(#paint29_linear_3_7)"/>
<path d="M1738.31 640.695H1745.27V513.308H1738.31V640.695Z" fill="url(#paint30_linear_3_7)"/>
<path d="M1690.74 577.003C1690.74 612.177 1710.87 640.695 1735.7 640.695C1760.54 640.695 1780.67 612.177 1780.67 577.003C1780.67 541.825 1760.54 513.308 1735.7 513.308C1710.87 513.308 1690.74 541.825 1690.74 577.003" fill="url(#paint31_radial_3_7)"/>
<path d="M1693.79 577.003C1693.79 609.785 1712.56 636.369 1735.7 636.369C1758.85 636.369 1777.61 609.785 1777.61 577.003C1777.61 544.215 1758.85 517.634 1735.7 517.634C1712.56 517.634 1693.79 544.215 1693.79 577.003Z" fill="url(#paint32_linear_3_7)"/>
<path d="M1751.44 556.091C1751.44 568.403 1744.39 578.38 1735.7 578.38C1727.01 578.38 1719.97 568.403 1719.97 556.091C1719.97 543.783 1727.01 533.802 1735.7 533.802C1744.39 533.802 1751.44 543.783 1751.44 556.091Z" fill="white"/>
<path d="M1761.52 636.367H1709.89V609.706C1709.89 596.736 1721.45 586.222 1735.7 586.222C1749.96 586.222 1761.52 596.736 1761.52 609.706V636.367Z" fill="white"/>
<path d="M1607.64 723.132H1618.81V606.834H1607.64V723.132Z" fill="url(#paint33_linear_3_7)"/>
<path d="M1571.95 664.984C1571.95 697.097 1592.42 723.138 1617.68 723.138C1642.95 723.138 1663.42 697.097 1663.42 664.984C1663.42 632.869 1642.95 606.831 1617.68 606.831C1592.42 606.831 1571.95 632.869 1571.95 664.984Z" fill="url(#paint34_linear_3_7)"/>
<path d="M1562.04 664.984C1562.04 697.097 1582.52 723.138 1607.78 723.138C1633.04 723.138 1653.52 697.097 1653.52 664.984C1653.52 632.869 1633.04 606.831 1607.78 606.831C1582.52 606.831 1562.04 632.869 1562.04 664.984Z" fill="url(#paint35_linear_3_7)"/>
<path d="M1565.85 664.984C1565.85 694.424 1584.62 718.29 1607.78 718.29C1630.94 718.29 1649.71 694.424 1649.71 664.984C1649.71 635.542 1630.94 611.676 1607.78 611.676C1584.62 611.676 1565.85 635.542 1565.85 664.984Z" fill="url(#paint36_radial_3_7)"/>
<path d="M1622.98 691.181H1599.05V648.975H1627.58C1633.18 648.975 1637.04 655.189 1636.2 662.85L1634.63 677.307C1633.79 684.968 1628.58 691.181 1622.98 691.181Z" fill="#FFFFFD"/>
<path d="M1599.05 648.976L1602.42 639.958V633.046C1602.42 630.442 1604.45 628.586 1606.38 629.465C1608.63 630.488 1611 632.898 1611 638.52C1611 649.205 1616.22 650.272 1616.22 650.272L1599.05 648.976Z" fill="#FFFFFD"/>
<path d="M1573.67 691.182H1595.52V648.976H1573.67V691.182Z" fill="url(#paint37_linear_3_7)"/>
<path d="M1592.26 682.398C1592.26 685.286 1590.42 687.631 1588.15 687.631C1585.87 687.631 1584.03 685.286 1584.03 682.398C1584.03 679.507 1585.87 677.164 1588.15 677.164C1590.42 677.164 1592.26 679.507 1592.26 682.398Z" fill="white"/>
<path d="M1636.49 660.609H1630.93C1627.94 660.609 1625.52 658.408 1625.52 655.691V653.899C1625.52 651.179 1627.94 648.975 1630.93 648.975H1636.49C1639.48 648.975 1641.9 651.179 1641.9 653.899V655.691C1641.9 658.408 1639.48 660.609 1636.49 660.609Z" fill="#FFFFFD"/>
<path d="M1634.18 670.799H1628.62C1625.63 670.799 1623.22 668.596 1623.22 665.882V664.087C1623.22 661.37 1625.63 659.166 1628.62 659.166H1634.18C1637.17 659.166 1639.59 661.37 1639.59 664.087V665.882C1639.59 668.596 1637.17 670.799 1634.18 670.799Z" fill="#FFFFFD"/>
<path d="M1631.88 680.991H1626.32C1623.33 680.991 1620.91 678.787 1620.91 676.07V674.278C1620.91 671.558 1623.33 669.357 1626.32 669.357H1631.88C1634.87 669.357 1637.29 671.558 1637.29 674.278V676.07C1637.29 678.787 1634.87 680.991 1631.88 680.991Z" fill="#FFFFFD"/>
<path d="M1629.58 691.181H1624.02C1621.03 691.181 1618.61 688.978 1618.61 686.261V684.469C1618.61 681.749 1621.03 679.545 1624.02 679.545H1629.58C1632.56 679.545 1634.98 681.749 1634.98 684.469V686.261C1634.98 688.978 1632.56 691.181 1629.58 691.181Z" fill="#FFFFFD"/>
<path d="M1737.3 792.188C1737.3 820.874 1755.35 844.128 1777.61 844.128C1799.87 844.128 1817.92 820.874 1817.92 792.188C1817.92 763.5 1799.87 740.245 1777.61 740.245C1755.35 740.245 1737.3 763.5 1737.3 792.188Z" fill="url(#paint38_linear_3_7)"/>
<path d="M1767.23 844.085H1778.06V740.246H1767.23V844.085Z" fill="url(#paint39_linear_3_7)"/>
<path d="M1726.92 792.188C1726.92 820.874 1744.96 844.128 1767.23 844.128C1789.49 844.128 1807.53 820.874 1807.53 792.188C1807.53 763.5 1789.49 740.245 1767.23 740.245C1744.96 740.245 1726.92 763.5 1726.92 792.188Z" fill="url(#paint40_radial_3_7)"/>
<path d="M1729.66 792.188C1729.66 818.922 1746.48 840.599 1767.23 840.599C1787.98 840.599 1804.79 818.922 1804.79 792.188C1804.79 765.451 1787.98 743.777 1767.23 743.777C1746.48 743.777 1729.66 765.451 1729.66 792.188Z" fill="url(#paint41_linear_3_7)"/>
<path d="M1779.79 764.517C1775.12 764.517 1770.07 767.666 1767.23 773.103C1764.38 767.666 1759.33 764.517 1754.66 764.517C1746.28 764.517 1739.31 772.349 1740.43 785.678C1742.24 807.373 1765.93 827.702 1767.23 828.803C1768.52 827.702 1792.21 807.373 1794.03 785.678C1795.14 772.349 1788.17 764.517 1779.79 764.517Z" fill="#FEFEFE"/>
<path d="M1623.36 201.454C1623.36 233.091 1643.44 258.735 1668.2 258.735C1692.98 258.735 1713.05 233.091 1713.05 201.454C1713.05 169.823 1692.98 144.176 1668.2 144.176C1643.44 144.176 1623.36 169.823 1623.36 201.454Z" fill="url(#paint42_linear_3_7)"/>
<path d="M1658.64 258.651H1669.44V144.179H1658.64V258.651Z" fill="url(#paint43_linear_3_7)"/>
<path d="M1613.79 201.454C1613.79 233.091 1633.87 258.735 1658.64 258.735C1683.41 258.735 1703.49 233.091 1703.49 201.454C1703.49 169.823 1683.41 144.176 1658.64 144.176C1633.87 144.176 1613.79 169.823 1613.79 201.454Z" fill="url(#paint44_linear_3_7)"/>
<path d="M1617.54 201.454C1617.54 230.447 1635.94 253.948 1658.64 253.948C1681.34 253.948 1699.74 230.447 1699.74 201.454C1699.74 172.464 1681.34 148.963 1658.64 148.963C1635.94 148.963 1617.54 172.464 1617.54 201.454Z" fill="url(#paint45_radial_3_7)"/>
<path d="M1680.24 182.452H1637.04L1658.64 193.566L1680.24 182.452Z" fill="#FFFFFD"/>
<path d="M1659.02 198.291C1658.9 198.351 1658.77 198.383 1658.64 198.383C1658.51 198.383 1658.38 198.351 1658.26 198.291L1631.77 184.663V217.407C1631.77 219.814 1633.3 221.763 1635.18 221.763H1682.1C1683.99 221.763 1685.52 219.814 1685.52 217.407V184.663L1659.02 198.291Z" fill="url(#paint46_linear_3_7)"/>
<path d="M1464.18 472.032L1512.03 446.901L1500.5 428.727L1452.64 453.855L1464.18 472.032Z" fill="#FFBAA2"/>
<path d="M1516.37 448.068C1505.6 452.458 1499.91 448.663 1498.3 447.164C1490.52 439.909 1490.63 429.914 1501.09 422.149C1504.01 419.974 1506.62 417.545 1518.18 410.734C1525.62 406.344 1539.08 428.983 1539.08 428.983C1540.33 430.5 1538.46 433.243 1532.52 438.088C1526.59 442.93 1516.37 448.068 1516.37 448.068Z" fill="#FFBAA2"/>
<path d="M1510.96 416.698C1509.75 417.029 1508.11 417.658 1507.36 418.435C1506.52 419.224 1506.38 419.981 1506.43 420.702C1506.44 421.398 1506.81 422.457 1507.14 423.466L1507.95 425.203L1508.98 427.026C1511.1 430.787 1509.47 435.4 1505.34 437.332C1501.2 439.263 1496.14 437.781 1494.01 434.02C1493.42 432.965 1493.11 431.843 1493.08 430.732L1493.08 430.578L1493 427.18C1493.03 426.012 1493.17 424.776 1493.29 423.617C1493.8 421.111 1494.45 418.528 1496.33 416.049C1498.13 413.596 1501 411.812 1503.72 411.146C1506.52 410.453 1508.85 410.531 1511.52 411.012C1513.2 411.311 1514.29 412.792 1513.96 414.318C1513.73 415.373 1512.88 416.173 1511.82 416.466L1510.96 416.698Z" fill="#FFBAA2"/>
<path d="M1510.59 412.559L1538.21 398.261C1540.02 397.327 1542.32 397.898 1543.34 399.539C1544.29 401.062 1543.82 402.967 1542.31 403.982L1542.19 404.063L1517.14 420.935L1516.77 421.185C1514.25 422.878 1510.7 422.397 1508.84 420.109C1506.98 417.821 1507.51 414.591 1510.02 412.898C1510.2 412.779 1510.41 412.657 1510.59 412.559Z" fill="#FFBAA2"/>
<path d="M1521.72 417.545C1521.72 420.52 1524.37 422.929 1527.64 422.929C1530.91 422.929 1533.56 420.52 1533.56 417.545C1533.56 414.57 1530.91 412.157 1527.64 412.157C1524.37 412.157 1521.72 414.57 1521.72 417.545Z" fill="#FFBAA2"/>
<path d="M1525.15 423.416C1525.15 426.391 1527.8 428.801 1531.07 428.801C1534.34 428.801 1536.99 426.391 1536.99 423.416C1536.99 420.441 1534.34 418.029 1531.07 418.029C1527.8 418.029 1525.15 420.441 1525.15 423.416Z" fill="#FFBAA2"/>
<path d="M1528.36 430.068C1528.36 433.043 1531.01 435.455 1534.28 435.455C1537.55 435.455 1540.2 433.043 1540.2 430.068C1540.2 427.093 1537.55 424.683 1534.28 424.683C1531.01 424.683 1528.36 427.093 1528.36 430.068Z" fill="#FFBAA2"/>
<path d="M1341.32 450.185C1341.32 450.185 1403.9 510.026 1420.63 510.026C1437.36 510.026 1504 455.314 1504 455.314L1490.05 430.16L1420.96 462.444L1377.41 387.832L1341.32 450.185Z" fill="url(#paint47_linear_3_7)"/>
<path d="M1341.32 450.185C1341.32 450.185 1378.15 485.397 1402.86 501.794C1391.89 466.941 1381.72 431.883 1372.31 396.653L1341.32 450.185Z" fill="url(#paint48_linear_3_7)"/>
<path d="M1348.3 872.571C1349.16 883.048 1350.02 893.527 1350.88 904.003C1358.18 903.924 1365.48 903.849 1372.79 903.777L1372.09 870.959C1364.16 871.496 1356.23 872.032 1348.3 872.571Z" fill="#FFBF98"/>
<path d="M1260.81 548.193C1274.93 572.828 1319 733.629 1319 733.629C1319 733.629 1339.08 862.625 1346.86 905.857C1356.59 906.046 1367.38 904.175 1377.23 904.132C1384.19 851.403 1378.07 715.675 1377.41 703.12C1375.99 675.907 1364.03 560.632 1364.03 560.632C1364.03 560.632 1297.45 548.048 1266.15 548.045C1264.22 548.045 1262.44 548.094 1260.81 548.193" fill="url(#paint49_linear_3_7)"/>
<path d="M1260.81 548.193C1274.93 572.828 1319 733.629 1319 733.629C1319 733.629 1339.08 862.625 1346.86 905.857C1356.59 906.046 1367.38 904.175 1377.23 904.132C1384.19 851.403 1378.07 715.675 1377.41 703.12C1375.99 675.907 1364.03 560.632 1364.03 560.632C1364.03 560.632 1297.45 548.048 1266.15 548.045C1264.22 548.045 1262.44 548.094 1260.81 548.193" fill="url(#paint50_linear_3_7)"/>
<path d="M1260.81 548.193C1274.93 572.828 1319 733.629 1319 733.629C1319 733.629 1323.92 765.225 1329.83 802.377C1330.05 779.851 1331.38 757.327 1332.09 734.815C1333.89 678.076 1334.22 621.291 1329.87 564.639C1329.53 560.165 1331.81 557.179 1335.06 555.63C1313.17 552.116 1283.96 548.045 1266.15 548.045C1264.23 548.045 1262.44 548.094 1260.81 548.193Z" fill="url(#paint51_linear_3_7)"/>
<path d="M1346.94 913.055C1347.01 910.897 1346.73 907.807 1346.87 905.858C1347 903.907 1347.9 903.211 1349.85 903.028C1352.69 902.755 1356.62 903.019 1359.41 902.834C1363.75 902.544 1366.17 900.961 1368.59 897.945C1369.39 896.953 1369.24 896.124 1370.21 895.04C1373.6 891.233 1380.13 888.49 1385.91 891.47C1391.68 894.445 1396.23 898.731 1403.79 900.389C1411.35 902.051 1421.61 903.77 1423.31 912.017C1397.89 912.376 1372.41 912.744 1346.94 913.055Z" fill="#250A20"/>
<path d="M1423.44 918.8C1397.98 919.151 1372.52 919.499 1347.07 919.85C1347.03 917.591 1346.99 915.335 1346.95 913.074C1372.41 912.723 1397.87 912.375 1423.33 912.024C1423.37 914.283 1423.41 916.544 1423.44 918.8Z" fill="#D58A4D"/>
<path d="M1239.11 877.156C1238.61 887.655 1238.12 898.152 1237.64 908.648C1244.9 909.35 1252.16 910.048 1259.42 910.747C1260.6 899.851 1261.78 888.957 1262.97 878.066C1255.02 877.762 1247.07 877.457 1239.11 877.156Z" fill="#FFBF98"/>
<path d="M1249.35 568.13L1247.76 620.033L1250.59 734.261C1250.59 734.261 1232.31 854.416 1234.64 910.882C1244.04 911.076 1252.22 912.767 1262.37 910.056C1268.06 865.231 1314.9 737.105 1314.9 737.105L1331.94 632.025L1346.47 554.262L1249.35 568.13Z" fill="url(#paint52_linear_3_7)"/>
<path d="M1249.35 568.13L1247.76 620.033L1250.59 734.261C1250.59 734.261 1232.31 854.416 1234.64 910.882C1235.24 910.899 1235.83 910.926 1236.43 910.952C1236.52 910.543 1236.62 910.128 1236.72 909.722C1246.27 871.173 1274.47 735.438 1274.47 735.438C1274.47 735.438 1283.12 577.313 1287.9 562.627L1249.35 568.13Z" fill="url(#paint53_linear_3_7)"/>
<path d="M1263.33 900.554C1262.41 903.83 1261.53 907.127 1260.67 910.433C1261.24 910.305 1261.79 910.212 1262.37 910.056C1263.01 904.955 1264.2 898.768 1265.78 891.823C1264.96 894.729 1264.15 897.631 1263.33 900.554Z" fill="url(#paint54_linear_3_7)"/>
<path d="M1250.85 896.15C1248.02 896.005 1245.2 895.898 1242.37 895.837C1237.4 895.727 1232.91 898.229 1230.34 902.103C1229.62 903.202 1228.73 904.292 1227.62 905.33C1215.54 916.555 1216.1 921.455 1216.1 921.455H1265.47C1265.53 914.177 1265.69 909.111 1265.48 904.692C1262.4 903.411 1259.62 901.512 1257.52 899.16C1255.88 897.342 1253.43 896.284 1250.85 896.15Z" fill="#250A20"/>
<path d="M1216.11 928.218V921.453H1265.57V928.218" fill="#D58A4D"/>
<path d="M1245.28 386.878C1239.1 389.062 1235.15 394.597 1235.46 400.619L1249.35 568.13H1363.67L1366.22 514.088C1366.22 514.088 1387.39 422.334 1377.41 387.832C1367.24 377.484 1333.2 372.775 1333.2 372.775L1320.76 383.541L1294.7 370.473L1245.28 386.878Z" fill="url(#paint55_linear_3_7)"/>
<path d="M1236.97 418.806L1249.34 568.13H1286.78L1267.69 429.302C1267.69 429.302 1265.69 423.349 1262.94 415.599C1254.32 416.474 1245.55 417.353 1236.97 418.806" fill="url(#paint56_linear_3_7)"/>
<path d="M1306.63 361.336C1306.09 361.496 1292.84 367.08 1292.84 367.08L1278.58 376.637L1317.6 415.445L1332.39 394.71L1354.43 403.905L1346.2 377.203L1334.1 365.822C1334.1 365.822 1308.76 361.328 1306.74 361.328C1306.69 361.328 1306.66 361.33 1306.63 361.336" fill="url(#paint57_linear_3_7)"/>
<path d="M1294.99 335.774L1294.66 374.718L1330.97 391.686L1333.2 377.574L1330.95 347.207L1294.99 335.774Z" fill="#FFBAA2"/>
<path d="M1294.92 344.438L1294.99 335.775L1330.95 347.207L1333.2 377.575L1332.95 379.158C1320.28 367.591 1307.34 356.211 1294.92 344.438Z" fill="#FAAA93"/>
<path d="M1329.24 290.102L1333.56 331.636C1333.56 331.636 1353.03 325.028 1354.08 308.486C1355.01 293.889 1342.35 287.177 1342.35 287.177L1329.24 290.102Z" fill="url(#paint58_linear_3_7)"/>
<path d="M1338.72 285.932C1343.29 285.694 1347.2 288.866 1347.46 293.018L1350.36 339.078C1350.93 348.139 1343.32 355.901 1333.35 356.42L1323.62 356.928C1320.83 357.073 1313.3 355.55 1307.54 351.204C1297.46 343.598 1294.99 335.772 1294.99 335.772L1292.86 301.998C1292.39 294.468 1298.72 288.017 1306.99 287.585L1338.72 285.932Z" fill="#FFBAA2"/>
<path d="M1335.73 324.236L1338.52 329.821L1337.06 331.636" stroke="#D1826C" stroke-width="1.228" stroke-miterlimit="10" stroke-linecap="round" stroke-linejoin="round"/>
<path d="M1340.84 337.189C1340.84 337.189 1336.8 337.221 1323.05 338.222C1323.05 338.222 1325.36 342.728 1332.9 343.261C1340.45 343.797 1340.84 337.189 1340.84 337.189Z" fill="white"/>
<path d="M1292.28 285.432C1286.88 283.251 1282.53 293.962 1282.13 297.291C1280.27 313.267 1288.38 319.983 1288.38 319.983C1288.38 319.983 1292.86 318.666 1295.71 319.646C1296.81 322.421 1297.08 328.247 1297.08 328.247L1301 328.133C1305.34 325.828 1307.65 319.504 1307.12 314.169C1307.12 314.169 1319.31 311.928 1311.82 299.724C1331.13 300.834 1358.05 302.899 1358.59 290.32C1358.94 281.99 1354.13 273.216 1335.73 272.073C1334.61 272.004 1333.3 271.966 1331.86 271.966C1319.04 271.966 1295.52 274.987 1292.28 285.432" fill="url(#paint59_linear_3_7)"/>
<path d="M1292.28 285.432C1286.88 283.251 1282.53 293.962 1282.13 297.291C1280.27 313.267 1288.38 319.983 1288.38 319.983C1288.38 319.983 1292.86 318.666 1295.71 319.646C1296.81 322.421 1297.08 328.247 1297.08 328.247L1301 328.133C1305.34 325.828 1307.65 319.504 1307.12 314.169C1307.12 314.169 1319.31 311.928 1311.82 299.724C1331.13 300.834 1358.05 302.899 1358.59 290.32C1358.94 281.99 1354.13 273.216 1335.73 272.073C1334.61 272.004 1333.3 271.966 1331.86 271.966C1319.04 271.966 1295.52 274.987 1292.28 285.432" fill="url(#paint60_radial_3_7)"/>
<path d="M1291.49 289.836L1295.7 285.278C1295.7 285.278 1290.54 282.152 1295.5 275.323C1295.5 275.323 1286.49 279.525 1291.49 289.836" fill="url(#paint61_linear_3_7)"/>
<path d="M1319.72 321.453C1319.8 322.703 1320.67 323.674 1321.67 323.622C1322.66 323.57 1323.4 322.514 1323.33 321.264C1323.24 320.015 1322.38 319.043 1321.38 319.095C1320.39 319.148 1319.65 320.203 1319.72 321.453Z" fill="#250A20"/>
<path d="M1339.88 319.256C1339.96 320.505 1340.83 321.477 1341.83 321.424C1342.82 321.372 1343.56 320.32 1343.49 319.07C1343.41 317.817 1342.54 316.846 1341.54 316.901C1340.55 316.953 1339.81 318.006 1339.88 319.256Z" fill="#250A20"/>
<path d="M1287.47 329.352C1289.68 333.904 1294.18 336.511 1297.5 335.171C1300.83 333.832 1301.73 329.053 1299.51 324.501C1297.29 319.946 1292.8 317.342 1289.47 318.681C1286.15 320.021 1285.25 324.796 1287.47 329.352Z" fill="#FFBAA2"/>
<path d="M1325.83 314.118C1323.84 314.547 1322.15 314.825 1320.56 315.318C1318.93 315.765 1317.47 316.452 1315.54 317.229L1315.49 317.252C1315.13 317.397 1314.71 317.249 1314.55 316.921C1314.47 316.762 1314.47 316.585 1314.54 316.431C1314.94 315.469 1315.56 314.544 1316.44 313.857C1317.28 313.114 1318.36 312.607 1319.47 312.259C1321.72 311.601 1324.25 311.772 1326.17 313.111C1326.44 313.3 1326.49 313.645 1326.29 313.889C1326.2 313.996 1326.08 314.062 1325.94 314.091L1325.83 314.118Z" fill="#401411"/>
<path d="M1336.36 312.397C1337.26 310.82 1339.14 310.069 1341.05 310.156C1342 310.223 1342.95 310.475 1343.7 310.988C1344.49 311.44 1345.04 312.171 1345.34 312.963C1345.45 313.238 1345.29 313.537 1344.99 313.633C1344.92 313.656 1344.84 313.664 1344.77 313.662L1344.71 313.659C1342.95 313.563 1341.93 313.418 1340.82 313.363C1339.74 313.258 1338.58 313.287 1336.95 313.16L1336.81 313.148C1336.5 313.122 1336.27 312.876 1336.29 312.589C1336.3 312.522 1336.32 312.455 1336.36 312.397Z" fill="#401411"/>
<path d="M1268.05 535.171C1270.56 536.07 1271.49 538.001 1271.74 540.187L1274.47 547.309L1274.02 552.69C1274.12 553.549 1273.77 554.5 1273.07 555.3C1270.99 557.663 1267.23 557.475 1266.8 554.987L1266.99 547.1L1262.83 540.063L1268.05 535.171Z" fill="#FFBAA2"/>
<path d="M1242.49 519.374L1259.36 532.912C1259.93 533.364 1260.36 533.938 1260.63 534.585L1268.83 550.73C1269.01 551.162 1269.26 551.562 1269.58 551.918L1273.93 553.652C1276.05 556.007 1276.52 557.19 1272.09 560.385C1267.97 563.36 1261.64 569.597 1256.17 569.423C1252.56 569.307 1243.94 570.258 1241.36 567.921C1240.64 567.269 1239.74 566.796 1239.32 565.955L1225.34 531.07C1224.42 529.261 1225.01 527.115 1226.76 525.918L1236.62 519.168C1238.38 517.959 1240.84 518.046 1242.49 519.374Z" fill="#FFBAA2"/>
<path d="M1269.88 552.036L1273.93 553.654C1276.06 556.006 1276.52 557.189 1272.09 560.384C1267.97 563.359 1261.63 569.599 1256.17 569.422C1252.56 569.306 1243.94 570.257 1241.36 567.923C1241.04 567.633 1240.69 567.381 1240.36 567.117C1250.67 563.014 1260.87 557.966 1269.88 552.036Z" fill="#FAAA93"/>
<path d="M1249.27 524.81L1268.05 535.173L1271.45 540.773C1272.68 542.805 1271.47 545.348 1268.99 545.919L1258.17 548.413L1249.27 524.81Z" fill="#FFBAA2"/>
<path d="M1164.96 446.659C1158.73 453.023 1158.61 462.601 1164.39 469.302L1228.88 541.011L1254.31 527.217L1212.77 462.711L1263.64 442.24C1263.64 442.24 1287.64 430.691 1287.9 409.492C1288.16 388.293 1243.28 387.583 1243.28 387.583C1243.28 387.583 1192.68 418.31 1164.96 446.659" fill="url(#paint62_linear_3_7)"/>
<path d="M913.325 643.365C903.652 645.842 903.366 656.132 914.728 674.704C922.723 678.783 932.115 680.738 941.513 679.517C934.854 681.381 927.687 682.782 920.386 683.269C925.605 690.68 932.303 699.121 940.614 708.637C974.149 750.139 986.232 780.373 992.694 799.371C998.713 818.511 999.111 826.412 999.115 826.528C1005.51 823.991 1012.02 821.573 1018.62 819.273C1018.33 819.27 1019.58 798.063 1014.66 770.61C1010.12 743.261 999.398 709.67 983.618 687.456C974.439 673.66 963.24 663.175 952.289 655.845C950.478 658.907 948.205 661.78 945.664 664.425C947.013 660.131 946.611 656.234 946.445 652.221C935.475 645.914 925.188 642.832 917.97 642.832C916.232 642.832 914.673 643.012 913.325 643.365" fill="url(#paint63_linear_3_7)"/>
<path d="M930.885 661.143C930.347 661.778 930.477 662.688 931.172 663.175C931.899 663.688 1003.71 715.391 1005.68 821.251C1005.69 822.042 1006.4 822.674 1007.27 822.674H1007.3C1008.18 822.663 1008.88 822.002 1008.87 821.201C1006.87 713.964 933.86 661.401 933.12 660.882C932.833 660.682 932.489 660.583 932.148 660.583C931.673 660.583 931.201 660.771 930.885 661.143Z" fill="url(#paint64_radial_3_7)"/>
<path d="M944.026 686.395C943.156 686.499 942.544 687.227 942.655 688.022C942.77 688.816 943.586 689.361 944.444 689.268C944.53 689.257 953.035 688.271 958.401 689.422C958.525 689.448 958.65 689.46 958.771 689.46C959.491 689.46 960.145 689.007 960.32 688.343C960.521 687.566 959.992 686.786 959.137 686.601C956.88 686.114 954.212 685.963 951.747 685.963C947.731 685.963 944.259 686.369 944.026 686.395" fill="url(#paint65_radial_3_7)"/>
<path d="M955.732 671.885C955.595 672.088 952.512 676.957 953.564 683.803C953.676 684.528 954.355 685.052 955.139 685.052C955.213 685.052 955.289 685.044 955.362 685.038C956.236 684.928 956.842 684.194 956.72 683.4C955.831 677.6 958.455 673.39 958.48 673.35C958.92 672.657 958.662 671.772 957.903 671.363C957.651 671.233 957.377 671.169 957.103 671.169C956.558 671.169 956.029 671.424 955.732 671.885" fill="url(#paint66_radial_3_7)"/>
<path d="M950.283 702.09C949.416 702.209 948.814 702.942 948.935 703.737C949.066 704.531 949.875 705.045 950.746 704.963C950.867 704.943 963.268 703.363 971.426 707.193C971.656 707.3 971.911 707.353 972.156 707.353C972.73 707.353 973.291 707.066 973.572 706.57C973.977 705.856 973.668 704.981 972.887 704.613C967.856 702.252 961.607 701.716 956.953 701.716C953.232 701.716 950.529 702.058 950.283 702.09" fill="url(#paint67_radial_3_7)"/>
<path d="M979.086 697.091C978.895 697.384 974.482 704.349 975.99 714.179C976.105 714.901 976.787 715.425 977.568 715.425C977.645 715.425 977.718 715.42 977.795 715.414C978.662 715.301 979.271 714.567 979.15 713.773C977.798 704.993 981.792 698.622 981.834 698.559C982.274 697.868 982.019 696.981 981.26 696.578C981.005 696.442 980.728 696.378 980.45 696.378C979.908 696.378 979.379 696.63 979.086 697.091" fill="url(#paint68_radial_3_7)"/>
<path d="M972.001 748.222C971.131 748.341 970.528 749.078 970.653 749.869C970.78 750.664 971.606 751.174 972.46 751.096C972.591 751.075 985.668 749.408 994.279 753.447C994.515 753.56 994.764 753.61 995.009 753.61C995.586 753.61 996.144 753.325 996.428 752.827C996.833 752.11 996.527 751.241 995.743 750.872C990.46 748.393 983.899 747.828 979.012 747.828C975.1 747.828 972.26 748.19 972.001 748.222Z" fill="url(#paint69_radial_3_7)"/>
<path d="M992.14 723.686C991.939 723.993 987.31 731.3 988.898 741.623C989.01 742.348 989.692 742.872 990.473 742.872C990.546 742.872 990.623 742.867 990.696 742.858C991.57 742.748 992.175 742.014 992.054 741.223C990.626 731.941 994.844 725.22 994.888 725.153C995.328 724.466 995.073 723.576 994.315 723.173C994.06 723.036 993.779 722.973 993.505 722.973C992.96 722.973 992.434 723.225 992.14 723.686" fill="url(#paint70_radial_3_7)"/>
<path d="M977.143 576.817C964.282 576.797 959.998 589.384 966.884 615.848C975.166 623.402 985.987 628.783 998.031 630.256C989.114 630.445 979.751 629.9 970.572 628.189C974.172 638.97 979.186 651.481 985.782 665.834C1011.21 727.554 1014.52 768.615 1015.21 794.056C1015.3 819.534 1012.77 829.39 1012.73 829.532C1021.58 828.43 1030.51 827.508 1039.53 826.769C1039.17 826.67 1048.82 800.957 1053.27 765.585C1058.13 730.471 1057.78 685.705 1046.85 653.354C1040.82 633.463 1031.04 617.008 1020.35 604.514C1016.96 607.712 1013.05 610.534 1008.92 612.978C1012.22 608.118 1013.22 603.195 1014.55 598.199C1000.84 584.31 986.513 576.817 977.255 576.814C977.216 576.814 977.181 576.817 977.143 576.817" fill="url(#paint71_linear_3_7)"/>
<path d="M992.238 604.587C991.53 605.068 991.381 605.973 991.903 606.619C992.602 607.477 1061.36 694.111 1023.26 825.209C1023.03 825.986 1023.54 826.777 1024.39 826.983C1024.53 827.018 1024.66 827.03 1024.8 827.03C1025.51 827.03 1026.15 826.6 1026.34 825.954C1064.85 693.444 995.178 605.761 994.463 604.891C994.154 604.508 993.673 604.308 993.182 604.308C992.853 604.308 992.522 604.398 992.238 604.587" fill="url(#paint72_radial_3_7)"/>
<path d="M996.622 641.147C996.5 641.939 997.1 642.675 997.97 642.791C998.082 642.806 1009.01 644.279 1015.25 647.442C1015.5 647.567 1015.76 647.625 1016.03 647.625C1016.58 647.625 1017.13 647.358 1017.42 646.882C1017.85 646.184 1017.57 645.296 1016.8 644.911C1010.05 641.489 998.904 639.984 998.432 639.921C998.362 639.915 998.292 639.909 998.225 639.909C997.438 639.909 996.743 640.416 996.622 641.147" fill="url(#paint73_radial_3_7)"/>
<path d="M1018.77 625.646C1018.53 625.852 1012.97 630.778 1011.67 639.399C1011.55 640.193 1012.16 640.924 1013.03 641.031C1013.11 641.04 1013.18 641.043 1013.26 641.043C1014.04 641.043 1014.72 640.518 1014.83 639.793C1015.97 632.213 1020.92 627.78 1020.98 627.737C1021.61 627.183 1021.62 626.264 1021.01 625.687C1020.7 625.391 1020.28 625.243 1019.87 625.243C1019.47 625.243 1019.07 625.376 1018.77 625.646Z" fill="url(#paint74_radial_3_7)"/>
<path d="M998.348 662.482C998.236 663.277 998.851 664.004 999.722 664.112C999.884 664.129 1015.91 666.133 1024.58 673.506C1024.89 673.764 1025.28 673.895 1025.67 673.895C1026.1 673.895 1026.52 673.741 1026.84 673.437C1027.44 672.851 1027.4 671.932 1026.76 671.387C1017.34 663.372 1000.83 661.319 1000.14 661.235C1000.07 661.227 999.996 661.221 999.926 661.221C999.145 661.221 998.456 661.751 998.348 662.482" fill="url(#paint75_radial_3_7)"/>
<path d="M1037.88 664.08C1037.54 664.375 1029.55 671.459 1027.68 683.904C1027.55 684.698 1028.16 685.429 1029.04 685.536C1029.11 685.545 1029.18 685.554 1029.26 685.554C1030.04 685.554 1030.72 685.026 1030.83 684.301C1032.55 672.897 1040.01 666.237 1040.09 666.17C1040.72 665.619 1040.74 664.7 1040.13 664.123C1039.82 663.827 1039.4 663.68 1038.98 663.68C1038.59 663.68 1038.19 663.81 1037.88 664.08" fill="url(#paint76_radial_3_7)"/>
<path d="M1007.44 726.168C1007.33 726.966 1007.95 727.693 1008.81 727.798C1008.99 727.815 1025.87 729.914 1035.03 737.703C1035.34 737.964 1035.74 738.094 1036.13 738.094C1036.55 738.094 1036.98 737.937 1037.29 737.636C1037.89 737.05 1037.86 736.134 1037.22 735.589C1027.31 727.168 1009.96 725.008 1009.23 724.918C1009.17 724.913 1009.1 724.907 1009.03 724.907C1008.25 724.907 1007.55 725.437 1007.44 726.168" fill="url(#paint77_radial_3_7)"/>
<path d="M1043.79 700.962C1043.43 701.272 1035.04 708.713 1033.06 721.787C1032.94 722.584 1033.55 723.315 1034.43 723.422C1034.5 723.431 1034.57 723.437 1034.65 723.437C1035.43 723.437 1036.11 722.909 1036.22 722.184C1038.04 710.154 1045.91 703.125 1045.99 703.053C1046.62 702.499 1046.65 701.583 1046.03 701.006C1045.72 700.71 1045.3 700.562 1044.88 700.562C1044.49 700.562 1044.09 700.693 1043.79 700.962" fill="url(#paint78_radial_3_7)"/>
<path d="M1110.55 652.221C1110.39 656.234 1109.99 660.131 1111.33 664.425C1108.79 661.78 1106.52 658.907 1104.71 655.845C1093.76 663.175 1082.55 673.66 1073.38 687.456C1057.6 709.67 1046.89 743.261 1042.33 770.61C1037.42 798.063 1038.67 819.27 1038.38 819.273C1044.98 821.573 1051.48 823.991 1057.88 826.528C1057.88 826.412 1058.28 818.511 1064.3 799.371C1070.76 780.373 1082.85 750.139 1116.38 708.637C1124.7 699.121 1131.39 690.68 1136.61 683.269C1129.31 682.782 1122.14 681.381 1115.48 679.517C1124.88 680.738 1134.28 678.783 1142.27 674.704C1153.63 656.132 1153.35 645.842 1143.67 643.365C1142.32 643.012 1140.77 642.832 1139.03 642.832C1131.81 642.832 1121.52 645.914 1110.55 652.221" fill="url(#paint79_linear_3_7)"/>
<path d="M1123.87 660.882C1123.14 661.401 1050.13 713.964 1048.13 821.201C1048.12 822.002 1048.82 822.663 1049.7 822.674H1049.72C1050.59 822.674 1051.31 822.042 1051.32 821.251C1053.29 715.469 1125.1 663.688 1125.83 663.175C1126.52 662.688 1126.65 661.775 1126.11 661.143C1125.79 660.771 1125.32 660.58 1124.85 660.58C1124.51 660.58 1124.16 660.679 1123.87 660.882" fill="url(#paint80_radial_3_7)"/>
<path d="M1097.86 686.601C1097.01 686.786 1096.48 687.566 1096.68 688.343C1096.85 689.007 1097.51 689.46 1098.23 689.46C1098.35 689.46 1098.47 689.448 1098.6 689.422C1103.97 688.271 1112.47 689.257 1112.55 689.268C1113.41 689.364 1114.23 688.816 1114.34 688.022C1114.45 687.227 1113.84 686.499 1112.97 686.395C1112.74 686.369 1109.27 685.963 1105.25 685.963C1102.79 685.963 1100.12 686.114 1097.86 686.601" fill="url(#paint81_radial_3_7)"/>
<path d="M1099.09 671.363C1098.33 671.772 1098.07 672.657 1098.52 673.35C1098.54 673.39 1101.17 677.6 1100.28 683.4C1100.16 684.194 1100.76 684.928 1101.63 685.038C1101.71 685.044 1101.78 685.052 1101.86 685.052C1102.64 685.052 1103.32 684.528 1103.44 683.803C1104.49 676.957 1101.4 672.088 1101.27 671.885C1100.97 671.422 1100.44 671.169 1099.9 671.169C1099.62 671.169 1099.35 671.233 1099.09 671.363" fill="url(#paint82_radial_3_7)"/>
<path d="M1084.11 704.613C1083.33 704.981 1083.02 705.856 1083.43 706.57C1083.71 707.066 1084.27 707.353 1084.84 707.353C1085.09 707.353 1085.34 707.3 1085.57 707.193C1093.71 703.374 1106.12 704.94 1106.25 704.963C1107.11 705.062 1107.94 704.528 1108.06 703.734C1108.19 702.942 1107.58 702.209 1106.71 702.09C1106.46 702.061 1103.76 701.716 1100.05 701.716C1095.39 701.716 1089.14 702.255 1084.11 704.613Z" fill="url(#paint83_radial_3_7)"/>
<path d="M1075.73 696.578C1074.97 696.984 1074.72 697.874 1075.17 698.561C1075.21 698.625 1079.21 704.938 1077.85 713.773C1077.73 714.567 1078.33 715.301 1079.21 715.414C1079.28 715.42 1079.36 715.425 1079.43 715.425C1080.21 715.425 1080.89 714.901 1081.01 714.179C1082.52 704.349 1078.1 697.384 1077.91 697.091C1077.62 696.63 1077.09 696.378 1076.55 696.378C1076.27 696.378 1075.99 696.442 1075.73 696.578" fill="url(#paint84_radial_3_7)"/>
<path d="M1061.26 750.872C1060.47 751.241 1060.17 752.11 1060.57 752.827C1060.85 753.325 1061.41 753.61 1061.99 753.61C1062.23 753.61 1062.49 753.56 1062.72 753.447C1071.31 749.42 1084.41 751.078 1084.54 751.096C1085.41 751.2 1086.22 750.655 1086.35 749.866C1086.47 749.078 1085.87 748.341 1085 748.222C1084.74 748.19 1081.9 747.828 1077.99 747.828C1073.1 747.828 1066.54 748.393 1061.26 750.872" fill="url(#paint85_radial_3_7)"/>
<path d="M1062.68 723.173C1061.92 723.579 1061.67 724.469 1062.12 725.156C1062.15 725.223 1066.38 731.889 1064.94 741.223C1064.82 742.014 1065.43 742.748 1066.3 742.858C1066.38 742.867 1066.45 742.872 1066.53 742.872C1067.31 742.872 1067.99 742.348 1068.1 741.623C1069.69 731.3 1065.06 723.993 1064.86 723.686C1064.56 723.225 1064.03 722.973 1063.49 722.973C1063.21 722.973 1062.93 723.036 1062.68 723.173" fill="url(#paint86_radial_3_7)"/>
<path d="M972.692 815.228C966.45 815.228 961.713 820.349 962.784 825.945L980.685 919.63C981.523 924.014 985.703 927.213 990.593 927.213H1063.61C1068.51 927.213 1072.69 924.014 1073.53 919.63L1091.43 825.945C1092.5 820.349 1087.76 815.228 1081.52 815.228H972.692Z" fill="url(#paint87_linear_3_7)"/>
<path d="M962.316 802.378C956.762 802.378 952.257 806.472 952.257 811.529V828.7C952.257 833.754 956.762 837.848 962.316 837.848H1091.9C1097.45 837.848 1101.95 833.754 1101.95 828.7V811.529C1101.95 806.472 1097.45 802.378 1091.9 802.378H962.316Z" fill="url(#paint88_linear_3_7)"/>
<path d="M1069.18 802.375C1063.09 828.839 1054.36 854.845 1039.7 878.471C1027.81 897.657 1012.13 913.938 993.613 927.213H1063.62C1068.51 927.213 1072.69 924.014 1073.53 919.63L1089.15 837.848H1091.9C1097.45 837.848 1101.95 833.754 1101.95 828.7V811.529C1101.95 806.472 1097.45 802.375 1091.9 802.375H1069.18Z" fill="url(#paint89_linear_3_7)"/>
<path d="M1266.19 225.752C1266.19 233.607 1273.21 239.998 1281.85 239.998C1290.49 239.998 1297.52 233.607 1297.52 225.752C1297.52 217.894 1290.49 211.504 1281.85 211.504C1273.21 211.504 1266.19 217.894 1266.19 225.752ZM1269.3 225.752C1269.3 219.46 1274.93 214.337 1281.85 214.337C1288.77 214.337 1294.41 219.46 1294.41 225.752C1294.41 232.047 1288.77 237.168 1281.85 237.168C1274.93 237.168 1269.3 232.047 1269.3 225.752Z" fill="url(#paint90_radial_3_7)"/>
<path d="M1924.03 148.963C1924.03 156.821 1931.06 163.212 1939.7 163.212C1948.34 163.212 1955.36 156.821 1955.36 148.963C1955.36 141.108 1948.34 134.715 1939.7 134.715C1931.06 134.715 1924.03 141.108 1924.03 148.963ZM1927.14 148.963C1927.14 142.668 1932.77 137.548 1939.7 137.548C1946.62 137.548 1952.25 142.668 1952.25 148.963C1952.25 155.261 1946.62 160.379 1939.7 160.379C1932.77 160.379 1927.14 155.261 1927.14 148.963Z" fill="url(#paint91_radial_3_7)"/>
<path d="M1052.77 167.274C1052.77 175.132 1059.8 181.523 1068.43 181.523C1077.07 181.523 1084.1 175.132 1084.1 167.274C1084.1 159.419 1077.07 153.029 1068.43 153.029C1059.8 153.029 1052.77 159.419 1052.77 167.274ZM1055.88 167.274C1055.88 160.979 1061.51 155.861 1068.43 155.861C1075.35 155.861 1080.98 160.979 1080.98 167.274C1080.98 173.569 1075.35 178.693 1068.43 178.693C1061.51 178.693 1055.88 173.569 1055.88 167.274Z" fill="url(#paint92_radial_3_7)"/>
<path d="M1008.14 428.803C1008.14 441.295 1019.31 451.455 1033.05 451.455C1046.79 451.455 1057.96 441.295 1057.96 428.803C1057.96 416.309 1046.79 406.152 1033.05 406.152C1019.31 406.152 1008.14 416.309 1008.14 428.803ZM1013.09 428.803C1013.09 418.794 1022.04 410.652 1033.05 410.652C1044.05 410.652 1053.01 418.794 1053.01 428.803C1053.01 438.813 1044.05 446.952 1033.05 446.952C1022.04 446.952 1013.09 438.813 1013.09 428.803Z" fill="url(#paint93_radial_3_7)"/>
<path d="M760.058 740.246C760.058 747.689 766.714 753.743 774.901 753.743C783.082 753.743 789.738 747.689 789.738 740.246C789.738 732.802 783.082 726.745 774.901 726.745C766.714 726.745 760.058 732.802 760.058 740.246ZM763.007 740.246C763.007 734.284 768.343 729.43 774.901 729.43C781.456 729.43 786.792 734.284 786.792 740.246C786.792 746.207 781.456 751.064 774.901 751.064C768.343 751.064 763.007 746.207 763.007 740.246Z" fill="url(#paint94_radial_3_7)"/>
<path d="M1459.74 140.636C1459.74 153.127 1470.91 163.29 1484.64 163.29C1498.38 163.29 1509.55 153.127 1509.55 140.636C1509.55 128.145 1498.38 117.982 1484.64 117.982C1470.91 117.982 1459.74 128.145 1459.74 140.636ZM1464.69 140.636C1464.69 130.629 1473.64 122.488 1484.64 122.488C1495.65 122.488 1504.6 130.629 1504.6 140.636C1504.6 150.645 1495.65 158.787 1484.64 158.787C1473.64 158.787 1464.69 150.645 1464.69 140.636Z" fill="url(#paint95_radial_3_7)"/>
</g>
<defs>
<radialGradient id="paint0_radial_3_7" cx="0" cy="0" r="1" gradientUnits="userSpaceOnUse" gradientTransform="translate(1029.53 934.76) rotate(-49.2988) scale(2147.11 2187.26)">
<stop stop-color="white"/>
<stop offset="0.742545" stop-color="#95C5FF"/>
<stop offset="1" stop-color="#95C5FF"/>
</radialGradient>
<radialGradient id="paint1_radial_3_7" cx="0" cy="0" r="1" gradientUnits="userSpaceOnUse" gradientTransform="translate(1707.93 652.815) rotate(-63.3357) scale(764.48 811.286)">
<stop stop-color="white"/>
<stop offset="0.742545" stop-color="#78B6FF"/>
<stop offset="1" stop-color="#78B6FF"/>
</radialGradient>
<radialGradient id="paint2_radial_3_7" cx="0" cy="0" r="1" gradientUnits="userSpaceOnUse" gradientTransform="translate(805.576 583.216) rotate(68.0572) scale(322.631 346.169)">
<stop stop-color="white"/>
<stop offset="0.742545" stop-color="#95C5FF"/>
<stop offset="1" stop-color="#95C5FF"/>
</radialGradient>
<radialGradient id="paint3_radial_3_7" cx="0" cy="0" r="1" gradientUnits="userSpaceOnUse" gradientTransform="translate(950.258 -469.398) scale(73.585 66.9269)">
<stop stop-color="white"/>
<stop offset="0.742545" stop-color="#DBEDFF"/>
<stop offset="1" stop-color="#DBEDFF"/>
</radialGradient>
<radialGradient id="paint4_radial_3_7" cx="0" cy="0" r="1" gradientUnits="userSpaceOnUse" gradientTransform="translate(858.017 -513.397) scale(57.7277 52.5045)">
<stop stop-color="white"/>
<stop offset="0.742545" stop-color="#DBEDFF"/>
<stop offset="1" stop-color="#DBEDFF"/>
</radialGradient>
<radialGradient id="paint5_radial_3_7" cx="0" cy="0" r="1" gradientUnits="userSpaceOnUse" gradientTransform="translate(1118.45 -602.976) scale(45.5578 41.4357)">
<stop stop-color="white"/>
<stop offset="0.742545" stop-color="#DBEDFF"/>
<stop offset="1" stop-color="#DBEDFF"/>
</radialGradient>
<radialGradient id="paint6_radial_3_7" cx="0" cy="0" r="1" gradientUnits="userSpaceOnUse" gradientTransform="translate(1041 457.055) rotate(87.7649) scale(182.343 200.43)">
<stop stop-color="white"/>
<stop offset="0.742545" stop-color="#95C5FF"/>
<stop offset="1" stop-color="#95C5FF"/>
</radialGradient>
<radialGradient id="paint7_radial_3_7" cx="0" cy="0" r="1" gradientUnits="userSpaceOnUse" gradientTransform="translate(1199.52 -415.43) rotate(-87.7649) scale(142.194 156.299)">
<stop stop-color="white"/>
<stop offset="0.742545" stop-color="#DBEDFF"/>
<stop offset="1" stop-color="#DBEDFF"/>
</radialGradient>
<radialGradient id="paint8_radial_3_7" cx="0" cy="0" r="1" gradientUnits="userSpaceOnUse" gradientTransform="translate(1627.12 562.888) rotate(111.943) scale(316.139 339.204)">
<stop stop-color="white"/>
<stop offset="0.742545" stop-color="#95C5FF"/>
<stop offset="1" stop-color="#95C5FF"/>
</radialGradient>
<radialGradient id="paint9_radial_3_7" cx="0" cy="0" r="1" gradientUnits="userSpaceOnUse" gradientTransform="translate(1485.53 -503.674) rotate(180) scale(72.1312 65.6047)">
<stop stop-color="white"/>
<stop offset="0.742545" stop-color="#DBEDFF"/>
<stop offset="1" stop-color="#DBEDFF"/>
</radialGradient>
<radialGradient id="paint10_radial_3_7" cx="0" cy="0" r="1" gradientUnits="userSpaceOnUse" gradientTransform="translate(1574.63 -548.625) rotate(180) scale(55.8643 50.8097)">
<stop stop-color="white"/>
<stop offset="0.742545" stop-color="#DBEDFF"/>
<stop offset="1" stop-color="#DBEDFF"/>
</radialGradient>
<radialGradient id="paint11_radial_3_7" cx="0" cy="0" r="1" gradientUnits="userSpaceOnUse" gradientTransform="translate(1314.2 -634.066) rotate(180) scale(45.5578 41.4357)">
<stop stop-color="white"/>
<stop offset="0.742545" stop-color="#DBEDFF"/>
<stop offset="1" stop-color="#DBEDFF"/>
</radialGradient>
<radialGradient id="paint12_radial_3_7" cx="0" cy="0" r="1" gradientUnits="userSpaceOnUse" gradientTransform="translate(2052.21 440.563) rotate(92.2351) scale(182.03 200.086)">
<stop stop-color="white"/>
<stop offset="0.742545" stop-color="#95C5FF"/>
<stop offset="1" stop-color="#95C5FF"/>
</radialGradient>
<radialGradient id="paint13_radial_3_7" cx="0" cy="0" r="1" gradientUnits="userSpaceOnUse" gradientTransform="translate(1896.98 -440.611) rotate(-92.2351) scale(139.008 152.797)">
<stop stop-color="white"/>
<stop offset="0.742545" stop-color="#DBEDFF"/>
<stop offset="1" stop-color="#DBEDFF"/>
</radialGradient>
<radialGradient id="paint14_radial_3_7" cx="0" cy="0" r="1" gradientUnits="userSpaceOnUse" gradientTransform="translate(822.31 719.408) rotate(44.708) scale(597.909 566.645)">
<stop stop-color="white"/>
<stop offset="0.742545" stop-color="#95C5FF"/>
<stop offset="1" stop-color="#95C5FF"/>
</radialGradient>
<linearGradient id="paint15_linear_3_7" x1="1887.76" y1="559.322" x2="1610.9" y2="559.322" gradientUnits="userSpaceOnUse">
<stop stop-color="#301A61"/>
<stop offset="1" stop-color="#240973"/>
</linearGradient>
<radialGradient id="paint16_radial_3_7" cx="0" cy="0" r="1" gradientUnits="userSpaceOnUse" gradientTransform="translate(2003.49 97.6756) rotate(111.377) scale(826.377 887.73)">
<stop stop-color="#A6BEFB"/>
<stop offset="0.984484" stop-color="#002BFF"/>
<stop offset="1" stop-color="#002BFF"/>
</radialGradient>
<linearGradient id="paint17_linear_3_7" x1="1833.4" y1="388.381" x2="1595.94" y2="947.015" gradientUnits="userSpaceOnUse">
<stop stop-color="#7797FF"/>
<stop offset="1" stop-color="#415FC6"/>
</linearGradient>
<linearGradient id="paint18_linear_3_7" x1="1581.64" y1="289.752" x2="1968.55" y2="1050.61" gradientUnits="userSpaceOnUse">
<stop stop-color="#FFE565"/>
<stop offset="0.901242" stop-color="#FF713E"/>
<stop offset="1" stop-color="#FF713E"/>
</linearGradient>
<linearGradient id="paint19_linear_3_7" x1="1843.25" y1="441.406" x2="1606.89" y2="441.406" gradientUnits="userSpaceOnUse">
<stop stop-color="#FFDD6D"/>
<stop offset="0.0987581" stop-color="#FFDD6D"/>
<stop offset="1" stop-color="#FF9D7C"/>
</linearGradient>
<linearGradient id="paint20_linear_3_7" x1="1690.55" y1="847.464" x2="1702.67" y2="875.963" gradientUnits="userSpaceOnUse">
<stop stop-color="#4D70DD"/>
<stop offset="1" stop-color="#213EA0"/>
</linearGradient>
<linearGradient id="paint21_linear_3_7" x1="1798.62" y1="361.1" x2="1440.29" y2="361.1" gradientUnits="userSpaceOnUse">
<stop stop-color="#301A61"/>
<stop offset="1" stop-color="#240973"/>
</linearGradient>
<radialGradient id="paint22_radial_3_7" cx="0" cy="0" r="1" gradientUnits="userSpaceOnUse" gradientTransform="translate(1837.61 205.127) rotate(110.845) scale(275.248 296.01)">
<stop stop-color="#A6BEFB"/>
<stop offset="0.984484" stop-color="#002BFF"/>
<stop offset="1" stop-color="#002BFF"/>
</radialGradient>
<radialGradient id="paint23_radial_3_7" cx="0" cy="0" r="1" gradientUnits="userSpaceOnUse" gradientTransform="translate(1729.98 304.099) rotate(120.466) scale(540.526 567.903)">
<stop stop-color="white"/>
<stop offset="0.742545" stop-color="#95C5FF"/>
<stop offset="1" stop-color="#95C5FF"/>
</radialGradient>
<linearGradient id="paint24_linear_3_7" x1="1711.41" y1="464.147" x2="1693.34" y2="262.149" gradientUnits="userSpaceOnUse">
<stop stop-color="#301A61"/>
<stop offset="1" stop-color="#240973"/>
</linearGradient>
<linearGradient id="paint25_linear_3_7" x1="1606.09" y1="419.151" x2="1638.6" y2="338.73" gradientUnits="userSpaceOnUse">
<stop stop-color="#FF7E00"/>
<stop offset="1" stop-color="#FFE600"/>
</linearGradient>
<linearGradient id="paint26_linear_3_7" x1="1543.63" y1="409.531" x2="1578.18" y2="341.917" gradientUnits="userSpaceOnUse">
<stop stop-color="#FF7E00"/>
<stop offset="1" stop-color="#FFE600"/>
</linearGradient>
<linearGradient id="paint27_linear_3_7" x1="1485.79" y1="420.283" x2="1522.93" y2="336.351" gradientUnits="userSpaceOnUse">
<stop stop-color="#FF7E00"/>
<stop offset="1" stop-color="#FFE600"/>
</linearGradient>
<linearGradient id="paint28_linear_3_7" x1="1444" y1="414.786" x2="1471.78" y2="345.554" gradientUnits="userSpaceOnUse">
<stop stop-color="#FF7E00"/>
<stop offset="1" stop-color="#FFE600"/>
</linearGradient>
<linearGradient id="paint29_linear_3_7" x1="1700.3" y1="577.001" x2="1790.23" y2="577.001" gradientUnits="userSpaceOnUse">
<stop stop-color="#301A61"/>
<stop offset="1" stop-color="#240973"/>
</linearGradient>
<linearGradient id="paint30_linear_3_7" x1="1738.31" y1="577.001" x2="1745.27" y2="577.001" gradientUnits="userSpaceOnUse">
<stop stop-color="#301A61"/>
<stop offset="1" stop-color="#240973"/>
</linearGradient>
<radialGradient id="paint31_radial_3_7" cx="0" cy="0" r="1" gradientUnits="userSpaceOnUse" gradientTransform="translate(1735.7 577.001) scale(58.8476 53.523)">
<stop stop-color="white"/>
<stop offset="0.742545" stop-color="#95C5FF"/>
<stop offset="1" stop-color="#95C5FF"/>
</radialGradient>
<linearGradient id="paint32_linear_3_7" x1="1687.78" y1="497.695" x2="1752.33" y2="626.825" gradientUnits="userSpaceOnUse">
<stop stop-color="#7797FF"/>
<stop offset="1" stop-color="#415FC6"/>
</linearGradient>
<linearGradient id="paint33_linear_3_7" x1="1607.64" y1="664.98" x2="1618.81" y2="664.98" gradientUnits="userSpaceOnUse">
<stop stop-color="#301A61"/>
<stop offset="1" stop-color="#240973"/>
</linearGradient>
<linearGradient id="paint34_linear_3_7" x1="1571.95" y1="664.983" x2="1663.42" y2="664.983" gradientUnits="userSpaceOnUse">
<stop stop-color="#301A61"/>
<stop offset="1" stop-color="#240973"/>
</linearGradient>
<linearGradient id="paint35_linear_3_7" x1="1562.04" y1="664.983" x2="1653.52" y2="664.983" gradientUnits="userSpaceOnUse">
<stop stop-color="#7797FF"/>
<stop offset="1" stop-color="#415FC6"/>
</linearGradient>
<radialGradient id="paint36_radial_3_7" cx="0" cy="0" r="1" gradientUnits="userSpaceOnUse" gradientTransform="translate(1568.37 578.591) rotate(77.4433) scale(122.733 187.095)">
<stop stop-color="white"/>
<stop offset="0.742545" stop-color="#95C5FF"/>
<stop offset="1" stop-color="#95C5FF"/>
</radialGradient>
<linearGradient id="paint37_linear_3_7" x1="1573.67" y1="670.078" x2="1595.52" y2="670.078" gradientUnits="userSpaceOnUse">
<stop stop-color="#7797FF"/>
<stop offset="1" stop-color="#415FC6"/>
</linearGradient>
<linearGradient id="paint38_linear_3_7" x1="1737.3" y1="792.187" x2="1817.92" y2="792.187" gradientUnits="userSpaceOnUse">
<stop stop-color="#301A61"/>
<stop offset="1" stop-color="#240973"/>
</linearGradient>
<linearGradient id="paint39_linear_3_7" x1="1767.22" y1="792.166" x2="1778.06" y2="792.166" gradientUnits="userSpaceOnUse">
<stop stop-color="#301A61"/>
<stop offset="1" stop-color="#240973"/>
</linearGradient>
<radialGradient id="paint40_radial_3_7" cx="0" cy="0" r="1" gradientUnits="userSpaceOnUse" gradientTransform="translate(1767.22 792.187) scale(40.3084 51.9416)">
<stop stop-color="white"/>
<stop offset="0.742545" stop-color="#95C5FF"/>
<stop offset="1" stop-color="#95C5FF"/>
</radialGradient>
<linearGradient id="paint41_linear_3_7" x1="1727.7" y1="726.772" x2="1780.94" y2="833.284" gradientUnits="userSpaceOnUse">
<stop stop-color="#7797FF"/>
<stop offset="1" stop-color="#415FC6"/>
</linearGradient>
<linearGradient id="paint42_linear_3_7" x1="1623.36" y1="201.456" x2="1713.05" y2="201.456" gradientUnits="userSpaceOnUse">
<stop stop-color="#301A61"/>
<stop offset="1" stop-color="#240973"/>
</linearGradient>
<linearGradient id="paint43_linear_3_7" x1="1658.64" y1="201.414" x2="1669.44" y2="201.414" gradientUnits="userSpaceOnUse">
<stop stop-color="#301A61"/>
<stop offset="1" stop-color="#240973"/>
</linearGradient>
<linearGradient id="paint44_linear_3_7" x1="1613.79" y1="201.456" x2="1703.49" y2="201.456" gradientUnits="userSpaceOnUse">
<stop stop-color="#7797FF"/>
<stop offset="1" stop-color="#415FC6"/>
</linearGradient>
<radialGradient id="paint45_radial_3_7" cx="0" cy="0" r="1" gradientUnits="userSpaceOnUse" gradientTransform="translate(1608.96 141.539) rotate(60.2854) scale(115.252 170.398)">
<stop stop-color="white"/>
<stop offset="0.742545" stop-color="#95C5FF"/>
<stop offset="1" stop-color="#95C5FF"/>
</radialGradient>
<linearGradient id="paint46_linear_3_7" x1="1631.77" y1="203.213" x2="1685.51" y2="203.213" gradientUnits="userSpaceOnUse">
<stop stop-color="#7797FF"/>
<stop offset="1" stop-color="#415FC6"/>
</linearGradient>
<linearGradient id="paint47_linear_3_7" x1="1503.99" y1="448.929" x2="1341.32" y2="448.929" gradientUnits="userSpaceOnUse">
<stop stop-color="#7797FF"/>
<stop offset="1" stop-color="#415FC6"/>
</linearGradient>
<linearGradient id="paint48_linear_3_7" x1="1503.99" y1="449.222" x2="1341.32" y2="449.222" gradientUnits="userSpaceOnUse">
<stop stop-color="#4D70DD"/>
<stop offset="1" stop-color="#213EA0"/>
</linearGradient>
<linearGradient id="paint49_linear_3_7" x1="1262.23" y1="814.541" x2="1425.72" y2="506.951" gradientUnits="userSpaceOnUse">
<stop stop-color="#FF9824"/>
<stop offset="1" stop-color="#FFDC49"/>
</linearGradient>
<linearGradient id="paint50_linear_3_7" x1="1262.23" y1="814.541" x2="1425.72" y2="506.951" gradientUnits="userSpaceOnUse">
<stop stop-color="#F4851F"/>
<stop offset="1" stop-color="#ECC240"/>
</linearGradient>
<linearGradient id="paint51_linear_3_7" x1="1220.2" y1="792.199" x2="1383.69" y2="484.608" gradientUnits="userSpaceOnUse">
<stop stop-color="#F4851F"/>
<stop offset="1" stop-color="#ECC240"/>
</linearGradient>
<linearGradient id="paint52_linear_3_7" x1="1221.34" y1="792.808" x2="1384.84" y2="485.218" gradientUnits="userSpaceOnUse">
<stop stop-color="#FF9824"/>
<stop offset="1" stop-color="#FFDC49"/>
</linearGradient>
<linearGradient id="paint53_linear_3_7" x1="1210.15" y1="790.493" x2="1368.29" y2="492.976" gradientUnits="userSpaceOnUse">
<stop stop-color="#F4851F"/>
<stop offset="1" stop-color="#ECC240"/>
</linearGradient>
<linearGradient id="paint54_linear_3_7" x1="1304.99" y1="837.268" x2="1468.48" y2="529.678" gradientUnits="userSpaceOnUse">
<stop stop-color="#FF9824"/>
<stop offset="1" stop-color="#FFDC49"/>
</linearGradient>
<linearGradient id="paint55_linear_3_7" x1="1397.53" y1="407.156" x2="1278.35" y2="515.365" gradientUnits="userSpaceOnUse">
<stop stop-color="#7797FF"/>
<stop offset="1" stop-color="#415FC6"/>
</linearGradient>
<linearGradient id="paint56_linear_3_7" x1="1389.12" y1="397.897" x2="1269.94" y2="506.107" gradientUnits="userSpaceOnUse">
<stop stop-color="#4D70DD"/>
<stop offset="1" stop-color="#213EA0"/>
</linearGradient>
<linearGradient id="paint57_linear_3_7" x1="1341.08" y1="346.073" x2="1306.9" y2="420.393" gradientUnits="userSpaceOnUse">
<stop stop-color="#4D70DD"/>
<stop offset="1" stop-color="#213EA0"/>
</linearGradient>
<linearGradient id="paint58_linear_3_7" x1="1354.13" y1="309.405" x2="1329.24" y2="309.405" gradientUnits="userSpaceOnUse">
<stop stop-color="#301A61"/>
<stop offset="1" stop-color="#240973"/>
</linearGradient>
<linearGradient id="paint59_linear_3_7" x1="1358.6" y1="300.106" x2="1281.85" y2="300.106" gradientUnits="userSpaceOnUse">
<stop stop-color="#301A61"/>
<stop offset="1" stop-color="#240973"/>
</linearGradient>
<radialGradient id="paint60_radial_3_7" cx="0" cy="0" r="1" gradientUnits="userSpaceOnUse" gradientTransform="translate(1371.43 250.144) rotate(122.642) scale(75.6837 79.0299)">
<stop stop-color="#00F1FA"/>
<stop offset="0.984484" stop-color="#008BFF"/>
<stop offset="1" stop-color="#008BFF"/>
</radialGradient>
<linearGradient id="paint61_linear_3_7" x1="1295.7" y1="282.579" x2="1289.98" y2="282.579" gradientUnits="userSpaceOnUse">
<stop stop-color="#301A61"/>
<stop offset="1" stop-color="#240973"/>
</linearGradient>
<linearGradient id="paint62_linear_3_7" x1="1372.72" y1="404.118" x2="1233.29" y2="478.351" gradientUnits="userSpaceOnUse">
<stop stop-color="#7797FF"/>
<stop offset="1" stop-color="#415FC6"/>
</linearGradient>
<linearGradient id="paint63_linear_3_7" x1="906.133" y1="734.679" x2="1018.62" y2="734.679" gradientUnits="userSpaceOnUse">
<stop stop-color="#7797FF"/>
<stop offset="1" stop-color="#415FC6"/>
</linearGradient>
<radialGradient id="paint64_radial_3_7" cx="0" cy="0" r="1" gradientUnits="userSpaceOnUse" gradientTransform="translate(931.93 517.043) rotate(76.5345) scale(299.123 325.8)">
<stop stop-color="white"/>
<stop offset="0.742545" stop-color="#759AFF"/>
<stop offset="1" stop-color="#759AFF"/>
</radialGradient>
<radialGradient id="paint65_radial_3_7" cx="0" cy="0" r="1" gradientUnits="userSpaceOnUse" gradientTransform="translate(931.929 517.044) rotate(76.5344) scale(299.122 325.799)">
<stop stop-color="white"/>
<stop offset="0.742545" stop-color="#759AFF"/>
<stop offset="1" stop-color="#759AFF"/>
</radialGradient>
<radialGradient id="paint66_radial_3_7" cx="0" cy="0" r="1" gradientUnits="userSpaceOnUse" gradientTransform="translate(931.929 517.043) rotate(76.5345) scale(299.124 325.798)">
<stop stop-color="white"/>
<stop offset="0.742545" stop-color="#759AFF"/>
<stop offset="1" stop-color="#759AFF"/>
</radialGradient>
<radialGradient id="paint67_radial_3_7" cx="0" cy="0" r="1" gradientUnits="userSpaceOnUse" gradientTransform="translate(931.929 517.043) rotate(76.5345) scale(299.123 325.799)">
<stop stop-color="white"/>
<stop offset="0.742545" stop-color="#759AFF"/>
<stop offset="1" stop-color="#759AFF"/>
</radialGradient>
<radialGradient id="paint68_radial_3_7" cx="0" cy="0" r="1" gradientUnits="userSpaceOnUse" gradientTransform="translate(931.93 517.043) rotate(76.5344) scale(299.123 325.801)">
<stop stop-color="white"/>
<stop offset="0.742545" stop-color="#759AFF"/>
<stop offset="1" stop-color="#759AFF"/>
</radialGradient>
<radialGradient id="paint69_radial_3_7" cx="0" cy="0" r="1" gradientUnits="userSpaceOnUse" gradientTransform="translate(931.929 517.043) rotate(76.5344) scale(299.124 325.8)">
<stop stop-color="white"/>
<stop offset="0.742545" stop-color="#759AFF"/>
<stop offset="1" stop-color="#759AFF"/>
</radialGradient>
<radialGradient id="paint70_radial_3_7" cx="0" cy="0" r="1" gradientUnits="userSpaceOnUse" gradientTransform="translate(931.93 517.043) rotate(76.5344) scale(299.123 325.799)">
<stop stop-color="white"/>
<stop offset="0.742545" stop-color="#759AFF"/>
<stop offset="1" stop-color="#759AFF"/>
</radialGradient>
<linearGradient id="paint71_linear_3_7" x1="933.355" y1="686.992" x2="1069.78" y2="729.369" gradientUnits="userSpaceOnUse">
<stop stop-color="#7797FF"/>
<stop offset="1" stop-color="#415FC6"/>
</linearGradient>
<radialGradient id="paint72_radial_3_7" cx="0" cy="0" r="1" gradientUnits="userSpaceOnUse" gradientTransform="translate(931.929 517.043) rotate(76.5345) scale(299.123 325.8)">
<stop stop-color="white"/>
<stop offset="0.742545" stop-color="#759AFF"/>
<stop offset="1" stop-color="#759AFF"/>
</radialGradient>
<radialGradient id="paint73_radial_3_7" cx="0" cy="0" r="1" gradientUnits="userSpaceOnUse" gradientTransform="translate(931.929 517.043) rotate(76.5345) scale(299.123 325.799)">
<stop stop-color="white"/>
<stop offset="0.742545" stop-color="#759AFF"/>
<stop offset="1" stop-color="#759AFF"/>
</radialGradient>
<radialGradient id="paint74_radial_3_7" cx="0" cy="0" r="1" gradientUnits="userSpaceOnUse" gradientTransform="translate(931.929 517.043) rotate(76.5344) scale(299.123 325.801)">
<stop stop-color="white"/>
<stop offset="0.742545" stop-color="#759AFF"/>
<stop offset="1" stop-color="#759AFF"/>
</radialGradient>
<radialGradient id="paint75_radial_3_7" cx="0" cy="0" r="1" gradientUnits="userSpaceOnUse" gradientTransform="translate(931.93 517.043) rotate(76.5345) scale(299.123 325.8)">
<stop stop-color="white"/>
<stop offset="0.742545" stop-color="#759AFF"/>
<stop offset="1" stop-color="#759AFF"/>
</radialGradient>
<radialGradient id="paint76_radial_3_7" cx="0" cy="0" r="1" gradientUnits="userSpaceOnUse" gradientTransform="translate(931.93 517.043) rotate(76.5345) scale(299.123 325.799)">
<stop stop-color="white"/>
<stop offset="0.742545" stop-color="#759AFF"/>
<stop offset="1" stop-color="#759AFF"/>
</radialGradient>
<radialGradient id="paint77_radial_3_7" cx="0" cy="0" r="1" gradientUnits="userSpaceOnUse" gradientTransform="translate(931.929 517.043) rotate(76.5344) scale(299.123 325.8)">
<stop stop-color="white"/>
<stop offset="0.742545" stop-color="#759AFF"/>
<stop offset="1" stop-color="#759AFF"/>
</radialGradient>
<radialGradient id="paint78_radial_3_7" cx="0" cy="0" r="1" gradientUnits="userSpaceOnUse" gradientTransform="translate(931.93 517.043) rotate(76.5345) scale(299.123 325.799)">
<stop stop-color="white"/>
<stop offset="0.742545" stop-color="#759AFF"/>
<stop offset="1" stop-color="#759AFF"/>
</radialGradient>
<linearGradient id="paint79_linear_3_7" x1="1150.87" y1="734.679" x2="1038.38" y2="734.679" gradientUnits="userSpaceOnUse">
<stop stop-color="#7797FF"/>
<stop offset="1" stop-color="#415FC6"/>
</linearGradient>
<radialGradient id="paint80_radial_3_7" cx="0" cy="0" r="1" gradientUnits="userSpaceOnUse" gradientTransform="translate(931.928 517.043) rotate(76.5345) scale(299.123 325.799)">
<stop stop-color="white"/>
<stop offset="0.742545" stop-color="#759AFF"/>
<stop offset="1" stop-color="#759AFF"/>
</radialGradient>
<radialGradient id="paint81_radial_3_7" cx="0" cy="0" r="1" gradientUnits="userSpaceOnUse" gradientTransform="translate(931.928 517.044) rotate(76.5343) scale(299.122 325.8)">
<stop stop-color="white"/>
<stop offset="0.742545" stop-color="#759AFF"/>
<stop offset="1" stop-color="#759AFF"/>
</radialGradient>
<radialGradient id="paint82_radial_3_7" cx="0" cy="0" r="1" gradientUnits="userSpaceOnUse" gradientTransform="translate(931.929 517.043) rotate(76.5345) scale(299.124 325.798)">
<stop stop-color="white"/>
<stop offset="0.742545" stop-color="#759AFF"/>
<stop offset="1" stop-color="#759AFF"/>
</radialGradient>
<radialGradient id="paint83_radial_3_7" cx="0" cy="0" r="1" gradientUnits="userSpaceOnUse" gradientTransform="translate(931.929 517.043) rotate(76.5345) scale(299.123 325.799)">
<stop stop-color="white"/>
<stop offset="0.742545" stop-color="#759AFF"/>
<stop offset="1" stop-color="#759AFF"/>
</radialGradient>
<radialGradient id="paint84_radial_3_7" cx="0" cy="0" r="1" gradientUnits="userSpaceOnUse" gradientTransform="translate(931.929 517.043) rotate(76.5345) scale(299.123 325.798)">
<stop stop-color="white"/>
<stop offset="0.742545" stop-color="#759AFF"/>
<stop offset="1" stop-color="#759AFF"/>
</radialGradient>
<radialGradient id="paint85_radial_3_7" cx="0" cy="0" r="1" gradientUnits="userSpaceOnUse" gradientTransform="translate(931.929 517.043) rotate(76.5345) scale(299.124 325.799)">
<stop stop-color="white"/>
<stop offset="0.742545" stop-color="#759AFF"/>
<stop offset="1" stop-color="#759AFF"/>
</radialGradient>
<radialGradient id="paint86_radial_3_7" cx="0" cy="0" r="1" gradientUnits="userSpaceOnUse" gradientTransform="translate(931.928 517.043) rotate(76.5344) scale(299.123 325.801)">
<stop stop-color="white"/>
<stop offset="0.742545" stop-color="#759AFF"/>
<stop offset="1" stop-color="#759AFF"/>
</radialGradient>
<linearGradient id="paint87_linear_3_7" x1="962.632" y1="871.221" x2="1091.58" y2="871.221" gradientUnits="userSpaceOnUse">
<stop stop-color="#FFE565"/>
<stop offset="0.901242" stop-color="#FF713E"/>
<stop offset="1" stop-color="#FF713E"/>
</linearGradient>
<linearGradient id="paint88_linear_3_7" x1="952.255" y1="820.113" x2="1101.96" y2="820.113" gradientUnits="userSpaceOnUse">
<stop stop-color="#FFE565"/>
<stop offset="0.901242" stop-color="#FF713E"/>
<stop offset="1" stop-color="#FF713E"/>
</linearGradient>
<linearGradient id="paint89_linear_3_7" x1="934.953" y1="689.817" x2="1038.43" y2="887.514" gradientUnits="userSpaceOnUse">
<stop stop-color="#FFE565"/>
<stop offset="0.901242" stop-color="#FF713E"/>
<stop offset="1" stop-color="#FF713E"/>
</linearGradient>
<radialGradient id="paint90_radial_3_7" cx="0" cy="0" r="1" gradientUnits="userSpaceOnUse" gradientTransform="translate(1281.85 225.753) scale(15.6648 14.2474)">
<stop stop-color="white"/>
<stop offset="0.742545" stop-color="#95C5FF"/>
<stop offset="1" stop-color="#95C5FF"/>
</radialGradient>
<radialGradient id="paint91_radial_3_7" cx="0" cy="0" r="1" gradientUnits="userSpaceOnUse" gradientTransform="translate(1617.2 -56.5012) rotate(87.1098) scale(412.257 453.069)">
<stop stop-color="white"/>
<stop offset="0.742545" stop-color="#95C5FF"/>
<stop offset="1" stop-color="#95C5FF"/>
</radialGradient>
<radialGradient id="paint92_radial_3_7" cx="0" cy="0" r="1" gradientUnits="userSpaceOnUse" gradientTransform="translate(1068.43 167.274) scale(15.6648 14.2474)">
<stop stop-color="white"/>
<stop offset="0.742545" stop-color="#95C5FF"/>
<stop offset="1" stop-color="#95C5FF"/>
</radialGradient>
<radialGradient id="paint93_radial_3_7" cx="0" cy="0" r="1" gradientUnits="userSpaceOnUse" gradientTransform="translate(1033.05 428.802) scale(24.9071 22.6535)">
<stop stop-color="white"/>
<stop offset="0.742545" stop-color="#95C5FF"/>
<stop offset="1" stop-color="#95C5FF"/>
</radialGradient>
<radialGradient id="paint94_radial_3_7" cx="0" cy="0" r="1" gradientUnits="userSpaceOnUse" gradientTransform="translate(774.899 740.246) scale(14.8406 13.4978)">
<stop stop-color="white"/>
<stop offset="0.742545" stop-color="#95C5FF"/>
<stop offset="1" stop-color="#95C5FF"/>
</radialGradient>
<radialGradient id="paint95_radial_3_7" cx="0" cy="0" r="1" gradientUnits="userSpaceOnUse" gradientTransform="translate(1617.2 -56.501) rotate(87.1098) scale(412.257 453.07)">
<stop stop-color="white"/>
<stop offset="0.742545" stop-color="#95C5FF"/>
<stop offset="1" stop-color="#95C5FF"/>
</radialGradient>
<clipPath id="clip0_3_7">
<rect width="2000" height="1000" fill="white"/>
</clipPath>
</defs>
</svg>
