<svg width="1840" height="1000" viewBox="0 0 1840 1000" fill="none" xmlns="http://www.w3.org/2000/svg">
<g clip-path="url(#clip0_3_7)">
<path d="M651.39 -59.4162C650.93 -47.5396 651.699 -35.605 653.999 -23.74C661.307 13.9544 682.455 46.9717 713.08 72.8677C764.693 116.509 837.793 143.417 871.154 203.012C883.438 224.941 887.869 249.1 877.754 272.468C868.194 294.563 849.978 312.215 834.166 330.694C814.22 354.001 798.788 378.461 796.782 408.573C794.776 438.645 803.229 468.183 812.712 496.723C832.179 555.312 858.134 615.005 843.872 677.174C843.372 679.346 842.766 681.489 842.188 683.64C818.82 715.278 791.28 744.259 758.54 768.287C652.65 846.01 515.812 862.077 385.265 877.499C252.571 893.18 112.257 911.7 13.5884 1002C12.2008 1003.27 10.724 1004.12 9.21201 1004.68C5.98079 1008.05 2.75914 1011.43 -0.45932 1014.82H327.767H1812.1C1839.33 1014.82 1861.4 994.749 1861.4 969.996V656.738V136.516C1861.4 87.3394 1861.42 38.1628 1861.47 -11.0051H1861.4V-14.5948C1861.4 -39.3512 1839.33 -59.4162 1812.1 -59.4162H651.39Z" fill="url(#paint0_radial_3_7)"/>
<path d="M769.72 -59.417C766.287 -40.0392 765.717 -20.3337 770.185 -0.990722C777.283 29.6954 796.214 55.5044 821.754 76.216C854.424 102.698 894.292 121.377 937.491 128.08C986.754 135.727 1037.18 131.273 1086.72 136.414C1155.75 143.576 1212.6 172.69 1258.82 219.339C1303.71 264.641 1337.08 318.257 1382.47 363.18C1408.45 388.888 1437.64 412.386 1465.99 435.881C1497.84 462.267 1530.6 487.833 1565.16 511.244C1630.73 555.659 1704.44 595.157 1784.94 611.705C1809.97 616.852 1835.57 619.861 1861.4 621.056V136.515C1861.4 87.3387 1861.42 38.1621 1861.47 -11.0059H1861.4V-14.5955C1861.4 -39.352 1839.33 -59.417 1812.1 -59.417H769.72Z" fill="url(#paint1_radial_3_7)"/>
<path d="M756.004 713.575C693.689 724.64 793.822 877.27 793.822 877.27C726.037 796.338 637.336 782.907 648.264 822.637C659.202 862.364 756.789 899.261 756.789 899.261H860.284C927.524 852.285 951.16 791.617 910.436 787.761C869.713 783.907 852.102 862.651 852.102 862.651C852.102 862.651 820.536 713.024 762.151 713.027C760.132 713.027 758.084 713.207 756.004 713.575" fill="url(#paint2_radial_3_7)"/>
<path d="M825.87 893.03C825.87 893.03 814.208 803.99 753.504 718.322" stroke="url(#paint3_radial_3_7)" stroke-width="0.933333" stroke-miterlimit="10" stroke-linecap="round" stroke-linejoin="round"/>
<path d="M793.823 890.702C793.823 890.702 705.046 851.584 665.062 803.991" stroke="url(#paint4_radial_3_7)" stroke-width="0.933333" stroke-miterlimit="10" stroke-linecap="round" stroke-linejoin="round"/>
<path d="M910.436 798.256C910.436 798.256 880.267 878.217 836.373 890.703" stroke="url(#paint5_radial_3_7)" stroke-width="0.933333" stroke-miterlimit="10" stroke-linecap="round" stroke-linejoin="round"/>
<path d="M905.778 533.35C873.045 548.071 869.715 599.727 889.086 632.402C914.263 674.869 942.725 687.024 922.084 686.708C834.216 685.377 844.663 751.035 943.666 762.572C1057.17 775.803 1001.64 818.377 972.492 823.594C914.646 833.945 933.902 859.824 977.94 867.771C1054.09 881.515 1193.06 872.182 1193.06 872.182C1073.98 842.824 1188.66 645.027 1152.02 635.481C1134.67 630.964 1116.78 655.181 1100.54 679.398C1082.47 706.335 1066.43 733.278 1055.43 720.653C1045.62 709.409 1125.42 583.515 1076.24 572.802C1057.04 568.623 1044.92 583.823 1034.07 599.028C1023.64 613.639 1014.38 628.25 1001.12 625.649C976.221 620.769 974.763 528.145 927.099 528.154C920.843 528.154 913.785 529.749 905.778 533.35" fill="url(#paint6_radial_3_7)"/>
<path d="M1158.35 866.721C1082.84 839.291 1093.17 788.456 1005.55 721.479C933.104 666.106 913.972 603.333 919.819 531.456" stroke="url(#paint7_radial_3_7)" stroke-width="0.933333" stroke-miterlimit="10" stroke-linecap="round" stroke-linejoin="round"/>
<path d="M1259.69 831.562C1259.69 831.562 1242.09 752.815 1201.36 756.674C1160.64 760.531 1184.27 821.196 1251.51 868.169H1355.01C1355.01 868.169 1452.6 831.272 1463.53 791.545C1474.46 751.821 1390.88 756.219 1323.09 837.149C1323.09 837.149 1424.39 699.915 1362.08 688.851C1359.91 688.468 1357.77 688.282 1355.66 688.282C1297.02 688.28 1259.69 831.562 1259.69 831.562Z" fill="url(#paint8_radial_3_7)"/>
<path d="M1285.93 861.939C1285.93 861.939 1302.54 765.754 1364.57 693.596" stroke="url(#paint9_radial_3_7)" stroke-width="0.933333" stroke-miterlimit="10" stroke-linecap="round" stroke-linejoin="round"/>
<path d="M1317.97 859.614C1317.97 859.614 1398.13 793.391 1446.73 781.178" stroke="url(#paint10_radial_3_7)" stroke-width="0.933333" stroke-miterlimit="10" stroke-linecap="round" stroke-linejoin="round"/>
<path d="M1201.36 767.168C1201.36 767.168 1231.53 847.129 1275.42 859.615" stroke="url(#paint11_radial_3_7)" stroke-width="0.933333" stroke-miterlimit="10" stroke-linecap="round" stroke-linejoin="round"/>
<path d="M1757.17 630.337C1744.12 632.898 1744.56 611.832 1743.04 590.767C1741.42 568.168 1737.55 545.568 1712.4 552.136C1663.79 564.833 1730.3 674.857 1717.13 703.006C1710.12 717.994 1704.42 689.66 1695.09 661.322C1686.89 636.435 1675.89 611.551 1658.76 616.011C1622.11 625.556 1698.57 825.179 1579.49 854.538C1579.49 854.538 1718.46 863.871 1794.62 850.127C1838.65 842.18 1857.91 816.304 1800.06 805.95C1770.91 800.73 1722.11 782.327 1828.89 744.928C1841.23 740.608 1852.08 735.867 1861.4 730.961V677.49C1856.38 678.215 1850.89 679.27 1844.91 680.685C1811.51 688.604 1836.42 671.047 1861.4 643.591V513.595C1856.59 511.977 1852.05 511.229 1847.79 511.226C1795.14 511.212 1782.54 625.365 1757.17 630.337" fill="url(#paint12_radial_3_7)"/>
<path d="M1614.21 849.078C1689.71 821.648 1679.39 770.812 1767.01 703.835C1839.45 648.462 1865.49 600.765 1859.65 528.887" stroke="url(#paint13_radial_3_7)" stroke-width="0.933333" stroke-miterlimit="10" stroke-linecap="round" stroke-linejoin="round"/>
<path d="M690.802 928.712C690.802 967.969 948.084 999.789 1265.46 999.789C1582.84 999.789 1840.12 967.969 1840.12 928.712C1840.12 889.454 1582.84 857.634 1265.46 857.634C948.084 857.634 690.802 889.454 690.802 928.712Z" fill="url(#paint14_radial_3_7)"/>
<path d="M1677.66 156.375V163.403L1466.91 237.673C1457.14 241.117 1450.69 249.671 1450.69 259.205V859.438C1450.69 868.972 1457.14 877.525 1466.91 880.973L1677.66 955.243V962.271H1701.71V962.23C1715.39 962.538 1727.7 952.598 1727.7 939.153V179.487C1727.7 166.045 1715.39 156.108 1701.71 156.412V156.375H1677.66Z" fill="url(#paint15_linear_3_7)"/>
<path d="M1677.66 156.375V163.403L1466.91 237.673C1457.14 241.117 1450.69 249.671 1450.69 259.205V859.438C1450.69 868.972 1457.14 877.525 1466.91 880.973L1677.66 955.243V962.271H1701.71V962.23C1715.39 962.538 1727.7 952.598 1727.7 939.153V179.487C1727.7 166.045 1715.39 156.108 1701.71 156.412V156.375H1677.66Z" fill="url(#paint16_radial_3_7)"/>
<path d="M1668.84 157.955L1442.64 237.673C1432.86 241.117 1426.41 249.671 1426.41 259.205V859.438C1426.41 868.972 1432.86 877.525 1442.64 880.973L1668.84 960.688C1685.49 966.557 1703.42 955.388 1703.42 939.153V179.487C1703.42 166.245 1691.48 156.375 1678.04 156.372C1675.01 156.372 1671.9 156.876 1668.84 157.955Z" fill="url(#paint17_linear_3_7)"/>
<path d="M1676.29 183.132L1450.02 255.731C1448.02 256.372 1446.67 258.088 1446.67 259.999V858.646C1446.67 860.557 1448.02 862.271 1450.02 862.912L1676.29 935.511C1676.92 935.717 1677.53 935.807 1678.14 935.786C1680.17 935.723 1683.17 934.174 1683.17 931.04V187.606C1683.17 184.468 1680.17 182.92 1678.14 182.856C1678.09 182.856 1678.04 182.853 1677.99 182.853C1677.43 182.853 1676.87 182.943 1676.29 183.132" fill="url(#paint18_linear_3_7)"/>
<path d="M1676.29 183.132L1594.59 209.344C1534.2 281.784 1647.43 377.756 1638.51 490.755C1633.85 549.82 1580.17 654.792 1446.67 639.428V691.182C1577.16 718.29 1657.82 677.166 1683.17 641.669V187.606C1683.17 184.469 1680.17 182.92 1678.14 182.856C1678.09 182.856 1678.04 182.854 1677.99 182.854C1677.43 182.854 1676.87 182.943 1676.29 183.132Z" fill="url(#paint19_linear_3_7)"/>
<g opacity="0.559998">
<path d="M1446.67 806.482V858.645C1446.67 860.556 1448.02 862.269 1450.02 862.913L1676.29 935.512C1676.93 935.715 1677.53 935.808 1678.14 935.788C1680.17 935.724 1683.17 934.173 1683.17 931.038V834.074L1446.67 806.482Z" fill="#FFFFFD"/>
</g>
<g opacity="0.330002">
<path d="M1383.17 475.862L1626.75 482.725C1643.1 483.186 1657.33 468.381 1657.33 450.835V349.646C1657.33 332.098 1643.1 319.83 1626.75 323.202L1383.17 373.42C1370.09 376.119 1360.15 389.263 1360.15 403.819V449.56C1360.15 464.115 1370.09 475.493 1383.17 475.862Z" fill="#606060"/>
</g>
<g opacity="0.330002">
<path d="M1570.21 210.604C1570.21 242.238 1550.12 267.882 1525.34 267.882C1500.56 267.882 1480.47 242.238 1480.47 210.604C1480.47 178.969 1500.56 153.326 1525.34 153.326C1550.12 153.326 1570.21 178.969 1570.21 210.604Z" fill="#606060"/>
</g>
<g opacity="0.330002">
<path d="M1522.32 678.892C1522.32 711.333 1499.47 737.634 1471.27 737.634C1443.07 737.634 1420.21 711.333 1420.21 678.892C1420.21 646.452 1443.07 620.153 1471.27 620.153C1499.47 620.153 1522.32 646.452 1522.32 678.892Z" fill="#606060"/>
</g>
<g opacity="0.330002">
<path d="M1674.36 806.767C1674.36 836.763 1655.48 861.079 1632.19 861.079C1608.9 861.079 1590.02 836.763 1590.02 806.767C1590.02 776.769 1608.9 752.453 1632.19 752.453C1655.48 752.453 1674.36 776.769 1674.36 806.767Z" fill="#606060"/>
</g>
<g opacity="0.330002">
<path d="M1657.51 593.443C1657.51 628.62 1637.37 657.138 1612.52 657.138C1587.67 657.138 1567.53 628.62 1567.53 593.443C1567.53 558.265 1587.67 529.748 1612.52 529.748C1637.37 529.748 1657.51 558.265 1657.51 593.443Z" fill="#606060"/>
</g>
<path d="M1526.07 854.88C1526.07 866.374 1529.71 875.69 1534.2 875.69C1538.68 875.69 1542.32 866.374 1542.32 854.88C1542.32 843.389 1538.68 834.075 1534.2 834.075C1529.71 834.075 1526.07 843.389 1526.07 854.88" fill="url(#paint20_linear_3_7)"/>
<path d="M1602.93 264.769L1308.8 327.916C1292.45 331.43 1279.98 348.056 1279.98 366.349V423.839C1279.98 442.135 1292.45 456.161 1308.8 456.262L1602.93 458.112C1621.99 458.234 1638.51 439.984 1638.51 418.805V296.661C1638.51 277.863 1625.5 264.088 1609.24 264.088C1607.18 264.088 1605.08 264.308 1602.93 264.769" fill="url(#paint21_linear_3_7)"/>
<path d="M1602.93 264.769L1308.8 327.916C1292.45 331.43 1279.98 348.056 1279.98 366.349V423.839C1279.98 442.135 1292.45 456.161 1308.8 456.262L1602.93 458.112C1621.99 458.234 1638.51 439.984 1638.51 418.805V296.661C1638.51 277.863 1625.5 264.088 1609.24 264.088C1607.18 264.088 1605.08 264.308 1602.93 264.769" fill="url(#paint22_radial_3_7)"/>
<path d="M1587.43 264.769L1293.51 327.895C1277.17 331.407 1264.71 348.024 1264.71 366.312V423.781C1264.71 442.069 1277.17 456.091 1293.51 456.195L1587.43 458.042C1606.47 458.161 1622.98 439.92 1622.98 418.747V296.649C1622.98 277.86 1609.97 264.09 1593.74 264.087C1591.68 264.087 1589.57 264.308 1587.43 264.769Z" fill="url(#paint23_radial_3_7)"/>
<path d="M1546.44 326.918L1540.21 345.061C1539.63 346.731 1538.49 347.981 1537.17 348.378L1523.24 352.562C1520.09 353.51 1518.84 358.901 1521.13 361.591L1531.23 373.416C1532.18 374.532 1532.61 376.263 1532.37 378.012L1529.8 396.737C1529.2 401.049 1532.58 404.128 1535.46 401.869L1548.15 391.898C1549.35 390.952 1550.81 390.845 1552.02 391.616L1565.23 400.034C1568.34 402.014 1572.05 398.346 1571.39 393.896L1568.56 374.718C1568.3 372.94 1568.78 371.047 1569.81 369.684L1581.17 354.833C1583.84 351.347 1582.38 345.864 1578.75 345.71L1563.4 345.061C1562 345.006 1560.79 344.023 1560.19 342.463L1553.74 325.817C1553.09 324.123 1551.86 323.317 1550.57 323.317C1548.96 323.317 1547.25 324.57 1546.44 326.918" fill="url(#paint24_linear_3_7)"/>
<path d="M1461.9 338.905L1456.83 355.178C1456.48 356.303 1455.89 356.859 1455.58 356.961L1444.23 360.582C1442.66 361.084 1441.43 362.397 1440.76 364.282C1439.87 366.776 1440.19 369.559 1441.57 371.369L1449.8 382.138C1450.3 382.796 1450.54 383.961 1450.4 385.098L1448.3 401.982C1448.01 404.293 1448.66 406.5 1450.02 407.886C1450.9 408.776 1452.02 409.263 1453.18 409.263C1453.93 409.263 1455.04 409.063 1456.15 408.106L1466.46 399.193C1466.59 399.086 1466.69 399.028 1466.83 399.028C1466.9 399.028 1466.98 399.042 1467.07 399.074L1477.76 406.726C1478.57 407.303 1479.49 407.607 1480.44 407.607C1481.71 407.607 1482.95 407.057 1483.92 406.053C1485.45 404.49 1486.17 402.101 1485.84 399.666L1483.57 382.416C1483.41 381.213 1483.69 379.922 1484.29 379.047L1493.44 365.822C1495.11 363.406 1495.32 359.999 1493.93 357.532C1493.06 355.981 1491.62 355.032 1489.99 354.934L1477.61 354.177C1477.45 354.166 1477.01 353.864 1476.72 353.023L1471.51 337.966C1470.74 335.762 1469.08 334.446 1467.05 334.446C1464.76 334.446 1462.74 336.197 1461.9 338.905" fill="url(#paint25_linear_3_7)"/>
<path d="M1467.05 332.695C1463.88 332.695 1461.13 334.946 1460.04 338.431L1454.98 354.7C1454.87 355.051 1454.74 355.28 1454.65 355.399L1443.6 358.931C1441.44 359.618 1439.79 361.326 1438.93 363.741C1437.86 366.739 1438.28 370.126 1439.99 372.367L1448.22 383.136C1448.36 383.316 1448.6 383.98 1448.49 384.902L1446.39 401.783C1446.04 404.581 1446.86 407.298 1448.59 409.05C1449.83 410.317 1451.46 411.016 1453.19 411.016C1454.28 411.016 1455.91 410.731 1457.48 409.374L1466.94 401.201L1476.57 408.102C1477.72 408.922 1479.06 409.357 1480.44 409.357C1482.27 409.357 1484.02 408.594 1485.37 407.214C1487.25 405.283 1488.14 402.384 1487.76 399.455L1485.48 382.208C1485.35 381.286 1485.61 380.425 1485.92 379.979L1495.07 366.757C1497.09 363.845 1497.32 359.725 1495.65 356.736C1494.46 354.622 1492.45 353.329 1490.12 353.187L1478.55 352.479L1473.34 337.442C1472.13 333.942 1469.3 332.695 1467.05 332.695ZM1467.05 336.198C1468.12 336.198 1469.13 336.938 1469.67 338.492L1474.88 353.549C1475.37 354.958 1476.35 355.854 1477.48 355.924L1489.86 356.681C1492.78 356.858 1493.96 361.793 1491.81 364.892L1482.66 378.114C1481.82 379.329 1481.44 381.025 1481.65 382.626L1483.93 399.873C1484.36 403.1 1482.49 405.854 1480.44 405.854C1479.94 405.854 1479.44 405.698 1478.95 405.35L1468.27 397.698C1467.83 397.385 1467.35 397.228 1466.86 397.228C1466.27 397.228 1465.67 397.46 1465.13 397.927L1454.83 406.837C1454.29 407.301 1453.72 407.513 1453.19 407.513C1451.39 407.513 1449.84 405.167 1450.22 402.178L1452.31 385.294C1452.51 383.719 1452.16 382.153 1451.38 381.141L1443.15 370.37C1441.28 367.914 1442.3 363.054 1444.87 362.233L1456.22 358.612C1457.29 358.27 1458.22 357.156 1458.69 355.651L1463.75 339.385C1464.4 337.3 1465.76 336.198 1467.05 336.198" fill="white"/>
<path d="M1394.12 349.161L1389.93 363.905C1389.67 364.839 1389.23 365.309 1389.07 365.375L1379.66 368.559C1378.34 369.006 1377.29 370.134 1376.69 371.734C1375.97 373.662 1375.87 376.513 1377.27 378.534L1384.11 388.418C1384.42 388.873 1384.74 389.848 1384.59 391.1L1382.85 406.471C1382.6 408.706 1383.21 410.8 1384.48 412.079C1385.24 412.853 1386.23 413.276 1387.24 413.276C1387.94 413.276 1388.98 413.079 1389.98 412.134L1398.46 403.995L1407.28 411.006C1408.02 411.594 1408.88 411.905 1409.78 411.908C1410.87 411.908 1411.93 411.438 1412.77 410.588C1414.16 409.185 1414.84 406.874 1414.56 404.557L1412.69 388.885C1412.56 387.798 1412.78 386.635 1413.27 385.858L1420.8 373.944C1422.25 371.659 1422.36 368.368 1421.07 366.121C1420.3 364.778 1419.1 363.978 1417.7 363.865L1407.59 363.07C1407.52 363.03 1407.24 362.769 1407.04 362.128L1402.73 348.384C1402.07 346.261 1400.56 344.991 1398.7 344.991C1396.6 344.991 1394.85 346.592 1394.12 349.161" fill="url(#paint26_linear_3_7)"/>
<path d="M1398.7 343.241C1395.73 343.241 1393.21 345.396 1392.26 348.724L1388.06 363.472C1388.01 363.657 1387.95 363.799 1387.9 363.901L1378.99 366.919C1377.12 367.551 1375.65 369.065 1374.86 371.176C1374.06 373.327 1373.79 376.789 1375.64 379.468L1382.48 389.353C1382.58 389.507 1382.77 390.116 1382.68 390.925L1380.94 406.292C1380.63 409.009 1381.42 411.613 1383.04 413.251C1384.18 414.397 1385.67 415.029 1387.24 415.029C1388.75 415.029 1390.22 414.434 1391.37 413.35L1398.65 406.478L1406.01 412.326C1407.11 413.196 1408.41 413.657 1409.78 413.657C1411.43 413.657 1412.99 412.982 1414.21 411.758C1415.97 409.969 1416.82 407.206 1416.48 404.364L1414.6 388.695C1414.5 387.871 1414.71 387.1 1414.94 386.732L1422.47 374.818C1424.25 372.008 1424.37 368.099 1422.77 365.313C1421.71 363.448 1419.92 362.286 1417.87 362.12L1408.81 361.395L1404.59 347.904C1403.51 344.465 1400.84 343.241 1398.7 343.241ZM1398.7 346.744C1399.58 346.744 1400.43 347.431 1400.88 348.863L1405.19 362.607C1405.59 363.892 1406.4 364.718 1407.33 364.791L1417.53 365.608C1419.93 365.803 1420.89 370.285 1419.14 373.072L1411.6 384.986C1410.91 386.082 1410.6 387.622 1410.77 389.075L1412.65 404.744C1413 407.67 1411.47 410.157 1409.78 410.157C1409.37 410.157 1408.95 410.01 1408.55 409.688L1399.73 402.677C1399.36 402.387 1398.96 402.242 1398.55 402.242C1398.06 402.242 1397.57 402.45 1397.13 402.865L1388.59 410.92C1388.15 411.338 1387.69 411.526 1387.24 411.526C1385.75 411.526 1384.46 409.377 1384.77 406.652L1386.51 391.281C1386.67 389.849 1386.38 388.419 1385.74 387.489L1378.9 377.601C1377.34 375.348 1378.19 370.923 1380.33 370.201L1389.75 367.015C1390.63 366.713 1391.41 365.71 1391.8 364.347L1395.99 349.6C1396.52 347.73 1397.63 346.744 1398.7 346.744" fill="white"/>
<path d="M1337.57 357.72L1334.04 371.209C1333.83 372.012 1333.51 372.375 1333.49 372.409L1325.54 375.245C1324.4 375.654 1323.51 376.614 1322.96 378.02C1322.29 379.777 1322.12 382.567 1323.37 384.538L1329.15 393.678C1329.42 394.121 1329.66 395.046 1329.54 396.125L1328.08 410.228C1327.85 412.391 1328.43 414.389 1329.61 415.569C1330.3 416.257 1331.18 416.636 1332.09 416.636C1332.75 416.636 1333.74 416.436 1334.66 415.494L1341.48 408.289L1348.66 414.557C1349.53 415.32 1350.43 415.479 1351.04 415.482C1352 415.482 1352.93 415.074 1353.67 414.331C1354.96 413.044 1355.6 410.855 1355.35 408.616L1353.78 394.26C1353.67 393.283 1353.86 392.205 1354.26 391.515L1360.57 380.679C1361.83 378.513 1361.87 375.329 1360.67 373.273C1359.99 372.105 1358.95 371.392 1357.73 371.276L1349.45 370.51C1349.39 370.461 1349.19 370.223 1349.04 369.704L1345.42 357.065C1344.56 354.02 1342.36 353.785 1341.7 353.785C1340.2 353.785 1338.33 354.821 1337.57 357.72" fill="url(#paint27_linear_3_7)"/>
<path d="M1341.7 352.034C1339.47 352.034 1336.72 353.42 1335.7 357.314L1332.17 370.797C1332.15 370.884 1332.12 370.96 1332.1 371.021L1324.84 373.616C1323.67 374.033 1322.08 375.039 1321.15 377.437C1320.3 379.632 1320.14 382.947 1321.7 385.408L1327.47 394.545C1327.55 394.681 1327.7 395.241 1327.63 395.96L1326.16 410.063C1325.89 412.708 1326.64 415.207 1328.19 416.747C1329.24 417.805 1330.63 418.385 1332.09 418.385C1333.59 418.385 1335.01 417.773 1336.1 416.66L1341.71 410.922L1347.33 415.825C1348.37 416.732 1349.69 417.231 1351.04 417.231C1352.55 417.231 1353.99 416.619 1355.1 415.506C1356.76 413.841 1357.57 411.2 1357.27 408.445L1355.69 394.087C1355.61 393.373 1355.77 392.666 1355.96 392.335L1362.27 381.494C1363.83 378.818 1363.87 375.013 1362.37 372.453C1361.4 370.78 1359.78 369.716 1357.94 369.533L1350.78 368.826L1347.29 356.624C1346.32 353.24 1343.77 352.034 1341.7 352.034ZM1341.7 355.537C1342.46 355.537 1343.18 356.175 1343.56 357.506L1347.18 370.145C1347.51 371.328 1348.19 372.091 1348.97 372.169L1357.52 373.015C1359.53 373.216 1360.34 377.324 1358.86 379.858L1352.56 390.697C1351.98 391.697 1351.72 393.104 1351.86 394.435L1353.44 408.79C1353.73 411.464 1352.45 413.731 1351.04 413.731C1350.69 413.731 1350.34 413.595 1350 413.296L1342.59 406.827C1342.28 406.555 1341.93 406.421 1341.59 406.421C1341.19 406.421 1340.78 406.61 1340.41 406.987L1333.22 414.331C1332.85 414.711 1332.46 414.882 1332.09 414.882C1330.82 414.882 1329.73 412.902 1329.99 410.391L1331.46 396.29C1331.6 394.974 1331.36 393.66 1330.81 392.802L1325.04 383.666C1323.72 381.578 1324.44 377.521 1326.25 376.875L1334.19 374.036C1334.94 373.769 1335.59 372.856 1335.92 371.609L1339.45 358.126C1339.89 356.427 1340.82 355.537 1341.7 355.537" fill="white"/>
<path d="M1289.67 364.969L1286.66 377.391C1286.5 378.035 1286.27 378.368 1286.32 378.38L1279.54 380.932C1278.54 381.308 1277.75 382.158 1277.27 383.388C1276.61 385.043 1276.42 387.708 1277.54 389.639L1282.48 398.135C1282.71 398.544 1282.91 399.399 1282.82 400.388L1281.56 413.418C1281.36 415.512 1281.9 417.42 1283.01 418.519C1283.64 419.142 1284.44 419.484 1285.28 419.484C1286.18 419.484 1287.05 419.075 1287.73 418.342L1293.41 412.09L1299.14 417.556C1299.96 418.339 1300.84 418.501 1301.43 418.501C1302.3 418.501 1303.14 418.136 1303.81 417.478C1304.99 416.292 1305.6 414.213 1305.38 412.047L1304.04 398.799C1303.95 397.903 1304.11 396.914 1304.44 396.288L1309.81 386.345C1310.93 384.252 1310.92 381.23 1309.79 379.319C1309.18 378.287 1308.25 377.649 1307.18 377.525L1300.24 376.704C1300.18 376.588 1300.09 376.4 1300.01 376.113L1296.93 364.407C1296.16 361.455 1294.08 361.226 1293.46 361.226C1291.66 361.226 1290.24 362.624 1289.67 364.969" fill="url(#paint28_linear_3_7)"/>
<path d="M1293.47 359.477C1291.32 359.477 1288.71 360.82 1287.79 364.592L1284.78 377.011C1284.77 377.034 1284.77 377.054 1284.76 377.072L1278.81 379.313C1277.75 379.71 1276.31 380.635 1275.46 382.79C1274.64 384.866 1274.43 388.041 1275.84 390.456L1280.77 398.949C1280.84 399.077 1280.96 399.578 1280.9 400.236L1279.64 413.267C1279.4 415.842 1280.12 418.249 1281.59 419.704C1282.59 420.69 1283.9 421.235 1285.28 421.235C1286.77 421.235 1288.17 420.603 1289.21 419.458L1293.51 414.723L1297.75 418.765C1298.76 419.724 1300.07 420.252 1301.43 420.252C1302.85 420.252 1304.2 419.684 1305.23 418.654C1306.8 417.097 1307.57 414.566 1307.3 411.887L1305.96 398.639C1305.89 397.914 1306.06 397.288 1306.18 397.059L1311.53 387.116C1312.93 384.521 1312.92 380.893 1311.49 378.493C1310.58 376.947 1309.14 375.987 1307.43 375.787L1301.73 375.115L1298.81 364.003C1297.93 360.666 1295.47 359.477 1293.47 359.477ZM1293.47 362.98C1294.11 362.98 1294.73 363.577 1295.06 364.815L1298.14 376.518C1298.43 377.614 1299 378.324 1299.67 378.4L1306.94 379.258C1308.64 379.461 1309.33 383.254 1308.07 385.573L1302.72 395.519C1302.22 396.435 1302 397.728 1302.13 398.961L1303.47 412.206C1303.71 414.668 1302.63 416.749 1301.43 416.749C1301.13 416.749 1300.83 416.622 1300.54 416.346L1294.23 410.341C1293.96 410.086 1293.67 409.959 1293.38 409.959C1293.03 409.959 1292.69 410.133 1292.37 410.475L1286.24 417.228C1285.92 417.576 1285.59 417.732 1285.28 417.732C1284.2 417.732 1283.26 415.894 1283.48 413.572L1284.74 400.541C1284.86 399.326 1284.64 398.111 1284.18 397.311L1279.25 388.821C1278.12 386.881 1278.73 383.132 1280.28 382.549L1287.07 379.995C1287.71 379.754 1288.26 378.916 1288.54 377.765L1291.55 365.346C1291.93 363.792 1292.71 362.98 1293.47 362.98" fill="white"/>
<path d="M1540.14 577.003C1540.14 612.177 1560.28 640.695 1585.13 640.695C1609.97 640.695 1630.11 612.177 1630.11 577.003C1630.11 541.825 1609.97 513.308 1585.13 513.308C1560.28 513.308 1540.14 541.825 1540.14 577.003" fill="url(#paint29_linear_3_7)"/>
<path d="M1578.17 640.695H1585.13V513.308H1578.17V640.695Z" fill="url(#paint30_linear_3_7)"/>
<path d="M1530.57 577.003C1530.57 612.177 1550.71 640.695 1575.56 640.695C1600.41 640.695 1620.55 612.177 1620.55 577.003C1620.55 541.825 1600.41 513.308 1575.56 513.308C1550.71 513.308 1530.57 541.825 1530.57 577.003" fill="url(#paint31_radial_3_7)"/>
<path d="M1533.63 577.003C1533.63 609.785 1552.4 636.369 1575.56 636.369C1598.72 636.369 1617.49 609.785 1617.49 577.003C1617.49 544.215 1598.72 517.634 1575.56 517.634C1552.4 517.634 1533.63 544.215 1533.63 577.003Z" fill="url(#paint32_linear_3_7)"/>
<path d="M1591.3 556.091C1591.3 568.403 1584.25 578.38 1575.56 578.38C1566.86 578.38 1559.82 568.403 1559.82 556.091C1559.82 543.783 1566.86 533.802 1575.56 533.802C1584.25 533.802 1591.3 543.783 1591.3 556.091Z" fill="white"/>
<path d="M1601.39 636.367H1549.73V609.706C1549.73 596.736 1561.29 586.222 1575.56 586.222C1589.83 586.222 1601.39 596.736 1601.39 609.706V636.367Z" fill="white"/>
<path d="M1447.42 723.132H1458.6V606.834H1447.42V723.132Z" fill="url(#paint33_linear_3_7)"/>
<path d="M1411.72 664.984C1411.72 697.097 1432.2 723.138 1457.48 723.138C1482.75 723.138 1503.24 697.097 1503.24 664.984C1503.24 632.869 1482.75 606.831 1457.48 606.831C1432.2 606.831 1411.72 632.869 1411.72 664.984Z" fill="url(#paint34_linear_3_7)"/>
<path d="M1401.8 664.984C1401.8 697.097 1422.3 723.138 1447.57 723.138C1472.84 723.138 1493.33 697.097 1493.33 664.984C1493.33 632.869 1472.84 606.831 1447.57 606.831C1422.3 606.831 1401.8 632.869 1401.8 664.984Z" fill="url(#paint35_linear_3_7)"/>
<path d="M1405.62 664.984C1405.62 694.424 1424.4 718.29 1447.57 718.29C1470.74 718.29 1489.52 694.424 1489.52 664.984C1489.52 635.542 1470.74 611.676 1447.57 611.676C1424.4 611.676 1405.62 635.542 1405.62 664.984Z" fill="url(#paint36_radial_3_7)"/>
<path d="M1462.78 691.181H1438.83V648.975H1467.38C1472.98 648.975 1476.84 655.189 1476 662.85L1474.43 677.307C1473.59 684.968 1468.38 691.181 1462.78 691.181Z" fill="#FFFFFD"/>
<path d="M1438.83 648.976L1442.21 639.958V633.046C1442.21 630.442 1444.23 628.586 1446.17 629.465C1448.42 630.488 1450.79 632.898 1450.79 638.52C1450.79 649.205 1456.01 650.272 1456.01 650.272L1438.83 648.976Z" fill="#FFFFFD"/>
<path d="M1413.43 691.182H1435.3V648.976H1413.43V691.182Z" fill="url(#paint37_linear_3_7)"/>
<path d="M1432.04 682.398C1432.04 685.286 1430.2 687.631 1427.92 687.631C1425.65 687.631 1423.8 685.286 1423.8 682.398C1423.8 679.507 1425.65 677.164 1427.92 677.164C1430.2 677.164 1432.04 679.507 1432.04 682.398Z" fill="white"/>
<path d="M1476.29 660.609H1470.73C1467.74 660.609 1465.32 658.408 1465.32 655.691V653.899C1465.32 651.179 1467.74 648.975 1470.73 648.975H1476.29C1479.28 648.975 1481.7 651.179 1481.7 653.899V655.691C1481.7 658.408 1479.28 660.609 1476.29 660.609Z" fill="#FFFFFD"/>
<path d="M1473.99 670.799H1468.42C1465.43 670.799 1463.01 668.596 1463.01 665.882V664.087C1463.01 661.37 1465.43 659.166 1468.42 659.166H1473.99C1476.97 659.166 1479.4 661.37 1479.4 664.087V665.882C1479.4 668.596 1476.97 670.799 1473.99 670.799Z" fill="#FFFFFD"/>
<path d="M1471.68 680.991H1466.12C1463.13 680.991 1460.71 678.787 1460.71 676.07V674.278C1460.71 671.558 1463.13 669.357 1466.12 669.357H1471.68C1474.67 669.357 1477.09 671.558 1477.09 674.278V676.07C1477.09 678.787 1474.67 680.991 1471.68 680.991Z" fill="#FFFFFD"/>
<path d="M1469.37 691.181H1463.81C1460.82 691.181 1458.4 688.978 1458.4 686.261V684.469C1458.4 681.749 1460.82 679.545 1463.81 679.545H1469.37C1472.36 679.545 1474.78 681.749 1474.78 684.469V686.261C1474.78 688.978 1472.36 691.181 1469.37 691.181Z" fill="#FFFFFD"/>
<path d="M1577.16 792.188C1577.16 820.874 1595.22 844.128 1617.49 844.128C1639.76 844.128 1657.82 820.874 1657.82 792.188C1657.82 763.5 1639.76 740.245 1617.49 740.245C1595.22 740.245 1577.16 763.5 1577.16 792.188Z" fill="url(#paint38_linear_3_7)"/>
<path d="M1607.1 844.085H1617.94V740.246H1607.1V844.085Z" fill="url(#paint39_linear_3_7)"/>
<path d="M1566.77 792.188C1566.77 820.874 1584.83 844.128 1607.1 844.128C1629.37 844.128 1647.43 820.874 1647.43 792.188C1647.43 763.5 1629.37 740.245 1607.1 740.245C1584.83 740.245 1566.77 763.5 1566.77 792.188Z" fill="url(#paint40_radial_3_7)"/>
<path d="M1569.51 792.188C1569.51 818.922 1586.34 840.599 1607.1 840.599C1627.86 840.599 1644.69 818.922 1644.69 792.188C1644.69 765.451 1627.86 743.777 1607.1 743.777C1586.34 743.777 1569.51 765.451 1569.51 792.188Z" fill="url(#paint41_linear_3_7)"/>
<path d="M1619.67 764.517C1614.99 764.517 1609.95 767.666 1607.1 773.103C1604.25 767.666 1599.2 764.517 1594.53 764.517C1586.14 764.517 1579.17 772.349 1580.28 785.678C1582.1 807.373 1605.8 827.702 1607.1 828.803C1608.4 827.702 1632.1 807.373 1633.91 785.678C1635.03 772.349 1628.05 764.517 1619.67 764.517Z" fill="#FEFEFE"/>
<path d="M1463.15 201.454C1463.15 233.091 1483.24 258.735 1508.02 258.735C1532.81 258.735 1552.89 233.091 1552.89 201.454C1552.89 169.823 1532.81 144.176 1508.02 144.176C1483.24 144.176 1463.15 169.823 1463.15 201.454Z" fill="url(#paint42_linear_3_7)"/>
<path d="M1498.45 258.651H1509.26V144.179H1498.45V258.651Z" fill="url(#paint43_linear_3_7)"/>
<path d="M1453.58 201.454C1453.58 233.091 1473.67 258.735 1498.45 258.735C1523.24 258.735 1543.32 233.091 1543.32 201.454C1543.32 169.823 1523.24 144.176 1498.45 144.176C1473.67 144.176 1453.58 169.823 1453.58 201.454Z" fill="url(#paint44_linear_3_7)"/>
<path d="M1457.34 201.454C1457.34 230.447 1475.74 253.948 1498.45 253.948C1521.17 253.948 1539.57 230.447 1539.57 201.454C1539.57 172.464 1521.17 148.963 1498.45 148.963C1475.74 148.963 1457.34 172.464 1457.34 201.454Z" fill="url(#paint45_radial_3_7)"/>
<path d="M1520.07 182.452H1476.84L1498.46 193.566L1520.07 182.452Z" fill="#FFFFFD"/>
<path d="M1498.84 198.291C1498.72 198.351 1498.59 198.383 1498.45 198.383C1498.33 198.383 1498.19 198.351 1498.07 198.291L1471.57 184.663V217.407C1471.57 219.814 1473.1 221.763 1474.98 221.763H1521.93C1523.81 221.763 1525.34 219.814 1525.34 217.407V184.663L1498.84 198.291Z" fill="url(#paint46_linear_3_7)"/>
<path d="M1303.89 472.032L1351.77 446.901L1340.23 428.727L1292.34 453.855L1303.89 472.032Z" fill="#FFBAA2"/>
<path d="M1356.11 448.068C1345.34 452.458 1339.64 448.663 1338.03 447.164C1330.24 439.909 1330.35 429.914 1340.82 422.149C1343.74 419.974 1346.35 417.545 1357.91 410.734C1365.36 406.344 1378.83 428.983 1378.83 428.983C1380.08 430.5 1378.21 433.243 1372.27 438.088C1366.34 442.93 1356.11 448.068 1356.11 448.068Z" fill="#FFBAA2"/>
<path d="M1350.69 416.698C1349.48 417.029 1347.84 417.658 1347.09 418.435C1346.25 419.224 1346.12 419.981 1346.16 420.702C1346.17 421.398 1346.54 422.457 1346.88 423.466L1347.68 425.203L1348.72 427.026C1350.84 430.787 1349.21 435.4 1345.07 437.332C1340.93 439.263 1335.86 437.781 1333.74 434.02C1333.14 432.965 1332.84 431.843 1332.81 430.732L1332.81 430.578L1332.72 427.18C1332.75 426.012 1332.9 424.776 1333.02 423.617C1333.53 421.111 1334.17 418.528 1336.05 416.049C1337.86 413.596 1340.73 411.812 1343.45 411.146C1346.25 410.453 1348.59 410.531 1351.26 411.012C1352.93 411.311 1354.02 412.792 1353.69 414.318C1353.46 415.373 1352.61 416.173 1351.55 416.466L1350.69 416.698Z" fill="#FFBAA2"/>
<path d="M1350.33 412.559L1377.96 398.261C1379.77 397.327 1382.07 397.898 1383.09 399.539C1384.05 401.062 1383.58 402.967 1382.06 403.982L1381.94 404.063L1356.88 420.935L1356.51 421.185C1353.99 422.878 1350.44 422.397 1348.57 420.109C1346.71 417.821 1347.24 414.591 1349.76 412.898C1349.93 412.779 1350.14 412.657 1350.33 412.559Z" fill="#FFBAA2"/>
<path d="M1361.46 417.545C1361.46 420.52 1364.11 422.929 1367.38 422.929C1370.66 422.929 1373.31 420.52 1373.31 417.545C1373.31 414.57 1370.66 412.157 1367.38 412.157C1364.11 412.157 1361.46 414.57 1361.46 417.545Z" fill="#FFBAA2"/>
<path d="M1364.89 423.416C1364.89 426.391 1367.54 428.801 1370.81 428.801C1374.09 428.801 1376.74 426.391 1376.74 423.416C1376.74 420.441 1374.09 418.029 1370.81 418.029C1367.54 418.029 1364.89 420.441 1364.89 423.416Z" fill="#FFBAA2"/>
<path d="M1368.1 430.068C1368.1 433.043 1370.75 435.455 1374.02 435.455C1377.3 435.455 1379.95 433.043 1379.95 430.068C1379.95 427.093 1377.3 424.683 1374.02 424.683C1370.75 424.683 1368.1 427.093 1368.1 430.068Z" fill="#FFBAA2"/>
<path d="M1180.96 450.185C1180.96 450.185 1243.57 510.026 1260.31 510.026C1277.05 510.026 1343.73 455.314 1343.73 455.314L1329.77 430.16L1260.65 462.444L1217.07 387.832L1180.96 450.185Z" fill="url(#paint47_linear_3_7)"/>
<path d="M1180.96 450.185C1180.96 450.185 1217.81 485.397 1242.53 501.794C1231.55 466.941 1221.39 431.883 1211.97 396.653L1180.96 450.185Z" fill="url(#paint48_linear_3_7)"/>
<path d="M1187.94 872.571C1188.81 883.047 1189.66 893.526 1190.53 904.003C1197.83 903.924 1205.14 903.849 1212.44 903.776L1211.75 870.959C1203.82 871.496 1195.88 872.032 1187.94 872.571Z" fill="#FFBF98"/>
<path d="M1100.41 548.193C1114.54 572.828 1158.63 733.629 1158.63 733.629C1158.63 733.629 1178.72 862.625 1186.51 905.857C1196.24 906.046 1207.03 904.175 1216.89 904.132C1223.86 851.403 1217.73 715.675 1217.07 703.12C1215.65 675.907 1203.68 560.632 1203.68 560.632C1203.68 560.632 1137.07 548.048 1105.75 548.045C1103.82 548.045 1102.04 548.094 1100.41 548.193" fill="url(#paint49_linear_3_7)"/>
<path d="M1100.41 548.193C1114.54 572.828 1158.63 733.629 1158.63 733.629C1158.63 733.629 1178.72 862.625 1186.51 905.857C1196.24 906.046 1207.03 904.175 1216.89 904.132C1223.86 851.403 1217.73 715.675 1217.07 703.12C1215.65 675.907 1203.68 560.632 1203.68 560.632C1203.68 560.632 1137.07 548.048 1105.75 548.045C1103.82 548.045 1102.04 548.094 1100.41 548.193" fill="url(#paint50_linear_3_7)"/>
<path d="M1100.41 548.193C1114.54 572.828 1158.63 733.629 1158.63 733.629C1158.63 733.629 1163.56 765.225 1169.47 802.377C1169.68 779.851 1171.02 757.327 1171.73 734.815C1173.52 678.076 1173.86 621.291 1169.5 564.639C1169.16 560.165 1171.44 557.179 1174.7 555.63C1152.8 552.116 1123.57 548.045 1105.75 548.045C1103.83 548.045 1102.04 548.094 1100.41 548.193Z" fill="url(#paint51_linear_3_7)"/>
<path d="M1186.59 913.055C1186.66 910.897 1186.38 907.806 1186.51 905.858C1186.65 903.907 1187.55 903.211 1189.49 903.028C1192.34 902.755 1196.27 903.019 1199.06 902.834C1203.4 902.544 1205.82 900.961 1208.25 897.945C1209.05 896.953 1208.9 896.124 1209.87 895.04C1213.26 891.233 1219.79 888.49 1225.57 891.47C1231.35 894.445 1235.9 898.731 1243.47 900.389C1251.03 902.051 1261.29 903.77 1263 912.017C1237.56 912.376 1212.07 912.744 1186.59 913.055Z" fill="#250A20"/>
<path d="M1263.13 918.8C1237.66 919.151 1212.18 919.499 1186.71 919.85C1186.67 917.591 1186.64 915.335 1186.6 913.073C1212.07 912.723 1237.55 912.375 1263.02 912.024C1263.06 914.283 1263.09 916.544 1263.13 918.8Z" fill="#D58A4D"/>
<path d="M1078.7 877.156C1078.19 887.655 1077.71 898.151 1077.22 908.648C1084.49 909.35 1091.75 910.048 1099.02 910.747C1100.19 899.851 1101.38 888.957 1102.57 878.066C1094.62 877.762 1086.66 877.457 1078.7 877.156Z" fill="#FFBF98"/>
<path d="M1088.94 568.13L1087.35 620.033L1090.18 734.261C1090.18 734.261 1071.89 854.416 1074.22 910.882C1083.63 911.076 1091.81 912.767 1101.97 910.056C1107.66 865.231 1154.52 737.105 1154.52 737.105L1171.58 632.025L1186.11 554.262L1088.94 568.13Z" fill="url(#paint52_linear_3_7)"/>
<path d="M1088.94 568.13L1087.35 620.033L1090.18 734.261C1090.18 734.261 1071.89 854.416 1074.22 910.882C1074.83 910.899 1075.41 910.926 1076.01 910.952C1076.11 910.543 1076.2 910.128 1076.31 909.722C1085.86 871.173 1114.07 735.438 1114.07 735.438C1114.07 735.438 1122.73 577.313 1127.51 562.627L1088.94 568.13Z" fill="url(#paint53_linear_3_7)"/>
<path d="M1102.93 900.554C1102.01 903.83 1101.13 907.127 1100.27 910.432C1100.84 910.305 1101.39 910.212 1101.97 910.056C1102.61 904.955 1103.8 898.768 1105.38 891.823C1104.56 894.728 1103.75 897.631 1102.93 900.554Z" fill="url(#paint54_linear_3_7)"/>
<path d="M1090.44 896.15C1087.61 896.005 1084.79 895.898 1081.96 895.837C1076.98 895.727 1072.49 898.229 1069.93 902.103C1069.2 903.202 1068.31 904.292 1067.2 905.33C1055.11 916.555 1055.68 921.455 1055.68 921.455H1105.07C1105.13 914.177 1105.29 909.111 1105.08 904.692C1102 903.411 1099.22 901.512 1097.11 899.16C1095.48 897.342 1093.02 896.284 1090.44 896.15Z" fill="#250A20"/>
<path d="M1055.69 928.218V921.453H1105.17V928.218" fill="#D58A4D"/>
<path d="M1084.87 386.878C1078.69 389.062 1074.73 394.597 1075.05 400.619L1088.94 568.13H1203.33L1205.88 514.088C1205.88 514.088 1227.05 422.334 1217.07 387.832C1206.89 377.484 1172.84 372.775 1172.84 372.775L1160.39 383.541L1134.31 370.473L1084.87 386.878Z" fill="url(#paint55_linear_3_7)"/>
<path d="M1076.55 418.806L1088.94 568.13H1126.39L1107.3 429.302C1107.3 429.302 1105.29 423.349 1102.53 415.599C1093.91 416.474 1085.14 417.353 1076.55 418.806" fill="url(#paint56_linear_3_7)"/>
<path d="M1146.26 361.336C1145.71 361.496 1132.45 367.08 1132.45 367.08L1118.19 376.637L1157.23 415.445L1172.02 394.71L1194.08 403.905L1185.85 377.203L1173.74 365.822C1173.74 365.822 1148.38 361.327 1146.37 361.327C1146.31 361.327 1146.28 361.33 1146.26 361.336" fill="url(#paint57_linear_3_7)"/>
<path d="M1134.6 335.774L1134.27 374.718L1170.6 391.686L1172.84 377.574L1170.58 347.207L1134.6 335.774Z" fill="#FFBAA2"/>
<path d="M1134.53 344.438L1134.6 335.774L1170.59 347.207L1172.84 377.575L1172.59 379.158C1159.91 367.591 1146.96 356.211 1134.53 344.438Z" fill="#FAAA93"/>
<path d="M1168.87 290.102L1173.2 331.636C1173.2 331.636 1192.68 325.028 1193.73 308.486C1194.66 293.889 1182 287.177 1182 287.177L1168.87 290.102Z" fill="url(#paint58_linear_3_7)"/>
<path d="M1178.36 285.932C1182.93 285.694 1186.84 288.866 1187.11 293.018L1190.01 339.078C1190.58 348.139 1182.96 355.901 1172.99 356.42L1163.25 356.928C1160.46 357.073 1152.93 355.55 1147.17 351.204C1137.08 343.598 1134.6 335.772 1134.6 335.772L1132.47 301.998C1132 294.468 1138.33 288.017 1146.62 287.585L1178.36 285.932Z" fill="#FFBAA2"/>
<path d="M1175.37 324.236L1178.16 329.821L1176.7 331.636" stroke="#D1826C" stroke-width="1.228" stroke-miterlimit="10" stroke-linecap="round" stroke-linejoin="round"/>
<path d="M1180.48 337.189C1180.48 337.189 1176.44 337.221 1162.68 338.222C1162.68 338.222 1164.99 342.728 1172.54 343.261C1180.1 343.797 1180.48 337.189 1180.48 337.189Z" fill="white"/>
<path d="M1131.9 285.432C1126.49 283.251 1122.14 293.962 1121.74 297.291C1119.88 313.267 1127.99 319.983 1127.99 319.983C1127.99 319.983 1132.47 318.666 1135.33 319.646C1136.43 322.421 1136.7 328.247 1136.7 328.247L1140.62 328.133C1144.96 325.828 1147.27 319.504 1146.74 314.169C1146.74 314.169 1158.94 311.928 1151.44 299.724C1170.76 300.834 1197.7 302.899 1198.24 290.32C1198.59 281.99 1193.78 273.216 1175.37 272.073C1174.24 272.004 1172.94 271.966 1171.5 271.966C1158.67 271.966 1135.13 274.987 1131.9 285.432" fill="url(#paint59_linear_3_7)"/>
<path d="M1131.9 285.432C1126.49 283.251 1122.14 293.962 1121.74 297.291C1119.88 313.267 1127.99 319.983 1127.99 319.983C1127.99 319.983 1132.47 318.666 1135.33 319.646C1136.43 322.421 1136.7 328.247 1136.7 328.247L1140.62 328.133C1144.96 325.828 1147.27 319.504 1146.74 314.169C1146.74 314.169 1158.94 311.928 1151.44 299.724C1170.76 300.834 1197.7 302.899 1198.24 290.32C1198.59 281.99 1193.78 273.216 1175.37 272.073C1174.24 272.004 1172.94 271.966 1171.5 271.966C1158.67 271.966 1135.13 274.987 1131.9 285.432" fill="url(#paint60_radial_3_7)"/>
<path d="M1131.11 289.836L1135.31 285.278C1135.31 285.278 1130.15 282.152 1135.11 275.323C1135.11 275.323 1126.1 279.525 1131.11 289.836" fill="url(#paint61_linear_3_7)"/>
<path d="M1159.35 321.453C1159.43 322.703 1160.3 323.674 1161.3 323.622C1162.29 323.57 1163.04 322.514 1162.96 321.264C1162.88 320.015 1162.01 319.043 1161.01 319.095C1160.02 319.148 1159.28 320.203 1159.35 321.453Z" fill="#250A20"/>
<path d="M1179.52 319.256C1179.6 320.505 1180.48 321.477 1181.47 321.424C1182.47 321.372 1183.21 320.32 1183.13 319.07C1183.05 317.817 1182.18 316.846 1181.19 316.901C1180.19 316.953 1179.45 318.006 1179.52 319.256Z" fill="#250A20"/>
<path d="M1127.08 329.352C1129.3 333.904 1133.79 336.511 1137.12 335.171C1140.45 333.832 1141.35 329.053 1139.13 324.501C1136.91 319.946 1132.41 317.342 1129.08 318.681C1125.76 320.021 1124.86 324.796 1127.08 329.352Z" fill="#FFBAA2"/>
<path d="M1165.46 314.118C1163.47 314.547 1161.78 314.825 1160.19 315.318C1158.56 315.765 1157.1 316.452 1155.17 317.229L1155.12 317.252C1154.76 317.397 1154.34 317.249 1154.18 316.921C1154.1 316.762 1154.1 316.585 1154.17 316.431C1154.57 315.469 1155.18 314.544 1156.07 313.857C1156.91 313.114 1157.99 312.607 1159.1 312.259C1161.36 311.601 1163.88 311.772 1165.81 313.111C1166.08 313.3 1166.13 313.645 1165.92 313.889C1165.83 313.996 1165.71 314.062 1165.58 314.091L1165.46 314.118Z" fill="#401411"/>
<path d="M1176 312.397C1176.9 310.82 1178.78 310.069 1180.69 310.156C1181.64 310.223 1182.59 310.475 1183.35 310.988C1184.14 311.44 1184.68 312.171 1184.98 312.963C1185.09 313.238 1184.93 313.537 1184.63 313.633C1184.56 313.656 1184.48 313.664 1184.41 313.662L1184.35 313.659C1182.59 313.563 1181.57 313.418 1180.46 313.363C1179.38 313.258 1178.22 313.287 1176.59 313.16L1176.45 313.148C1176.14 313.122 1175.91 312.876 1175.93 312.589C1175.94 312.522 1175.96 312.455 1176 312.397Z" fill="#401411"/>
<path d="M1107.66 535.171C1110.16 536.07 1111.09 538.001 1111.34 540.187L1114.07 547.309L1113.62 552.69C1113.72 553.549 1113.38 554.5 1112.67 555.3C1110.59 557.663 1106.84 557.475 1106.4 554.987L1106.59 547.1L1102.43 540.063L1107.66 535.171Z" fill="#FFBAA2"/>
<path d="M1082.08 519.374L1098.96 532.912C1099.52 533.364 1099.96 533.938 1100.23 534.585L1108.43 550.73C1108.61 551.162 1108.86 551.562 1109.19 551.918L1113.54 553.652C1115.66 556.007 1116.13 557.19 1111.7 560.385C1107.57 563.36 1101.23 569.597 1095.77 569.423C1092.15 569.307 1083.53 570.258 1080.95 567.921C1080.22 567.269 1079.33 566.796 1078.9 565.955L1064.92 531.07C1064 529.261 1064.59 527.115 1066.34 525.918L1076.2 519.168C1077.97 517.959 1080.42 518.046 1082.08 519.374Z" fill="#FFBAA2"/>
<path d="M1109.48 552.036L1113.54 553.654C1115.66 556.006 1116.13 557.189 1111.7 560.384C1107.57 563.359 1101.23 569.599 1095.77 569.422C1092.15 569.306 1083.53 570.257 1080.95 567.923C1080.63 567.633 1080.28 567.381 1079.95 567.117C1090.27 563.014 1100.47 557.966 1109.48 552.036Z" fill="#FAAA93"/>
<path d="M1088.86 524.81L1107.66 535.173L1111.05 540.773C1112.29 542.805 1111.07 545.348 1108.59 545.919L1097.76 548.413L1088.86 524.81Z" fill="#FFBAA2"/>
<path d="M1004.5 446.659C998.275 453.023 998.148 462.601 1003.94 469.301L1068.46 541.011L1093.9 527.217L1052.34 462.711L1103.24 442.24C1103.24 442.24 1127.26 430.691 1127.51 409.492C1127.77 388.293 1082.87 387.583 1082.87 387.583C1082.87 387.583 1032.24 418.31 1004.5 446.659" fill="url(#paint62_linear_3_7)"/>
<path d="M752.734 643.365C743.056 645.841 742.769 656.132 754.138 674.704C762.137 678.783 771.534 680.738 780.938 679.517C774.274 681.381 767.104 682.782 759.799 683.269C765.021 690.68 771.723 699.121 780.038 708.637C813.591 750.139 825.681 780.373 832.146 799.371C838.168 818.511 838.567 826.412 838.57 826.528C844.969 823.991 851.479 821.572 858.085 819.273C857.792 819.27 859.049 798.063 854.127 770.61C849.578 743.261 838.854 709.67 823.065 687.456C813.882 673.66 802.676 663.175 791.719 655.845C789.907 658.907 787.633 661.78 785.091 664.425C786.44 660.131 786.038 656.234 785.872 652.221C774.896 645.914 764.603 642.832 757.381 642.832C755.643 642.832 754.083 643.012 752.734 643.365" fill="url(#paint63_linear_3_7)"/>
<path d="M770.304 661.143C769.765 661.778 769.896 662.688 770.591 663.175C771.318 663.688 843.167 715.391 845.139 821.251C845.151 822.042 845.86 822.674 846.73 822.674H846.759C847.64 822.663 848.341 822.002 848.328 821.201C846.329 713.964 773.28 661.401 772.54 660.882C772.253 660.682 771.908 660.583 771.567 660.583C771.092 660.583 770.62 660.771 770.304 661.143Z" fill="url(#paint64_radial_3_7)"/>
<path d="M783.452 686.395C782.581 686.499 781.969 687.227 782.08 688.022C782.195 688.816 783.012 689.361 783.87 689.268C783.956 689.257 792.466 688.271 797.834 689.422C797.959 689.448 798.083 689.46 798.204 689.46C798.925 689.46 799.579 689.007 799.755 688.343C799.956 687.566 799.426 686.786 798.571 686.601C796.313 686.114 793.643 685.963 791.177 685.963C787.158 685.963 783.685 686.369 783.452 686.395" fill="url(#paint65_radial_3_7)"/>
<path d="M795.164 671.885C795.027 672.088 791.943 676.957 792.995 683.803C793.107 684.528 793.786 685.052 794.571 685.052C794.644 685.052 794.721 685.044 794.794 685.038C795.668 684.928 796.274 684.194 796.153 683.4C795.263 677.6 797.888 673.39 797.914 673.35C798.354 672.657 798.096 671.772 797.337 671.363C797.085 671.233 796.81 671.169 796.536 671.169C795.99 671.169 795.461 671.424 795.164 671.885" fill="url(#paint66_radial_3_7)"/>
<path d="M789.713 702.09C788.845 702.209 788.242 702.942 788.363 703.737C788.494 704.531 789.304 705.045 790.175 704.963C790.296 704.943 802.705 703.363 810.867 707.193C811.097 707.3 811.352 707.353 811.598 707.353C812.172 707.353 812.733 707.066 813.014 706.57C813.419 705.856 813.11 704.981 812.328 704.613C807.295 702.252 801.043 701.716 796.386 701.716C792.663 701.716 789.958 702.058 789.713 702.09" fill="url(#paint67_radial_3_7)"/>
<path d="M818.531 697.091C818.339 697.384 813.925 704.349 815.433 714.179C815.548 714.9 816.231 715.425 817.012 715.425C817.089 715.425 817.162 715.42 817.239 715.414C818.106 715.301 818.716 714.567 818.594 713.773C817.242 704.993 821.239 698.622 821.28 698.559C821.72 697.868 821.465 696.981 820.706 696.578C820.451 696.442 820.173 696.378 819.896 696.378C819.354 696.378 818.824 696.63 818.531 697.091" fill="url(#paint68_radial_3_7)"/>
<path d="M811.442 748.222C810.571 748.341 809.969 749.077 810.093 749.869C810.221 750.664 811.047 751.174 811.902 751.096C812.032 751.075 825.117 749.408 833.732 753.447C833.968 753.56 834.217 753.609 834.463 753.609C835.04 753.609 835.598 753.325 835.882 752.827C836.287 752.11 835.981 751.241 835.196 750.872C829.911 748.393 823.346 747.828 818.456 747.828C814.543 747.828 811.701 748.19 811.442 748.222Z" fill="url(#paint69_radial_3_7)"/>
<path d="M831.592 723.686C831.391 723.993 826.76 731.3 828.348 741.623C828.46 742.348 829.142 742.872 829.924 742.872C829.997 742.872 830.074 742.867 830.147 742.858C831.021 742.748 831.627 742.014 831.506 741.223C830.077 731.941 834.297 725.22 834.342 725.153C834.782 724.466 834.527 723.576 833.768 723.173C833.512 723.036 833.232 722.973 832.957 722.973C832.412 722.973 831.886 723.225 831.592 723.686" fill="url(#paint70_radial_3_7)"/>
<path d="M816.587 576.817C803.719 576.797 799.432 589.384 806.322 615.848C814.609 623.402 825.435 628.783 837.486 630.256C828.564 630.445 819.196 629.9 810.013 628.189C813.614 638.97 818.631 651.481 825.231 665.834C850.669 727.554 853.984 768.615 854.673 794.056C854.768 819.534 852.232 829.39 852.191 829.532C861.049 828.43 869.983 827.508 879.004 826.769C878.643 826.67 888.305 800.957 892.758 765.585C897.619 730.471 897.265 685.705 886.331 653.354C880.302 633.463 870.513 617.008 859.821 604.514C856.421 607.712 852.516 610.534 848.379 612.978C851.681 608.118 852.679 603.195 854.012 598.199C840.293 584.31 825.962 576.817 816.698 576.814C816.66 576.814 816.625 576.817 816.587 576.817" fill="url(#paint71_linear_3_7)"/>
<path d="M831.69 604.586C830.982 605.068 830.832 605.972 831.355 606.619C832.054 607.477 900.853 694.111 862.726 825.209C862.503 825.986 863.01 826.777 863.859 826.983C863.999 827.018 864.133 827.03 864.267 827.03C864.975 827.03 865.619 826.6 865.811 825.954C904.346 693.444 834.631 605.761 833.917 604.891C833.607 604.508 833.125 604.308 832.634 604.308C832.306 604.308 831.974 604.398 831.69 604.586" fill="url(#paint72_radial_3_7)"/>
<path d="M836.076 641.147C835.955 641.939 836.554 642.675 837.425 642.791C837.537 642.806 848.471 644.279 854.717 647.442C854.962 647.567 855.227 647.625 855.492 647.625C856.05 647.625 856.596 647.358 856.886 646.882C857.313 646.184 857.039 645.296 856.27 644.911C849.514 641.489 838.36 639.984 837.888 639.921C837.817 639.915 837.747 639.909 837.68 639.909C836.892 639.909 836.197 640.416 836.076 641.147" fill="url(#paint73_radial_3_7)"/>
<path d="M858.232 625.646C857.996 625.852 852.433 630.778 851.135 639.399C851.014 640.193 851.626 640.924 852.497 641.031C852.574 641.04 852.644 641.043 852.721 641.043C853.502 641.043 854.188 640.518 854.296 639.793C855.438 632.213 860.389 627.78 860.443 627.737C861.074 627.183 861.09 626.264 860.481 625.687C860.169 625.391 859.751 625.243 859.333 625.243C858.937 625.243 858.539 625.376 858.232 625.646Z" fill="url(#paint74_radial_3_7)"/>
<path d="M837.803 662.482C837.691 663.276 838.307 664.004 839.178 664.112C839.34 664.129 855.378 666.133 864.051 673.506C864.361 673.764 864.75 673.895 865.142 673.895C865.57 673.895 865.991 673.741 866.306 673.437C866.906 672.851 866.874 671.932 866.233 671.387C856.801 663.372 840.291 661.319 839.595 661.235C839.522 661.226 839.452 661.221 839.382 661.221C838.6 661.221 837.911 661.751 837.803 662.482" fill="url(#paint75_radial_3_7)"/>
<path d="M877.358 664.08C877.017 664.375 869.027 671.459 867.148 683.904C867.023 684.698 867.636 685.429 868.51 685.536C868.583 685.545 868.653 685.554 868.73 685.554C869.512 685.554 870.197 685.026 870.306 684.301C872.028 672.897 879.492 666.237 879.566 666.17C880.197 665.619 880.219 664.7 879.61 664.123C879.298 663.827 878.877 663.68 878.456 663.68C878.063 663.68 877.668 663.81 877.358 664.08" fill="url(#paint76_radial_3_7)"/>
<path d="M846.903 726.168C846.788 726.965 847.407 727.693 848.274 727.798C848.446 727.815 865.343 729.914 874.51 737.703C874.819 737.963 875.212 738.094 875.601 738.094C876.028 738.094 876.453 737.937 876.765 737.636C877.368 737.05 877.333 736.134 876.692 735.589C866.784 727.168 849.426 725.008 848.695 724.918C848.628 724.913 848.561 724.907 848.494 724.907C847.71 724.907 847.008 725.437 846.903 726.168" fill="url(#paint77_radial_3_7)"/>
<path d="M883.266 700.962C882.905 701.272 874.513 708.713 872.539 721.787C872.418 722.584 873.027 723.315 873.901 723.422C873.974 723.431 874.048 723.437 874.121 723.437C874.906 723.437 875.588 722.909 875.697 722.184C877.518 710.154 885.39 703.125 885.473 703.053C886.105 702.499 886.127 701.583 885.515 701.006C885.202 700.71 884.781 700.562 884.363 700.562C883.968 700.562 883.572 700.692 883.266 700.962" fill="url(#paint78_radial_3_7)"/>
<path d="M950.069 652.221C949.904 656.234 949.502 660.131 950.851 664.425C948.309 661.78 946.034 658.907 944.223 655.845C933.266 663.175 922.054 673.66 912.877 687.456C897.088 709.67 886.367 743.261 881.812 770.61C876.893 798.063 878.15 819.27 877.857 819.273C884.466 821.572 890.966 823.991 897.368 826.528C897.372 826.412 897.77 818.511 903.796 799.371C910.258 780.373 922.347 750.139 955.9 708.637C964.222 699.121 970.921 690.68 976.139 683.269C968.841 682.782 961.667 681.381 955.004 679.517C964.407 680.738 973.808 678.783 981.804 674.704C993.169 656.132 992.889 645.841 983.208 643.365C981.858 643.012 980.299 642.832 978.56 642.832C971.339 642.832 961.042 645.914 950.069 652.221" fill="url(#paint79_linear_3_7)"/>
<path d="M963.398 660.882C962.661 661.401 889.609 713.964 887.615 821.201C887.599 822.002 888.304 822.663 889.182 822.674H889.207C890.078 822.674 890.789 822.042 890.805 821.251C892.773 715.469 964.622 663.688 965.35 663.175C966.048 662.688 966.173 661.775 965.634 661.143C965.318 660.771 964.849 660.58 964.374 660.58C964.029 660.58 963.688 660.679 963.398 660.882" fill="url(#paint80_radial_3_7)"/>
<path d="M937.373 686.601C936.515 686.786 935.986 687.566 936.187 688.343C936.362 689.007 937.016 689.46 937.74 689.46C937.861 689.46 937.983 689.448 938.107 689.422C943.478 688.271 951.989 689.257 952.072 689.268C952.923 689.364 953.746 688.816 953.861 688.022C953.973 687.227 953.36 686.499 952.486 686.395C952.257 686.369 948.786 685.963 944.764 685.963C942.301 685.963 939.632 686.114 937.373 686.601" fill="url(#paint81_radial_3_7)"/>
<path d="M938.601 671.363C937.842 671.772 937.583 672.657 938.027 673.35C938.052 673.39 940.68 677.6 939.791 683.4C939.666 684.194 940.275 684.928 941.146 685.038C941.223 685.044 941.296 685.052 941.369 685.052C942.151 685.052 942.834 684.528 942.948 683.803C944.001 676.957 940.91 672.088 940.779 671.885C940.483 671.422 939.953 671.169 939.408 671.169C939.133 671.169 938.856 671.233 938.601 671.363" fill="url(#paint82_radial_3_7)"/>
<path d="M923.612 704.613C922.828 704.981 922.522 705.856 922.927 706.57C923.211 707.066 923.769 707.353 924.346 707.353C924.588 707.353 924.84 707.3 925.076 707.193C933.217 703.374 945.638 704.94 945.768 704.963C946.623 705.062 947.453 704.528 947.574 703.734C947.701 702.942 947.095 702.209 946.225 702.09C945.979 702.061 943.277 701.716 939.558 701.716C934.901 701.716 928.649 702.255 923.612 704.613Z" fill="url(#paint83_radial_3_7)"/>
<path d="M915.23 696.578C914.471 696.984 914.215 697.874 914.665 698.561C914.707 698.625 918.706 704.938 917.348 713.773C917.226 714.567 917.833 715.301 918.707 715.414C918.78 715.42 918.856 715.425 918.93 715.425C919.711 715.425 920.394 714.9 920.506 714.179C922.017 704.349 917.603 697.384 917.411 697.091C917.115 696.63 916.585 696.378 916.043 696.378C915.765 696.378 915.485 696.442 915.23 696.578" fill="url(#paint84_radial_3_7)"/>
<path d="M900.746 750.872C899.964 751.241 899.658 752.11 900.06 752.827C900.344 753.325 900.902 753.609 901.476 753.609C901.725 753.609 901.977 753.56 902.21 753.447C910.806 749.42 923.909 751.078 924.043 751.096C924.908 751.2 925.725 750.655 925.849 749.866C925.973 749.077 925.37 748.341 924.5 748.222C924.241 748.19 921.402 747.828 917.489 747.828C912.595 747.828 906.031 748.393 900.746 750.872" fill="url(#paint85_radial_3_7)"/>
<path d="M902.168 723.173C901.409 723.579 901.157 724.469 901.606 725.156C901.645 725.223 905.871 731.889 904.436 741.223C904.315 742.014 904.921 742.748 905.795 742.858C905.868 742.867 905.944 742.872 906.018 742.872C906.803 742.872 907.482 742.348 907.594 741.623C909.185 731.3 904.551 723.993 904.353 723.686C904.056 723.225 903.523 722.973 902.978 722.973C902.704 722.973 902.423 723.036 902.168 723.173" fill="url(#paint86_radial_3_7)"/>
<path d="M812.134 815.228C805.888 815.228 801.148 820.349 802.22 825.945L820.13 919.63C820.969 924.014 825.151 927.212 830.044 927.212H903.105C908.002 927.212 912.187 924.014 913.026 919.63L930.933 825.945C932.005 820.349 927.268 815.228 921.016 815.228H812.134Z" fill="url(#paint87_linear_3_7)"/>
<path d="M801.751 802.378C796.195 802.378 791.688 806.472 791.688 811.529V828.7C791.688 833.754 796.195 837.848 801.751 837.848H931.405C936.959 837.848 941.466 833.754 941.466 828.7V811.529C941.466 806.472 936.959 802.378 931.405 802.378H801.751Z" fill="url(#paint88_linear_3_7)"/>
<path d="M908.678 802.375C902.583 828.839 893.843 854.845 879.18 878.471C867.279 897.657 851.588 913.938 833.065 927.212H903.106C908.002 927.212 912.187 924.014 913.026 919.63L928.659 837.848H931.405C936.959 837.848 941.466 833.754 941.466 828.7V811.528C941.466 806.472 936.959 802.375 931.405 802.375H908.678Z" fill="url(#paint89_linear_3_7)"/>
<path d="M1105.79 225.752C1105.79 233.607 1112.82 239.998 1121.46 239.998C1130.1 239.998 1137.14 233.607 1137.14 225.752C1137.14 217.894 1130.1 211.504 1121.46 211.504C1112.82 211.504 1105.79 217.894 1105.79 225.752ZM1108.91 225.752C1108.91 219.46 1114.54 214.337 1121.46 214.337C1128.39 214.337 1134.02 219.46 1134.02 225.752C1134.02 232.047 1128.39 237.168 1121.46 237.168C1114.54 237.168 1108.91 232.047 1108.91 225.752Z" fill="url(#paint90_radial_3_7)"/>
<path d="M1763.99 148.963C1763.99 156.821 1771.02 163.212 1779.66 163.212C1788.31 163.212 1795.34 156.821 1795.34 148.963C1795.34 141.108 1788.31 134.715 1779.66 134.715C1771.02 134.715 1763.99 141.108 1763.99 148.963ZM1767.11 148.963C1767.11 142.668 1772.74 137.548 1779.66 137.548C1786.59 137.548 1792.22 142.668 1792.22 148.963C1792.22 155.261 1786.59 160.379 1779.66 160.379C1772.74 160.379 1767.11 155.261 1767.11 148.963Z" fill="url(#paint91_radial_3_7)"/>
<path d="M892.25 167.274C892.25 175.132 899.284 181.522 907.925 181.522C916.569 181.522 923.599 175.132 923.599 167.274C923.599 159.419 916.569 153.028 907.925 153.028C899.284 153.028 892.25 159.419 892.25 167.274ZM895.367 167.274C895.367 160.979 901 155.861 907.925 155.861C914.847 155.861 920.483 160.979 920.483 167.274C920.483 173.569 914.847 178.693 907.925 178.693C901 178.693 895.367 173.569 895.367 167.274Z" fill="url(#paint92_radial_3_7)"/>
<path d="M847.604 428.803C847.604 441.295 858.781 451.455 872.526 451.455C886.267 451.455 897.444 441.295 897.444 428.803C897.444 416.309 886.267 406.152 872.526 406.152C858.781 406.152 847.604 416.309 847.604 428.803ZM852.555 428.803C852.555 418.794 861.512 410.652 872.526 410.652C883.534 410.652 892.491 418.794 892.491 428.803C892.491 438.813 883.534 446.952 872.526 446.952C861.512 446.952 852.555 438.813 852.555 428.803Z" fill="url(#paint93_radial_3_7)"/>
<path d="M599.383 740.246C599.383 747.689 606.044 753.743 614.235 753.743C622.42 753.743 629.08 747.689 629.08 740.246C629.08 732.802 622.42 726.745 614.235 726.745C606.044 726.745 599.383 732.802 599.383 740.246ZM602.334 740.246C602.334 734.284 607.674 729.43 614.235 729.43C620.793 729.43 626.133 734.284 626.133 740.246C626.133 746.207 620.793 751.064 614.235 751.064C607.674 751.064 602.334 746.207 602.334 740.246Z" fill="url(#paint94_radial_3_7)"/>
<path d="M1299.44 140.636C1299.44 153.127 1310.62 163.29 1324.36 163.29C1338.11 163.29 1349.29 153.127 1349.29 140.636C1349.29 128.144 1338.11 117.981 1324.36 117.981C1310.62 117.981 1299.44 128.144 1299.44 140.636ZM1304.4 140.636C1304.4 130.629 1313.35 122.487 1324.36 122.487C1335.37 122.487 1344.33 130.629 1344.33 140.636C1344.33 150.645 1335.37 158.787 1324.36 158.787C1313.35 158.787 1304.4 150.645 1304.4 140.636Z" fill="url(#paint95_radial_3_7)"/>
</g>
<defs>
<radialGradient id="paint0_radial_3_7" cx="0" cy="0" r="1" gradientUnits="userSpaceOnUse" gradientTransform="translate(869.006 934.76) rotate(-49.2834) scale(2147.6 2187.94)">
<stop stop-color="white"/>
<stop offset="0.742545" stop-color="#95C5FF"/>
<stop offset="1" stop-color="#95C5FF"/>
</radialGradient>
<radialGradient id="paint1_radial_3_7" cx="0" cy="0" r="1" gradientUnits="userSpaceOnUse" gradientTransform="translate(1547.77 652.815) rotate(-63.3232) scale(764.564 811.638)">
<stop stop-color="white"/>
<stop offset="0.742545" stop-color="#78B6FF"/>
<stop offset="1" stop-color="#78B6FF"/>
</radialGradient>
<radialGradient id="paint2_radial_3_7" cx="0" cy="0" r="1" gradientUnits="userSpaceOnUse" gradientTransform="translate(644.927 583.216) rotate(68.0464) scale(322.655 346.331)">
<stop stop-color="white"/>
<stop offset="0.742545" stop-color="#95C5FF"/>
<stop offset="1" stop-color="#95C5FF"/>
</radialGradient>
<radialGradient id="paint3_radial_3_7" cx="0" cy="0" r="1" gradientUnits="userSpaceOnUse" gradientTransform="translate(789.688 -469.398) scale(73.625 66.9269)">
<stop stop-color="white"/>
<stop offset="0.742545" stop-color="#DBEDFF"/>
<stop offset="1" stop-color="#DBEDFF"/>
</radialGradient>
<radialGradient id="paint4_radial_3_7" cx="0" cy="0" r="1" gradientUnits="userSpaceOnUse" gradientTransform="translate(697.396 -513.397) scale(57.7591 52.5045)">
<stop stop-color="white"/>
<stop offset="0.742545" stop-color="#DBEDFF"/>
<stop offset="1" stop-color="#DBEDFF"/>
</radialGradient>
<radialGradient id="paint5_radial_3_7" cx="0" cy="0" r="1" gradientUnits="userSpaceOnUse" gradientTransform="translate(957.969 -602.976) scale(45.5825 41.4357)">
<stop stop-color="white"/>
<stop offset="0.742545" stop-color="#DBEDFF"/>
<stop offset="1" stop-color="#DBEDFF"/>
</radialGradient>
<radialGradient id="paint6_radial_3_7" cx="0" cy="0" r="1" gradientUnits="userSpaceOnUse" gradientTransform="translate(880.475 457.055) rotate(87.7636) scale(182.343 200.539)">
<stop stop-color="white"/>
<stop offset="0.742545" stop-color="#95C5FF"/>
<stop offset="1" stop-color="#95C5FF"/>
</radialGradient>
<radialGradient id="paint7_radial_3_7" cx="0" cy="0" r="1" gradientUnits="userSpaceOnUse" gradientTransform="translate(1039.08 -415.43) rotate(-87.7636) scale(142.194 156.383)">
<stop stop-color="white"/>
<stop offset="0.742545" stop-color="#DBEDFF"/>
<stop offset="1" stop-color="#DBEDFF"/>
</radialGradient>
<radialGradient id="paint8_radial_3_7" cx="0" cy="0" r="1" gradientUnits="userSpaceOnUse" gradientTransform="translate(1466.92 562.888) rotate(111.954) scale(316.163 339.362)">
<stop stop-color="white"/>
<stop offset="0.742545" stop-color="#95C5FF"/>
<stop offset="1" stop-color="#95C5FF"/>
</radialGradient>
<radialGradient id="paint9_radial_3_7" cx="0" cy="0" r="1" gradientUnits="userSpaceOnUse" gradientTransform="translate(1325.25 -503.674) rotate(180) scale(72.1705 65.6047)">
<stop stop-color="white"/>
<stop offset="0.742545" stop-color="#DBEDFF"/>
<stop offset="1" stop-color="#DBEDFF"/>
</radialGradient>
<radialGradient id="paint10_radial_3_7" cx="0" cy="0" r="1" gradientUnits="userSpaceOnUse" gradientTransform="translate(1414.4 -548.625) rotate(180) scale(55.8947 50.8097)">
<stop stop-color="white"/>
<stop offset="0.742545" stop-color="#DBEDFF"/>
<stop offset="1" stop-color="#DBEDFF"/>
</radialGradient>
<radialGradient id="paint11_radial_3_7" cx="0" cy="0" r="1" gradientUnits="userSpaceOnUse" gradientTransform="translate(1153.83 -634.066) rotate(180) scale(45.5825 41.4357)">
<stop stop-color="white"/>
<stop offset="0.742545" stop-color="#DBEDFF"/>
<stop offset="1" stop-color="#DBEDFF"/>
</radialGradient>
<radialGradient id="paint12_radial_3_7" cx="0" cy="0" r="1" gradientUnits="userSpaceOnUse" gradientTransform="translate(1892.24 440.563) rotate(92.2364) scale(182.03 200.194)">
<stop stop-color="white"/>
<stop offset="0.742545" stop-color="#95C5FF"/>
<stop offset="1" stop-color="#95C5FF"/>
</radialGradient>
<radialGradient id="paint13_radial_3_7" cx="0" cy="0" r="1" gradientUnits="userSpaceOnUse" gradientTransform="translate(1736.93 -440.611) rotate(-92.2364) scale(139.008 152.88)">
<stop stop-color="white"/>
<stop offset="0.742545" stop-color="#DBEDFF"/>
<stop offset="1" stop-color="#DBEDFF"/>
</radialGradient>
<radialGradient id="paint14_radial_3_7" cx="0" cy="0" r="1" gradientUnits="userSpaceOnUse" gradientTransform="translate(661.67 719.408) rotate(44.6925) scale(598.074 566.797)">
<stop stop-color="white"/>
<stop offset="0.742545" stop-color="#95C5FF"/>
<stop offset="1" stop-color="#95C5FF"/>
</radialGradient>
<linearGradient id="paint15_linear_3_7" x1="1727.7" y1="559.322" x2="1450.69" y2="559.322" gradientUnits="userSpaceOnUse">
<stop stop-color="#301A61"/>
<stop offset="1" stop-color="#240973"/>
</linearGradient>
<radialGradient id="paint16_radial_3_7" cx="0" cy="0" r="1" gradientUnits="userSpaceOnUse" gradientTransform="translate(1843.49 97.6755) rotate(111.387) scale(826.437 888.149)">
<stop stop-color="#A6BEFB"/>
<stop offset="0.984484" stop-color="#002BFF"/>
<stop offset="1" stop-color="#002BFF"/>
</radialGradient>
<linearGradient id="paint17_linear_3_7" x1="1673.31" y1="388.381" x2="1435.94" y2="947.108" gradientUnits="userSpaceOnUse">
<stop stop-color="#7797FF"/>
<stop offset="1" stop-color="#415FC6"/>
</linearGradient>
<linearGradient id="paint18_linear_3_7" x1="1421.41" y1="289.752" x2="1808.2" y2="1050.78" gradientUnits="userSpaceOnUse">
<stop stop-color="#FFE565"/>
<stop offset="0.901242" stop-color="#FF713E"/>
<stop offset="1" stop-color="#FF713E"/>
</linearGradient>
<linearGradient id="paint19_linear_3_7" x1="1683.17" y1="441.406" x2="1446.67" y2="441.406" gradientUnits="userSpaceOnUse">
<stop stop-color="#FFDD6D"/>
<stop offset="0.0987581" stop-color="#FFDD6D"/>
<stop offset="1" stop-color="#FF9D7C"/>
</linearGradient>
<linearGradient id="paint20_linear_3_7" x1="1530.39" y1="847.464" x2="1542.5" y2="875.968" gradientUnits="userSpaceOnUse">
<stop stop-color="#4D70DD"/>
<stop offset="1" stop-color="#213EA0"/>
</linearGradient>
<linearGradient id="paint21_linear_3_7" x1="1638.51" y1="361.1" x2="1279.98" y2="361.1" gradientUnits="userSpaceOnUse">
<stop stop-color="#301A61"/>
<stop offset="1" stop-color="#240973"/>
</linearGradient>
<radialGradient id="paint22_radial_3_7" cx="0" cy="0" r="1" gradientUnits="userSpaceOnUse" gradientTransform="translate(1677.52 205.127) rotate(110.855) scale(275.267 296.151)">
<stop stop-color="#A6BEFB"/>
<stop offset="0.984484" stop-color="#002BFF"/>
<stop offset="1" stop-color="#002BFF"/>
</radialGradient>
<radialGradient id="paint23_radial_3_7" cx="0" cy="0" r="1" gradientUnits="userSpaceOnUse" gradientTransform="translate(1569.84 304.099) rotate(120.479) scale(540.602 568.132)">
<stop stop-color="white"/>
<stop offset="0.742545" stop-color="#95C5FF"/>
<stop offset="1" stop-color="#95C5FF"/>
</radialGradient>
<linearGradient id="paint24_linear_3_7" x1="1551.25" y1="464.147" x2="1533.19" y2="262.147" gradientUnits="userSpaceOnUse">
<stop stop-color="#301A61"/>
<stop offset="1" stop-color="#240973"/>
</linearGradient>
<linearGradient id="paint25_linear_3_7" x1="1445.88" y1="419.151" x2="1478.37" y2="338.718" gradientUnits="userSpaceOnUse">
<stop stop-color="#FF7E00"/>
<stop offset="1" stop-color="#FFE600"/>
</linearGradient>
<linearGradient id="paint26_linear_3_7" x1="1383.38" y1="409.531" x2="1417.92" y2="341.902" gradientUnits="userSpaceOnUse">
<stop stop-color="#FF7E00"/>
<stop offset="1" stop-color="#FFE600"/>
</linearGradient>
<linearGradient id="paint27_linear_3_7" x1="1325.51" y1="420.282" x2="1362.63" y2="336.336" gradientUnits="userSpaceOnUse">
<stop stop-color="#FF7E00"/>
<stop offset="1" stop-color="#FFE600"/>
</linearGradient>
<linearGradient id="paint28_linear_3_7" x1="1283.7" y1="414.786" x2="1311.47" y2="345.544" gradientUnits="userSpaceOnUse">
<stop stop-color="#FF7E00"/>
<stop offset="1" stop-color="#FFE600"/>
</linearGradient>
<linearGradient id="paint29_linear_3_7" x1="1540.14" y1="577.001" x2="1630.12" y2="577.001" gradientUnits="userSpaceOnUse">
<stop stop-color="#301A61"/>
<stop offset="1" stop-color="#240973"/>
</linearGradient>
<linearGradient id="paint30_linear_3_7" x1="1578.17" y1="577.001" x2="1585.13" y2="577.001" gradientUnits="userSpaceOnUse">
<stop stop-color="#301A61"/>
<stop offset="1" stop-color="#240973"/>
</linearGradient>
<radialGradient id="paint31_radial_3_7" cx="0" cy="0" r="1" gradientUnits="userSpaceOnUse" gradientTransform="translate(1575.56 577.001) scale(58.8796 53.523)">
<stop stop-color="white"/>
<stop offset="0.742545" stop-color="#95C5FF"/>
<stop offset="1" stop-color="#95C5FF"/>
</radialGradient>
<linearGradient id="paint32_linear_3_7" x1="1527.61" y1="497.695" x2="1592.14" y2="626.853" gradientUnits="userSpaceOnUse">
<stop stop-color="#7797FF"/>
<stop offset="1" stop-color="#415FC6"/>
</linearGradient>
<linearGradient id="paint33_linear_3_7" x1="1447.42" y1="664.98" x2="1458.6" y2="664.98" gradientUnits="userSpaceOnUse">
<stop stop-color="#301A61"/>
<stop offset="1" stop-color="#240973"/>
</linearGradient>
<linearGradient id="paint34_linear_3_7" x1="1411.71" y1="664.983" x2="1503.24" y2="664.983" gradientUnits="userSpaceOnUse">
<stop stop-color="#301A61"/>
<stop offset="1" stop-color="#240973"/>
</linearGradient>
<linearGradient id="paint35_linear_3_7" x1="1401.8" y1="664.983" x2="1493.33" y2="664.983" gradientUnits="userSpaceOnUse">
<stop stop-color="#7797FF"/>
<stop offset="1" stop-color="#415FC6"/>
</linearGradient>
<radialGradient id="paint36_radial_3_7" cx="0" cy="0" r="1" gradientUnits="userSpaceOnUse" gradientTransform="translate(1408.14 578.591) rotate(77.4366) scale(122.737 187.192)">
<stop stop-color="white"/>
<stop offset="0.742545" stop-color="#95C5FF"/>
<stop offset="1" stop-color="#95C5FF"/>
</radialGradient>
<linearGradient id="paint37_linear_3_7" x1="1413.43" y1="670.078" x2="1435.3" y2="670.078" gradientUnits="userSpaceOnUse">
<stop stop-color="#7797FF"/>
<stop offset="1" stop-color="#415FC6"/>
</linearGradient>
<linearGradient id="paint38_linear_3_7" x1="1577.16" y1="792.187" x2="1657.82" y2="792.187" gradientUnits="userSpaceOnUse">
<stop stop-color="#301A61"/>
<stop offset="1" stop-color="#240973"/>
</linearGradient>
<linearGradient id="paint39_linear_3_7" x1="1607.1" y1="792.166" x2="1617.94" y2="792.166" gradientUnits="userSpaceOnUse">
<stop stop-color="#301A61"/>
<stop offset="1" stop-color="#240973"/>
</linearGradient>
<radialGradient id="paint40_radial_3_7" cx="0" cy="0" r="1" gradientUnits="userSpaceOnUse" gradientTransform="translate(1607.1 792.187) scale(40.3303 51.9416)">
<stop stop-color="white"/>
<stop offset="0.742545" stop-color="#95C5FF"/>
<stop offset="1" stop-color="#95C5FF"/>
</radialGradient>
<linearGradient id="paint41_linear_3_7" x1="1567.55" y1="726.772" x2="1620.77" y2="833.307" gradientUnits="userSpaceOnUse">
<stop stop-color="#7797FF"/>
<stop offset="1" stop-color="#415FC6"/>
</linearGradient>
<linearGradient id="paint42_linear_3_7" x1="1463.15" y1="201.456" x2="1552.89" y2="201.456" gradientUnits="userSpaceOnUse">
<stop stop-color="#301A61"/>
<stop offset="1" stop-color="#240973"/>
</linearGradient>
<linearGradient id="paint43_linear_3_7" x1="1498.45" y1="201.414" x2="1509.26" y2="201.414" gradientUnits="userSpaceOnUse">
<stop stop-color="#301A61"/>
<stop offset="1" stop-color="#240973"/>
</linearGradient>
<linearGradient id="paint44_linear_3_7" x1="1453.58" y1="201.456" x2="1543.32" y2="201.456" gradientUnits="userSpaceOnUse">
<stop stop-color="#7797FF"/>
<stop offset="1" stop-color="#415FC6"/>
</linearGradient>
<radialGradient id="paint45_radial_3_7" cx="0" cy="0" r="1" gradientUnits="userSpaceOnUse" gradientTransform="translate(1448.75 141.539) rotate(60.2719) scale(115.267 170.468)">
<stop stop-color="white"/>
<stop offset="0.742545" stop-color="#95C5FF"/>
<stop offset="1" stop-color="#95C5FF"/>
</radialGradient>
<linearGradient id="paint46_linear_3_7" x1="1471.57" y1="203.213" x2="1525.34" y2="203.213" gradientUnits="userSpaceOnUse">
<stop stop-color="#7797FF"/>
<stop offset="1" stop-color="#415FC6"/>
</linearGradient>
<linearGradient id="paint47_linear_3_7" x1="1343.72" y1="448.929" x2="1180.96" y2="448.929" gradientUnits="userSpaceOnUse">
<stop stop-color="#7797FF"/>
<stop offset="1" stop-color="#415FC6"/>
</linearGradient>
<linearGradient id="paint48_linear_3_7" x1="1343.72" y1="449.222" x2="1180.96" y2="449.222" gradientUnits="userSpaceOnUse">
<stop stop-color="#4D70DD"/>
<stop offset="1" stop-color="#213EA0"/>
</linearGradient>
<linearGradient id="paint49_linear_3_7" x1="1101.83" y1="814.541" x2="1265.27" y2="506.877" gradientUnits="userSpaceOnUse">
<stop stop-color="#FF9824"/>
<stop offset="1" stop-color="#FFDC49"/>
</linearGradient>
<linearGradient id="paint50_linear_3_7" x1="1101.83" y1="814.541" x2="1265.27" y2="506.877" gradientUnits="userSpaceOnUse">
<stop stop-color="#F4851F"/>
<stop offset="1" stop-color="#ECC240"/>
</linearGradient>
<linearGradient id="paint51_linear_3_7" x1="1059.77" y1="792.199" x2="1223.22" y2="484.535" gradientUnits="userSpaceOnUse">
<stop stop-color="#F4851F"/>
<stop offset="1" stop-color="#ECC240"/>
</linearGradient>
<linearGradient id="paint52_linear_3_7" x1="1060.92" y1="792.808" x2="1224.36" y2="485.144" gradientUnits="userSpaceOnUse">
<stop stop-color="#FF9824"/>
<stop offset="1" stop-color="#FFDC49"/>
</linearGradient>
<linearGradient id="paint53_linear_3_7" x1="1049.72" y1="790.493" x2="1207.81" y2="492.905" gradientUnits="userSpaceOnUse">
<stop stop-color="#F4851F"/>
<stop offset="1" stop-color="#ECC240"/>
</linearGradient>
<linearGradient id="paint54_linear_3_7" x1="1144.61" y1="837.268" x2="1308.05" y2="529.604" gradientUnits="userSpaceOnUse">
<stop stop-color="#FF9824"/>
<stop offset="1" stop-color="#FFDC49"/>
</linearGradient>
<linearGradient id="paint55_linear_3_7" x1="1237.2" y1="407.156" x2="1118.01" y2="515.43" gradientUnits="userSpaceOnUse">
<stop stop-color="#7797FF"/>
<stop offset="1" stop-color="#415FC6"/>
</linearGradient>
<linearGradient id="paint56_linear_3_7" x1="1228.79" y1="397.897" x2="1109.6" y2="506.171" gradientUnits="userSpaceOnUse">
<stop stop-color="#4D70DD"/>
<stop offset="1" stop-color="#213EA0"/>
</linearGradient>
<linearGradient id="paint57_linear_3_7" x1="1180.72" y1="346.073" x2="1146.55" y2="420.407" gradientUnits="userSpaceOnUse">
<stop stop-color="#4D70DD"/>
<stop offset="1" stop-color="#213EA0"/>
</linearGradient>
<linearGradient id="paint58_linear_3_7" x1="1193.78" y1="309.405" x2="1168.87" y2="309.405" gradientUnits="userSpaceOnUse">
<stop stop-color="#301A61"/>
<stop offset="1" stop-color="#240973"/>
</linearGradient>
<linearGradient id="paint59_linear_3_7" x1="1198.26" y1="300.106" x2="1121.46" y2="300.106" gradientUnits="userSpaceOnUse">
<stop stop-color="#301A61"/>
<stop offset="1" stop-color="#240973"/>
</linearGradient>
<radialGradient id="paint60_radial_3_7" cx="0" cy="0" r="1" gradientUnits="userSpaceOnUse" gradientTransform="translate(1211.09 250.144) rotate(122.656) scale(75.6957 79.0604)">
<stop stop-color="#00F1FA"/>
<stop offset="0.984484" stop-color="#008BFF"/>
<stop offset="1" stop-color="#008BFF"/>
</radialGradient>
<linearGradient id="paint61_linear_3_7" x1="1135.31" y1="282.579" x2="1129.59" y2="282.579" gradientUnits="userSpaceOnUse">
<stop stop-color="#301A61"/>
<stop offset="1" stop-color="#240973"/>
</linearGradient>
<linearGradient id="paint62_linear_3_7" x1="1212.38" y1="404.118" x2="1072.91" y2="478.414" gradientUnits="userSpaceOnUse">
<stop stop-color="#7797FF"/>
<stop offset="1" stop-color="#415FC6"/>
</linearGradient>
<linearGradient id="paint63_linear_3_7" x1="745.538" y1="734.679" x2="858.085" y2="734.679" gradientUnits="userSpaceOnUse">
<stop stop-color="#7797FF"/>
<stop offset="1" stop-color="#415FC6"/>
</linearGradient>
<radialGradient id="paint64_radial_3_7" cx="0" cy="0" r="1" gradientUnits="userSpaceOnUse" gradientTransform="translate(771.349 517.043) rotate(76.5274) scale(299.132 325.967)">
<stop stop-color="white"/>
<stop offset="0.742545" stop-color="#759AFF"/>
<stop offset="1" stop-color="#759AFF"/>
</radialGradient>
<radialGradient id="paint65_radial_3_7" cx="0" cy="0" r="1" gradientUnits="userSpaceOnUse" gradientTransform="translate(771.348 517.044) rotate(76.5274) scale(299.131 325.966)">
<stop stop-color="white"/>
<stop offset="0.742545" stop-color="#759AFF"/>
<stop offset="1" stop-color="#759AFF"/>
</radialGradient>
<radialGradient id="paint66_radial_3_7" cx="0" cy="0" r="1" gradientUnits="userSpaceOnUse" gradientTransform="translate(771.348 517.043) rotate(76.5275) scale(299.132 325.966)">
<stop stop-color="white"/>
<stop offset="0.742545" stop-color="#759AFF"/>
<stop offset="1" stop-color="#759AFF"/>
</radialGradient>
<radialGradient id="paint67_radial_3_7" cx="0" cy="0" r="1" gradientUnits="userSpaceOnUse" gradientTransform="translate(771.348 517.043) rotate(76.5274) scale(299.132 325.967)">
<stop stop-color="white"/>
<stop offset="0.742545" stop-color="#759AFF"/>
<stop offset="1" stop-color="#759AFF"/>
</radialGradient>
<radialGradient id="paint68_radial_3_7" cx="0" cy="0" r="1" gradientUnits="userSpaceOnUse" gradientTransform="translate(771.349 517.043) rotate(76.5273) scale(299.132 325.969)">
<stop stop-color="white"/>
<stop offset="0.742545" stop-color="#759AFF"/>
<stop offset="1" stop-color="#759AFF"/>
</radialGradient>
<radialGradient id="paint69_radial_3_7" cx="0" cy="0" r="1" gradientUnits="userSpaceOnUse" gradientTransform="translate(771.349 517.043) rotate(76.5274) scale(299.133 325.968)">
<stop stop-color="white"/>
<stop offset="0.742545" stop-color="#759AFF"/>
<stop offset="1" stop-color="#759AFF"/>
</radialGradient>
<radialGradient id="paint70_radial_3_7" cx="0" cy="0" r="1" gradientUnits="userSpaceOnUse" gradientTransform="translate(771.349 517.043) rotate(76.5274) scale(299.132 325.967)">
<stop stop-color="white"/>
<stop offset="0.742545" stop-color="#759AFF"/>
<stop offset="1" stop-color="#759AFF"/>
</radialGradient>
<linearGradient id="paint71_linear_3_7" x1="772.775" y1="686.992" x2="909.259" y2="729.411" gradientUnits="userSpaceOnUse">
<stop stop-color="#7797FF"/>
<stop offset="1" stop-color="#415FC6"/>
</linearGradient>
<radialGradient id="paint72_radial_3_7" cx="0" cy="0" r="1" gradientUnits="userSpaceOnUse" gradientTransform="translate(771.348 517.043) rotate(76.5274) scale(299.132 325.967)">
<stop stop-color="white"/>
<stop offset="0.742545" stop-color="#759AFF"/>
<stop offset="1" stop-color="#759AFF"/>
</radialGradient>
<radialGradient id="paint73_radial_3_7" cx="0" cy="0" r="1" gradientUnits="userSpaceOnUse" gradientTransform="translate(771.348 517.043) rotate(76.5274) scale(299.132 325.967)">
<stop stop-color="white"/>
<stop offset="0.742545" stop-color="#759AFF"/>
<stop offset="1" stop-color="#759AFF"/>
</radialGradient>
<radialGradient id="paint74_radial_3_7" cx="0" cy="0" r="1" gradientUnits="userSpaceOnUse" gradientTransform="translate(771.348 517.043) rotate(76.5273) scale(299.132 325.968)">
<stop stop-color="white"/>
<stop offset="0.742545" stop-color="#759AFF"/>
<stop offset="1" stop-color="#759AFF"/>
</radialGradient>
<radialGradient id="paint75_radial_3_7" cx="0" cy="0" r="1" gradientUnits="userSpaceOnUse" gradientTransform="translate(771.349 517.043) rotate(76.5274) scale(299.132 325.967)">
<stop stop-color="white"/>
<stop offset="0.742545" stop-color="#759AFF"/>
<stop offset="1" stop-color="#759AFF"/>
</radialGradient>
<radialGradient id="paint76_radial_3_7" cx="0" cy="0" r="1" gradientUnits="userSpaceOnUse" gradientTransform="translate(771.349 517.043) rotate(76.5274) scale(299.132 325.967)">
<stop stop-color="white"/>
<stop offset="0.742545" stop-color="#759AFF"/>
<stop offset="1" stop-color="#759AFF"/>
</radialGradient>
<radialGradient id="paint77_radial_3_7" cx="0" cy="0" r="1" gradientUnits="userSpaceOnUse" gradientTransform="translate(771.348 517.043) rotate(76.5274) scale(299.132 325.968)">
<stop stop-color="white"/>
<stop offset="0.742545" stop-color="#759AFF"/>
<stop offset="1" stop-color="#759AFF"/>
</radialGradient>
<radialGradient id="paint78_radial_3_7" cx="0" cy="0" r="1" gradientUnits="userSpaceOnUse" gradientTransform="translate(771.349 517.043) rotate(76.5274) scale(299.132 325.966)">
<stop stop-color="white"/>
<stop offset="0.742545" stop-color="#759AFF"/>
<stop offset="1" stop-color="#759AFF"/>
</radialGradient>
<linearGradient id="paint79_linear_3_7" x1="990.404" y1="734.679" x2="877.857" y2="734.679" gradientUnits="userSpaceOnUse">
<stop stop-color="#7797FF"/>
<stop offset="1" stop-color="#415FC6"/>
</linearGradient>
<radialGradient id="paint80_radial_3_7" cx="0" cy="0" r="1" gradientUnits="userSpaceOnUse" gradientTransform="translate(771.347 517.043) rotate(76.5274) scale(299.132 325.967)">
<stop stop-color="white"/>
<stop offset="0.742545" stop-color="#759AFF"/>
<stop offset="1" stop-color="#759AFF"/>
</radialGradient>
<radialGradient id="paint81_radial_3_7" cx="0" cy="0" r="1" gradientUnits="userSpaceOnUse" gradientTransform="translate(771.348 517.044) rotate(76.5273) scale(299.131 325.968)">
<stop stop-color="white"/>
<stop offset="0.742545" stop-color="#759AFF"/>
<stop offset="1" stop-color="#759AFF"/>
</radialGradient>
<radialGradient id="paint82_radial_3_7" cx="0" cy="0" r="1" gradientUnits="userSpaceOnUse" gradientTransform="translate(771.348 517.043) rotate(76.5275) scale(299.133 325.966)">
<stop stop-color="white"/>
<stop offset="0.742545" stop-color="#759AFF"/>
<stop offset="1" stop-color="#759AFF"/>
</radialGradient>
<radialGradient id="paint83_radial_3_7" cx="0" cy="0" r="1" gradientUnits="userSpaceOnUse" gradientTransform="translate(771.348 517.043) rotate(76.5274) scale(299.132 325.967)">
<stop stop-color="white"/>
<stop offset="0.742545" stop-color="#759AFF"/>
<stop offset="1" stop-color="#759AFF"/>
</radialGradient>
<radialGradient id="paint84_radial_3_7" cx="0" cy="0" r="1" gradientUnits="userSpaceOnUse" gradientTransform="translate(771.348 517.043) rotate(76.5274) scale(299.132 325.966)">
<stop stop-color="white"/>
<stop offset="0.742545" stop-color="#759AFF"/>
<stop offset="1" stop-color="#759AFF"/>
</radialGradient>
<radialGradient id="paint85_radial_3_7" cx="0" cy="0" r="1" gradientUnits="userSpaceOnUse" gradientTransform="translate(771.349 517.043) rotate(76.5274) scale(299.132 325.967)">
<stop stop-color="white"/>
<stop offset="0.742545" stop-color="#759AFF"/>
<stop offset="1" stop-color="#759AFF"/>
</radialGradient>
<radialGradient id="paint86_radial_3_7" cx="0" cy="0" r="1" gradientUnits="userSpaceOnUse" gradientTransform="translate(771.348 517.043) rotate(76.5273) scale(299.132 325.968)">
<stop stop-color="white"/>
<stop offset="0.742545" stop-color="#759AFF"/>
<stop offset="1" stop-color="#759AFF"/>
</radialGradient>
<linearGradient id="paint87_linear_3_7" x1="802.067" y1="871.22" x2="931.085" y2="871.22" gradientUnits="userSpaceOnUse">
<stop stop-color="#FFE565"/>
<stop offset="0.901242" stop-color="#FF713E"/>
<stop offset="1" stop-color="#FF713E"/>
</linearGradient>
<linearGradient id="paint88_linear_3_7" x1="791.686" y1="820.113" x2="941.467" y2="820.113" gradientUnits="userSpaceOnUse">
<stop stop-color="#FFE565"/>
<stop offset="0.901242" stop-color="#FF713E"/>
<stop offset="1" stop-color="#FF713E"/>
</linearGradient>
<linearGradient id="paint89_linear_3_7" x1="774.373" y1="689.817" x2="877.816" y2="887.56" gradientUnits="userSpaceOnUse">
<stop stop-color="#FFE565"/>
<stop offset="0.901242" stop-color="#FF713E"/>
<stop offset="1" stop-color="#FF713E"/>
</linearGradient>
<radialGradient id="paint90_radial_3_7" cx="0" cy="0" r="1" gradientUnits="userSpaceOnUse" gradientTransform="translate(1121.46 225.753) scale(15.6733 14.2474)">
<stop stop-color="white"/>
<stop offset="0.742545" stop-color="#95C5FF"/>
<stop offset="1" stop-color="#95C5FF"/>
</radialGradient>
<radialGradient id="paint91_radial_3_7" cx="0" cy="0" r="1" gradientUnits="userSpaceOnUse" gradientTransform="translate(1456.99 -56.5013) rotate(87.1082) scale(412.258 453.315)">
<stop stop-color="white"/>
<stop offset="0.742545" stop-color="#95C5FF"/>
<stop offset="1" stop-color="#95C5FF"/>
</radialGradient>
<radialGradient id="paint92_radial_3_7" cx="0" cy="0" r="1" gradientUnits="userSpaceOnUse" gradientTransform="translate(907.926 167.274) scale(15.6733 14.2474)">
<stop stop-color="white"/>
<stop offset="0.742545" stop-color="#95C5FF"/>
<stop offset="1" stop-color="#95C5FF"/>
</radialGradient>
<radialGradient id="paint93_radial_3_7" cx="0" cy="0" r="1" gradientUnits="userSpaceOnUse" gradientTransform="translate(872.524 428.802) scale(24.9207 22.6535)">
<stop stop-color="white"/>
<stop offset="0.742545" stop-color="#95C5FF"/>
<stop offset="1" stop-color="#95C5FF"/>
</radialGradient>
<radialGradient id="paint94_radial_3_7" cx="0" cy="0" r="1" gradientUnits="userSpaceOnUse" gradientTransform="translate(614.233 740.246) scale(14.8487 13.4978)">
<stop stop-color="white"/>
<stop offset="0.742545" stop-color="#95C5FF"/>
<stop offset="1" stop-color="#95C5FF"/>
</radialGradient>
<radialGradient id="paint95_radial_3_7" cx="0" cy="0" r="1" gradientUnits="userSpaceOnUse" gradientTransform="translate(1456.99 -56.5011) rotate(87.1082) scale(412.258 453.316)">
<stop stop-color="white"/>
<stop offset="0.742545" stop-color="#95C5FF"/>
<stop offset="1" stop-color="#95C5FF"/>
</radialGradient>
<clipPath id="clip0_3_7">
<rect width="1840" height="1000" fill="white"/>
</clipPath>
</defs>
</svg>
