<svg width="2000" height="1000" viewBox="0 0 2000 1000" fill="none" xmlns="http://www.w3.org/2000/svg">
<g clip-path="url(#clip0_0_1)">
<path d="M863.154 0.000644011C862.722 10.5946 863.445 21.2403 865.605 31.8239C872.471 65.4472 892.339 94.8987 921.11 117.998C969.6 156.926 1038.28 180.928 1069.62 234.086C1081.16 253.647 1085.32 275.197 1075.82 296.041C1066.84 315.75 1049.72 331.496 1034.87 347.979C1016.13 368.769 1001.63 390.588 999.747 417.447C997.862 444.271 1005.8 470.619 1014.71 496.077C1033 548.338 1057.39 601.584 1043.99 657.04C1043.52 658.977 1042.95 660.888 1042.4 662.807C1020.45 691.028 994.578 716.879 963.819 738.312C864.338 807.641 735.782 821.972 613.135 835.729C488.472 849.717 356.65 866.236 263.953 946.782C262.649 947.915 261.262 948.678 259.842 949.172C256.806 952.183 253.779 955.198 250.756 958.217H559.117H1953.61C1979.2 958.217 1999.94 940.316 1999.94 918.236V638.811V174.772C1999.94 130.907 1999.95 87.0412 2000 43.1834H1999.94V39.9814C1999.94 17.8986 1979.2 0.000644011 1953.61 0.000644011H863.154Z" fill="url(#paint0_radial_0_1)"/>
<path d="M974.323 4.94852e-05C971.098 17.285 970.562 34.8624 974.76 52.1163C981.428 79.4883 999.213 102.51 1023.21 120.985C1053.9 144.606 1091.36 161.268 1131.94 167.248C1178.22 174.068 1225.6 170.095 1272.14 174.681C1336.99 181.07 1390.4 207.04 1433.83 248.65C1476 289.06 1507.35 336.885 1549.99 376.957C1574.4 399.888 1601.82 420.848 1628.46 441.806C1658.37 465.342 1689.15 488.147 1721.62 509.029C1783.22 548.648 1852.47 583.88 1928.1 598.641C1951.62 603.232 1975.66 605.916 1999.94 606.982V174.772C1999.94 130.906 1999.95 87.0406 2000 43.1828H1999.94V39.9808C1999.94 17.898 1979.2 4.94852e-05 1953.61 4.94852e-05H974.323Z" fill="url(#paint1_radial_0_1)"/>
<path d="M132.867 86.6506V75.4506H138.339C139.747 75.4506 140.803 75.7173 141.507 76.2506C142.222 76.784 142.579 77.488 142.579 78.3626C142.579 78.9493 142.435 79.4613 142.147 79.8986C141.859 80.3253 141.464 80.656 140.963 80.8906C140.462 81.1253 139.886 81.2426 139.235 81.2426L139.539 80.5866C140.243 80.5866 140.867 80.704 141.411 80.9386C141.955 81.1626 142.376 81.4986 142.675 81.9466C142.984 82.3946 143.139 82.944 143.139 83.5946C143.139 84.5546 142.76 85.3066 142.003 85.8506C141.246 86.384 140.131 86.6506 138.659 86.6506H132.867ZM135.443 84.6986H138.467C139.139 84.6986 139.646 84.592 139.987 84.3786C140.339 84.1546 140.515 83.8026 140.515 83.3226C140.515 82.8533 140.339 82.5066 139.987 82.2826C139.646 82.048 139.139 81.9306 138.467 81.9306H135.251V80.0426H138.019C138.648 80.0426 139.128 79.936 139.459 79.7226C139.8 79.4986 139.971 79.1626 139.971 78.7146C139.971 78.2773 139.8 77.952 139.459 77.7386C139.128 77.5146 138.648 77.4026 138.019 77.4026H135.443V84.6986ZM145.101 86.6506V75.4506H147.693V86.6506H145.101ZM155.711 86.8426C154.847 86.8426 154.042 86.704 153.295 86.4266C152.559 86.1386 151.919 85.7333 151.375 85.2106C150.831 84.688 150.405 84.0746 150.095 83.3706C149.797 82.6666 149.647 81.8933 149.647 81.0506C149.647 80.208 149.797 79.4346 150.095 78.7306C150.405 78.0266 150.831 77.4133 151.375 76.8906C151.93 76.368 152.575 75.968 153.311 75.6906C154.047 75.4026 154.853 75.2586 155.727 75.2586C156.698 75.2586 157.573 75.4293 158.351 75.7706C159.141 76.1013 159.802 76.592 160.335 77.2426L158.671 78.7786C158.287 78.3413 157.861 78.016 157.391 77.8026C156.922 77.5786 156.41 77.4666 155.855 77.4666C155.333 77.4666 154.853 77.552 154.415 77.7226C153.978 77.8933 153.599 78.1386 153.279 78.4586C152.959 78.7786 152.709 79.1573 152.527 79.5946C152.357 80.032 152.271 80.5173 152.271 81.0506C152.271 81.584 152.357 82.0693 152.527 82.5066C152.709 82.944 152.959 83.3226 153.279 83.6426C153.599 83.9626 153.978 84.208 154.415 84.3786C154.853 84.5493 155.333 84.6346 155.855 84.6346C156.41 84.6346 156.922 84.528 157.391 84.3146C157.861 84.0906 158.287 83.7546 158.671 83.3066L160.335 84.8426C159.802 85.4933 159.141 85.9893 158.351 86.3306C157.573 86.672 156.693 86.8426 155.711 86.8426ZM164.776 86.6506V82.0746L165.368 83.6426L160.44 75.4506H163.192L166.968 81.7386H165.384L169.176 75.4506H171.72L166.792 83.6426L167.368 82.0746V86.6506H164.776ZM177.68 86.8426C176.816 86.8426 176.011 86.704 175.264 86.4266C174.528 86.1386 173.888 85.7333 173.344 85.2106C172.8 84.688 172.374 84.0746 172.064 83.3706C171.766 82.6666 171.616 81.8933 171.616 81.0506C171.616 80.208 171.766 79.4346 172.064 78.7306C172.374 78.0266 172.8 77.4133 173.344 76.8906C173.899 76.368 174.544 75.968 175.28 75.6906C176.016 75.4026 176.822 75.2586 177.696 75.2586C178.667 75.2586 179.542 75.4293 180.32 75.7706C181.11 76.1013 181.771 76.592 182.304 77.2426L180.64 78.7786C180.256 78.3413 179.83 78.016 179.36 77.8026C178.891 77.5786 178.379 77.4666 177.824 77.4666C177.302 77.4666 176.822 77.552 176.384 77.7226C175.947 77.8933 175.568 78.1386 175.248 78.4586C174.928 78.7786 174.678 79.1573 174.496 79.5946C174.326 80.032 174.24 80.5173 174.24 81.0506C174.24 81.584 174.326 82.0693 174.496 82.5066C174.678 82.944 174.928 83.3226 175.248 83.6426C175.568 83.9626 175.947 84.208 176.384 84.3786C176.822 84.5493 177.302 84.6346 177.824 84.6346C178.379 84.6346 178.891 84.528 179.36 84.3146C179.83 84.0906 180.256 83.7546 180.64 83.3066L182.304 84.8426C181.771 85.4933 181.11 85.9893 180.32 86.3306C179.542 86.672 178.662 86.8426 177.68 86.8426ZM184.055 86.6506V75.4506H186.647V84.5386H192.263V86.6506H184.055ZM196.095 79.9626H201.487V81.9786H196.095V79.9626ZM196.287 84.5706H202.383V86.6506H193.711V75.4506H202.175V77.5306H196.287V84.5706Z" fill="#2D47AF"/>
<path d="M159.666 634.768V628.292H162.09C162.639 628.292 163.111 628.382 163.506 628.561C163.9 628.733 164.202 628.986 164.412 629.319C164.628 629.646 164.736 630.044 164.736 630.512C164.736 630.969 164.628 631.364 164.412 631.697C164.202 632.023 163.9 632.276 163.506 632.455C163.111 632.628 162.639 632.714 162.09 632.714H160.046L160.351 632.4V634.768H159.666ZM164.088 634.768L162.423 632.418H163.163L164.838 634.768H164.088ZM160.351 632.455L160.046 632.131H162.072C162.719 632.131 163.209 631.989 163.543 631.706C163.882 631.422 164.051 631.024 164.051 630.512C164.051 629.994 163.882 629.594 163.543 629.31C163.209 629.026 162.719 628.884 162.072 628.884H160.046L160.351 628.561V632.455ZM166.962 631.188H170.385V631.771H166.962V631.188ZM167.036 634.176H170.931V634.768H166.352V628.292H170.792V628.884H167.036V634.176ZM171.504 634.768L174.464 628.292H175.139L178.1 634.768H177.378L174.658 628.69H174.936L172.216 634.768H171.504ZM172.669 633.038L172.873 632.483H176.638L176.841 633.038H172.669ZM179.171 634.768V628.292H181.807C182.498 628.292 183.102 628.431 183.62 628.709C184.145 628.98 184.552 629.359 184.842 629.846C185.131 630.334 185.276 630.895 185.276 631.53C185.276 632.165 185.131 632.726 184.842 633.214C184.552 633.701 184.145 634.083 183.62 634.361C183.102 634.632 182.498 634.768 181.807 634.768H179.171ZM179.855 634.176H181.77C182.344 634.176 182.84 634.065 183.26 633.843C183.685 633.615 184.015 633.303 184.249 632.908C184.484 632.508 184.601 632.048 184.601 631.53C184.601 631.006 184.484 630.546 184.249 630.152C184.015 629.757 183.685 629.449 183.26 629.227C182.84 628.998 182.344 628.884 181.77 628.884H179.855V634.176ZM189.235 634.768V628.292H189.799L192.759 633.343H192.463L195.396 628.292H195.96V634.768H195.303V629.319H195.46L192.759 633.945H192.435L189.716 629.319H189.891V634.768H189.235ZM200.901 634.823C200.413 634.823 199.96 634.743 199.541 634.583C199.128 634.416 198.767 634.185 198.458 633.889C198.156 633.587 197.919 633.238 197.746 632.844C197.58 632.443 197.496 632.005 197.496 631.53C197.496 631.055 197.58 630.62 197.746 630.226C197.919 629.825 198.156 629.476 198.458 629.18C198.767 628.878 199.128 628.647 199.541 628.487C199.954 628.32 200.407 628.237 200.901 628.237C201.388 628.237 201.838 628.32 202.251 628.487C202.664 628.647 203.022 628.875 203.324 629.171C203.633 629.467 203.87 629.816 204.037 630.216C204.209 630.617 204.296 631.055 204.296 631.53C204.296 632.005 204.209 632.443 204.037 632.844C203.87 633.245 203.633 633.593 203.324 633.889C203.022 634.185 202.664 634.416 202.251 634.583C201.838 634.743 201.388 634.823 200.901 634.823ZM200.901 634.213C201.289 634.213 201.647 634.148 201.974 634.019C202.307 633.883 202.594 633.695 202.834 633.454C203.081 633.208 203.272 632.924 203.408 632.603C203.543 632.276 203.611 631.919 203.611 631.53C203.611 631.142 203.543 630.787 203.408 630.466C203.272 630.139 203.081 629.856 202.834 629.615C202.594 629.368 202.307 629.18 201.974 629.051C201.647 628.915 201.289 628.847 200.901 628.847C200.512 628.847 200.151 628.915 199.818 629.051C199.485 629.18 199.195 629.368 198.949 629.615C198.708 629.856 198.517 630.139 198.375 630.466C198.24 630.787 198.172 631.142 198.172 631.53C198.172 631.912 198.24 632.267 198.375 632.594C198.517 632.921 198.708 633.208 198.949 633.454C199.195 633.695 199.485 633.883 199.818 634.019C200.151 634.148 200.512 634.213 200.901 634.213ZM205.83 634.768V628.292H208.254C208.803 628.292 209.274 628.382 209.669 628.561C210.064 628.733 210.366 628.986 210.576 629.319C210.792 629.646 210.9 630.044 210.9 630.512C210.9 630.969 210.792 631.364 210.576 631.697C210.366 632.023 210.064 632.276 209.669 632.455C209.274 632.628 208.803 632.714 208.254 632.714H206.209L206.515 632.4V634.768H205.83ZM210.252 634.768L208.587 632.418H209.327L211.001 634.768H210.252ZM206.515 632.455L206.209 632.131H208.235C208.883 632.131 209.373 631.989 209.706 631.706C210.045 631.422 210.215 631.024 210.215 630.512C210.215 629.994 210.045 629.594 209.706 629.31C209.373 629.026 208.883 628.884 208.235 628.884H206.209L206.515 628.561V632.455ZM213.126 631.188H216.549V631.771H213.126V631.188ZM213.2 634.176H217.094V634.768H212.515V628.292H216.956V628.884H213.2V634.176Z" fill="white"/>
<path d="M125.52 282.644V255.357H138.852C142.282 255.357 144.855 256.007 146.57 257.306C148.311 258.606 149.182 260.321 149.182 262.452C149.182 263.881 148.831 265.128 148.129 266.194C147.427 267.233 146.466 268.039 145.244 268.611C144.023 269.182 142.62 269.468 141.034 269.468L141.775 267.87C143.49 267.87 145.011 268.156 146.336 268.728C147.661 269.273 148.688 270.092 149.415 271.183C150.169 272.275 150.546 273.613 150.546 275.199C150.546 277.537 149.623 279.37 147.778 280.695C145.933 281.994 143.217 282.644 139.631 282.644H125.52ZM131.796 277.888H139.163C140.801 277.888 142.035 277.628 142.867 277.109C143.724 276.563 144.153 275.705 144.153 274.536C144.153 273.392 143.724 272.548 142.867 272.002C142.035 271.43 140.801 271.145 139.163 271.145H131.328V266.545H138.072C139.605 266.545 140.775 266.285 141.58 265.765C142.412 265.219 142.828 264.401 142.828 263.309C142.828 262.244 142.412 261.451 141.58 260.931C140.775 260.386 139.605 260.113 138.072 260.113H131.796V277.888ZM155.327 282.644V255.357H161.642V282.644H155.327ZM181.176 283.112C179.071 283.112 177.109 282.774 175.29 282.098C173.497 281.397 171.938 280.409 170.612 279.136C169.287 277.862 168.247 276.368 167.494 274.653C166.766 272.938 166.402 271.054 166.402 269.001C166.402 266.948 166.766 265.063 167.494 263.348C168.247 261.633 169.287 260.139 170.612 258.865C171.964 257.592 173.536 256.618 175.329 255.942C177.122 255.24 179.084 254.889 181.215 254.889C183.58 254.889 185.711 255.305 187.608 256.137C189.531 256.942 191.142 258.138 192.442 259.723L188.388 263.465C187.452 262.4 186.413 261.607 185.269 261.087C184.126 260.542 182.878 260.269 181.527 260.269C180.254 260.269 179.084 260.477 178.019 260.892C176.953 261.308 176.031 261.906 175.251 262.686C174.471 263.465 173.861 264.388 173.419 265.453C173.003 266.519 172.795 267.701 172.795 269.001C172.795 270.3 173.003 271.482 173.419 272.548C173.861 273.613 174.471 274.536 175.251 275.315C176.031 276.095 176.953 276.693 178.019 277.109C179.084 277.524 180.254 277.732 181.527 277.732C182.878 277.732 184.126 277.472 185.269 276.953C186.413 276.407 187.452 275.588 188.388 274.497L192.442 278.239C191.142 279.824 189.531 281.033 187.608 281.864C185.711 282.696 183.567 283.112 181.176 283.112ZM203.26 282.644V271.495L204.703 275.315L192.697 255.357H199.401L208.601 270.677H204.742L213.98 255.357H220.178L208.172 275.315L209.575 271.495V282.644H203.26ZM234.699 283.112C232.594 283.112 230.632 282.774 228.813 282.098C227.02 281.397 225.46 280.409 224.135 279.136C222.81 277.862 221.77 276.368 221.017 274.653C220.289 272.938 219.925 271.054 219.925 269.001C219.925 266.948 220.289 265.063 221.017 263.348C221.77 261.633 222.81 260.139 224.135 258.865C225.486 257.592 227.059 256.618 228.852 255.942C230.645 255.24 232.607 254.889 234.738 254.889C237.103 254.889 239.234 255.305 241.131 256.137C243.054 256.942 244.665 258.138 245.964 259.723L241.91 263.465C240.975 262.4 239.935 261.607 238.792 261.087C237.649 260.542 236.401 260.269 235.05 260.269C233.776 260.269 232.607 260.477 231.542 260.892C230.476 261.308 229.553 261.906 228.774 262.686C227.994 263.465 227.384 264.388 226.942 265.453C226.526 266.519 226.318 267.701 226.318 269.001C226.318 270.3 226.526 271.482 226.942 272.548C227.384 273.613 227.994 274.536 228.774 275.315C229.553 276.095 230.476 276.693 231.542 277.109C232.607 277.524 233.776 277.732 235.05 277.732C236.401 277.732 237.649 277.472 238.792 276.953C239.935 276.407 240.975 275.588 241.91 274.497L245.964 278.239C244.665 279.824 243.054 281.033 241.131 281.864C239.234 282.696 237.09 283.112 234.699 283.112ZM250.229 282.644V255.357H256.544V277.498H270.226V282.644H250.229ZM279.563 266.35H292.699V271.261H279.563V266.35ZM280.031 277.576H294.882V282.644H273.755V255.357H294.376V260.425H280.031V277.576Z" fill="#2D47AF"/>
<path d="M122.151 426.422H768.801" stroke="#2D47AF" stroke-width="1.32933" stroke-miterlimit="10"/>
<path d="M961.437 689.509C902.893 699.379 996.966 835.525 996.966 835.525C933.283 763.333 849.95 751.353 860.217 786.792C870.493 822.228 962.174 855.141 962.174 855.141H1059.41C1122.58 813.238 1144.78 759.123 1106.52 755.683C1068.26 752.245 1051.72 822.484 1051.72 822.484C1051.72 822.484 1022.06 689.018 967.211 689.02C965.314 689.02 963.391 689.181 961.437 689.509" fill="url(#paint2_radial_0_1)"/>
<path d="M1027.07 849.583C1027.07 849.583 1016.12 770.159 959.088 693.743" stroke="url(#paint3_radial_0_1)" stroke-width="0.933333" stroke-miterlimit="10" stroke-linecap="round" stroke-linejoin="round"/>
<path d="M996.967 847.506C996.967 847.506 913.563 812.613 875.999 770.16" stroke="url(#paint4_radial_0_1)" stroke-width="0.933333" stroke-miterlimit="10" stroke-linecap="round" stroke-linejoin="round"/>
<path d="M1106.52 765.044C1106.52 765.044 1078.18 836.37 1036.94 847.507" stroke="url(#paint5_radial_0_1)" stroke-width="0.933333" stroke-miterlimit="10" stroke-linecap="round" stroke-linejoin="round"/>
<path d="M1102.15 528.748C1071.4 541.879 1068.27 587.956 1086.47 617.103C1110.12 654.983 1136.86 665.825 1117.47 665.544C1034.92 664.356 1044.73 722.923 1137.74 733.214C1244.37 745.016 1192.21 782.993 1164.82 787.645C1110.48 796.879 1128.57 819.963 1169.94 827.052C1241.48 839.312 1372.05 830.986 1372.05 830.986C1260.17 804.799 1367.91 628.364 1333.48 619.849C1317.19 615.82 1300.38 637.421 1285.12 659.023C1268.14 683.051 1253.08 707.084 1242.74 695.823C1233.53 685.793 1308.5 573.496 1262.29 563.939C1244.26 560.212 1232.87 573.77 1222.67 587.333C1212.88 600.366 1204.17 613.399 1191.72 611.079C1168.33 606.726 1166.96 524.106 1122.18 524.113C1116.3 524.113 1109.67 525.536 1102.15 528.748" fill="url(#paint6_radial_0_1)"/>
<path d="M1339.43 826.115C1268.5 801.648 1278.2 756.303 1195.88 696.559C1127.82 647.166 1109.84 591.173 1115.34 527.059" stroke="url(#paint7_radial_0_1)" stroke-width="0.933333" stroke-miterlimit="10" stroke-linecap="round" stroke-linejoin="round"/>
<path d="M1434.64 794.753C1434.64 794.753 1418.1 724.511 1379.84 727.954C1341.58 731.394 1363.79 785.507 1426.96 827.406H1524.19C1524.19 827.406 1615.87 794.494 1626.15 759.058C1636.41 723.624 1557.89 727.548 1494.2 799.737C1494.2 799.737 1589.37 677.325 1530.83 667.455C1528.79 667.114 1526.79 666.948 1524.8 666.948C1469.71 666.945 1434.64 794.753 1434.64 794.753Z" fill="url(#paint8_radial_0_1)"/>
<path d="M1459.29 821.849C1459.29 821.849 1474.89 736.053 1533.18 671.687" stroke="url(#paint9_radial_0_1)" stroke-width="0.933333" stroke-miterlimit="10" stroke-linecap="round" stroke-linejoin="round"/>
<path d="M1489.4 819.776C1489.4 819.776 1564.7 760.705 1610.36 749.811" stroke="url(#paint10_radial_0_1)" stroke-width="0.933333" stroke-miterlimit="10" stroke-linecap="round" stroke-linejoin="round"/>
<path d="M1379.84 737.314C1379.84 737.314 1408.18 808.639 1449.42 819.776" stroke="url(#paint11_radial_0_1)" stroke-width="0.933333" stroke-miterlimit="10" stroke-linecap="round" stroke-linejoin="round"/>
<path d="M1902.02 615.261C1889.75 617.545 1890.16 598.754 1888.74 579.964C1887.21 559.806 1883.58 539.647 1859.95 545.505C1814.29 556.831 1876.77 654.973 1864.39 680.082C1857.81 693.451 1852.45 668.176 1843.69 642.899C1835.98 620.7 1825.65 598.504 1809.56 602.481C1775.12 610.996 1846.96 789.06 1735.09 815.248C1735.09 815.248 1865.65 823.573 1937.19 811.314C1978.56 804.224 1996.65 781.143 1942.31 771.907C1914.92 767.252 1869.07 750.836 1969.39 717.476C1980.98 713.622 1991.18 709.393 1999.94 705.017V657.321C1995.22 657.968 1990.06 658.909 1984.44 660.171C1953.07 667.235 1976.47 651.574 1999.94 627.083V511.127C1995.41 509.684 1991.15 509.016 1987.15 509.014C1937.68 509.001 1925.85 610.825 1902.02 615.261" fill="url(#paint12_radial_0_1)"/>
<path d="M1767.7 810.377C1838.64 785.91 1828.94 740.565 1911.25 680.821C1979.31 631.429 2003.78 588.882 1998.29 524.768" stroke="url(#paint13_radial_0_1)" stroke-width="0.933333" stroke-miterlimit="10" stroke-linecap="round" stroke-linejoin="round"/>
<path d="M900.181 881.411C900.181 916.428 1141.89 944.811 1440.06 944.811C1738.23 944.811 1979.94 916.428 1979.94 881.411C1979.94 846.393 1738.23 818.01 1440.06 818.01C1141.89 818.01 900.181 846.393 900.181 881.411Z" fill="url(#paint14_radial_0_1)"/>
<path d="M1827.32 192.486V198.756L1629.32 265.004C1620.13 268.077 1614.08 275.707 1614.08 284.211V819.619C1614.08 828.123 1620.13 835.753 1629.32 838.828L1827.32 905.076V911.346H1849.9V911.31C1862.76 911.584 1874.33 902.718 1874.33 890.724V213.102C1874.33 201.112 1862.76 192.248 1849.9 192.52V192.486H1827.32Z" fill="url(#paint15_linear_0_1)"/>
<path d="M1827.32 192.486V198.756L1629.32 265.004C1620.13 268.077 1614.08 275.707 1614.08 284.211V819.619C1614.08 828.123 1620.13 835.753 1629.32 838.828L1827.32 905.076V911.346H1849.9V911.31C1862.76 911.584 1874.33 902.718 1874.33 890.724V213.102C1874.33 201.112 1862.76 192.248 1849.9 192.52V192.486H1827.32Z" fill="url(#paint16_radial_0_1)"/>
<path d="M1819.03 193.896L1606.51 265.004C1597.33 268.077 1591.27 275.707 1591.27 284.211V819.619C1591.27 828.123 1597.33 835.753 1606.51 838.828L1819.03 909.934C1834.67 915.169 1851.52 905.206 1851.52 890.724V213.103C1851.52 201.29 1840.3 192.486 1827.67 192.484C1824.83 192.484 1821.91 192.934 1819.03 193.896Z" fill="url(#paint17_linear_0_1)"/>
<path d="M1826.03 216.354L1613.45 281.112C1611.57 281.684 1610.3 283.215 1610.3 284.919V818.913C1610.3 820.617 1611.57 822.146 1613.45 822.717L1826.03 887.476C1826.62 887.659 1827.19 887.74 1827.77 887.722C1829.67 887.665 1832.49 886.283 1832.49 883.488V220.344C1832.49 217.546 1829.67 216.165 1827.77 216.108C1827.72 216.108 1827.67 216.105 1827.62 216.105C1827.09 216.105 1826.57 216.185 1826.03 216.354" fill="url(#paint18_linear_0_1)"/>
<path d="M1826.03 216.354L1749.27 239.735C1692.53 304.351 1798.91 389.959 1790.54 490.754C1786.15 543.439 1735.72 637.075 1610.3 623.37V669.534C1732.9 693.715 1808.68 657.032 1832.49 625.369V220.345C1832.49 217.546 1829.67 216.165 1827.77 216.108C1827.72 216.108 1827.67 216.105 1827.62 216.105C1827.09 216.105 1826.57 216.186 1826.03 216.354Z" fill="url(#paint19_linear_0_1)"/>
<g opacity="0.559998">
<path d="M1610.31 772.382V818.911C1610.31 820.616 1611.57 822.144 1613.45 822.718L1826.02 887.477C1826.62 887.658 1827.19 887.741 1827.77 887.723C1829.67 887.666 1832.49 886.282 1832.49 883.486V796.994L1610.31 772.382Z" fill="#FFFFFD"/>
</g>
<g opacity="0.330002">
<path d="M1550.65 477.469L1779.48 483.591C1794.84 484.002 1808.22 470.796 1808.22 455.145V364.885C1808.22 349.232 1794.84 338.289 1779.48 341.297L1550.65 386.091C1538.36 388.499 1529.02 400.223 1529.02 413.207V454.007C1529.02 466.991 1538.36 477.14 1550.65 477.469Z" fill="#606060"/>
</g>
<g opacity="0.330002">
<path d="M1726.37 240.859C1726.37 269.076 1707.49 291.951 1684.22 291.951C1660.93 291.951 1642.06 269.076 1642.06 240.859C1642.06 212.641 1660.93 189.767 1684.22 189.767C1707.49 189.767 1726.37 212.641 1726.37 240.859Z" fill="#606060"/>
</g>
<g opacity="0.330002">
<path d="M1681.38 658.572C1681.38 687.509 1659.9 710.97 1633.41 710.97C1606.92 710.97 1585.44 687.509 1585.44 658.572C1585.44 629.635 1606.92 606.176 1633.41 606.176C1659.9 606.176 1681.38 629.635 1681.38 658.572Z" fill="#606060"/>
</g>
<g opacity="0.330002">
<path d="M1824.21 772.637C1824.21 799.393 1806.48 821.083 1784.59 821.083C1762.71 821.083 1744.97 799.393 1744.97 772.637C1744.97 745.878 1762.71 724.188 1784.59 724.188C1806.48 724.188 1824.21 745.878 1824.21 772.637Z" fill="#606060"/>
</g>
<g opacity="0.330002">
<path d="M1808.38 582.351C1808.38 613.729 1789.46 639.167 1766.11 639.167C1742.77 639.167 1723.85 613.729 1723.85 582.351C1723.85 550.973 1742.77 525.535 1766.11 525.535C1789.46 525.535 1808.38 550.973 1808.38 582.351Z" fill="#606060"/>
</g>
<path d="M1684.9 815.553C1684.9 825.805 1688.32 834.115 1692.53 834.115C1696.75 834.115 1700.17 825.805 1700.17 815.553C1700.17 805.303 1696.75 796.995 1692.53 796.995C1688.32 796.995 1684.9 805.303 1684.9 815.553" fill="url(#paint20_linear_0_1)"/>
<path d="M1757.11 289.174L1480.78 345.501C1465.42 348.635 1453.7 363.466 1453.7 379.784V431.064C1453.7 447.385 1465.42 459.895 1480.78 459.986L1757.11 461.636C1775.01 461.744 1790.54 445.466 1790.54 426.574V317.622C1790.54 300.854 1778.31 288.566 1763.04 288.566C1761.1 288.566 1759.12 288.763 1757.11 289.174" fill="url(#paint21_linear_0_1)"/>
<path d="M1757.11 289.174L1480.78 345.501C1465.42 348.635 1453.7 363.466 1453.7 379.784V431.064C1453.7 447.385 1465.42 459.895 1480.78 459.986L1757.11 461.636C1775.01 461.744 1790.54 445.466 1790.54 426.574V317.622C1790.54 300.854 1778.31 288.566 1763.04 288.566C1761.1 288.566 1759.12 288.763 1757.11 289.174" fill="url(#paint22_radial_0_1)"/>
<path d="M1742.54 289.174L1466.42 345.483C1451.06 348.615 1439.35 363.437 1439.35 379.75V431.013C1439.35 447.325 1451.06 459.833 1466.42 459.926L1742.54 461.574C1760.43 461.68 1775.94 445.408 1775.94 426.523V317.611C1775.94 300.851 1763.72 288.568 1748.47 288.566C1746.54 288.566 1744.55 288.762 1742.54 289.174Z" fill="url(#paint23_radial_0_1)"/>
<path d="M1704.04 344.611L1698.18 360.794C1697.64 362.284 1696.57 363.399 1695.33 363.753L1682.24 367.485C1679.28 368.331 1678.1 373.139 1680.26 375.54L1689.74 386.087C1690.64 387.083 1691.04 388.627 1690.82 390.186L1688.4 406.889C1687.84 410.735 1691.02 413.482 1693.72 411.467L1705.64 402.573C1706.77 401.73 1708.14 401.634 1709.27 402.322L1721.68 409.83C1724.61 411.597 1728.09 408.325 1727.48 404.355L1724.82 387.248C1724.58 385.663 1725.02 383.974 1725.99 382.758L1736.67 369.511C1739.17 366.402 1737.8 361.511 1734.39 361.374L1719.97 360.794C1718.65 360.745 1717.52 359.868 1716.95 358.477L1710.9 343.628C1710.28 342.118 1709.12 341.399 1707.91 341.399C1706.4 341.399 1704.8 342.516 1704.04 344.611" fill="url(#paint24_linear_0_1)"/>
<path d="M1624.61 355.303L1619.85 369.818C1619.52 370.822 1618.97 371.318 1618.67 371.409L1608.02 374.639C1606.54 375.087 1605.38 376.258 1604.75 377.94C1603.92 380.164 1604.21 382.647 1605.51 384.261L1613.24 393.867C1613.72 394.454 1613.94 395.494 1613.81 396.508L1611.84 411.568C1611.57 413.63 1612.17 415.598 1613.45 416.834C1614.28 417.628 1615.33 418.063 1616.42 418.063C1617.12 418.063 1618.17 417.884 1619.21 417.031L1628.9 409.08C1629.01 408.984 1629.12 408.933 1629.25 408.933C1629.31 408.933 1629.38 408.946 1629.47 408.974L1639.51 415.8C1640.27 416.314 1641.14 416.586 1642.03 416.586C1643.22 416.586 1644.38 416.094 1645.3 415.2C1646.73 413.805 1647.41 411.674 1647.11 409.502L1644.97 394.115C1644.82 393.042 1645.08 391.891 1645.65 391.11L1654.25 379.313C1655.82 377.159 1656 374.12 1654.7 371.918C1653.89 370.535 1652.54 369.689 1651 369.601L1639.37 368.926C1639.22 368.916 1638.8 368.647 1638.53 367.897L1633.64 354.465C1632.92 352.5 1631.35 351.326 1629.45 351.326C1627.3 351.326 1625.4 352.888 1624.61 355.303" fill="url(#paint25_linear_0_1)"/>
<path d="M1629.45 349.764C1626.47 349.764 1623.89 351.771 1622.87 354.88L1618.11 369.393C1618.01 369.706 1617.88 369.91 1617.8 370.016L1607.42 373.166C1605.39 373.779 1603.84 375.303 1603.03 377.457C1602.03 380.131 1602.42 383.152 1604.03 385.152L1611.76 394.758C1611.89 394.918 1612.11 395.51 1612.01 396.333L1610.04 411.391C1609.71 413.887 1610.48 416.31 1612.1 417.872C1613.27 419.003 1614.81 419.626 1616.42 419.626C1617.45 419.626 1618.99 419.373 1620.46 418.162L1629.34 410.871L1638.39 417.027C1639.47 417.759 1640.73 418.147 1642.03 418.147C1643.75 418.147 1645.39 417.466 1646.66 416.235C1648.43 414.513 1649.27 411.926 1648.9 409.314L1646.76 393.93C1646.65 393.107 1646.89 392.339 1647.18 391.941L1655.78 380.147C1657.67 377.55 1657.89 373.875 1656.32 371.208C1655.2 369.323 1653.31 368.169 1651.12 368.043L1640.25 367.411L1635.36 353.998C1634.22 350.877 1631.56 349.764 1629.45 349.764ZM1629.45 352.889C1630.45 352.889 1631.4 353.548 1631.91 354.935L1636.8 368.366C1637.26 369.623 1638.18 370.422 1639.25 370.484L1650.88 371.159C1653.62 371.317 1654.73 375.719 1652.71 378.484L1644.12 390.278C1643.33 391.362 1642.97 392.875 1643.17 394.302L1645.31 409.686C1645.71 412.565 1643.96 415.022 1642.03 415.022C1641.56 415.022 1641.09 414.882 1640.63 414.572L1630.59 407.747C1630.18 407.467 1629.73 407.328 1629.27 407.328C1628.72 407.328 1628.15 407.534 1627.65 407.951L1617.96 415.899C1617.46 416.313 1616.93 416.502 1616.42 416.502C1614.74 416.502 1613.28 414.409 1613.63 411.743L1615.61 396.682C1615.79 395.277 1615.46 393.881 1614.73 392.978L1607 383.37C1605.24 381.179 1606.2 376.844 1608.61 376.112L1619.27 372.882C1620.28 372.577 1621.15 371.583 1621.59 370.241L1626.35 355.731C1626.96 353.872 1628.24 352.889 1629.45 352.889" fill="white"/>
<path d="M1560.93 364.452L1557 377.603C1556.75 378.436 1556.34 378.855 1556.19 378.915L1547.34 381.755C1546.11 382.153 1545.12 383.159 1544.56 384.587C1543.88 386.307 1543.79 388.849 1545.1 390.652L1551.52 399.469C1551.82 399.875 1552.12 400.744 1551.98 401.861L1550.35 415.572C1550.11 417.566 1550.68 419.433 1551.87 420.574C1552.59 421.265 1553.52 421.642 1554.47 421.642C1555.12 421.642 1556.1 421.466 1557.04 420.623L1565.01 413.363L1573.3 419.617C1573.99 420.142 1574.8 420.419 1575.65 420.422C1576.67 420.422 1577.67 420.002 1578.45 419.245C1579.76 417.993 1580.4 415.932 1580.14 413.865L1578.38 399.885C1578.26 398.916 1578.47 397.878 1578.92 397.185L1586 386.558C1587.36 384.52 1587.46 381.584 1586.25 379.579C1585.53 378.382 1584.4 377.668 1583.08 377.567L1573.59 376.859C1573.52 376.822 1573.26 376.59 1573.07 376.018L1569.03 363.758C1568.4 361.865 1566.98 360.732 1565.23 360.732C1563.27 360.732 1561.62 362.16 1560.93 364.452" fill="url(#paint26_linear_0_1)"/>
<path d="M1565.23 359.171C1562.45 359.171 1560.07 361.093 1559.18 364.062L1555.24 377.217C1555.2 377.382 1555.14 377.509 1555.09 377.599L1546.71 380.292C1544.96 380.856 1543.58 382.206 1542.84 384.089C1542.09 386.008 1541.83 389.096 1543.57 391.486L1550 400.303C1550.09 400.44 1550.27 400.983 1550.18 401.705L1548.55 415.413C1548.26 417.836 1549 420.159 1550.53 421.62C1551.6 422.642 1553 423.206 1554.47 423.206C1555.89 423.206 1557.27 422.675 1558.35 421.708L1565.19 415.578L1572.11 420.795C1573.14 421.571 1574.36 421.982 1575.65 421.982C1577.19 421.982 1578.67 421.38 1579.8 420.288C1581.46 418.692 1582.26 416.227 1581.94 413.693L1580.18 399.716C1580.08 398.981 1580.28 398.293 1580.5 397.965L1587.57 387.337C1589.24 384.831 1589.35 381.344 1587.85 378.859C1586.85 377.196 1585.17 376.159 1583.24 376.011L1574.74 375.365L1570.77 363.33C1569.75 360.263 1567.24 359.171 1565.23 359.171ZM1565.23 362.296C1566.06 362.296 1566.86 362.909 1567.29 364.186L1571.33 376.446C1571.71 377.592 1572.47 378.329 1573.35 378.393L1582.93 379.123C1585.18 379.296 1586.09 383.295 1584.43 385.78L1577.36 396.408C1576.71 397.385 1576.42 398.759 1576.58 400.055L1578.34 414.032C1578.67 416.641 1577.23 418.86 1575.65 418.86C1575.26 418.86 1574.87 418.728 1574.49 418.441L1566.2 412.187C1565.85 411.929 1565.48 411.799 1565.1 411.799C1564.64 411.799 1564.18 411.986 1563.76 412.356L1555.74 419.541C1555.32 419.913 1554.89 420.081 1554.47 420.081C1553.07 420.081 1551.86 418.165 1552.15 415.733L1553.78 402.023C1553.94 400.745 1553.66 399.47 1553.06 398.64L1546.63 389.82C1545.17 387.811 1545.97 383.864 1547.98 383.22L1556.83 380.377C1557.66 380.108 1558.38 379.213 1558.75 377.998L1562.69 364.843C1563.19 363.175 1564.23 362.296 1565.23 362.296" fill="white"/>
<path d="M1507.81 372.086L1504.49 384.118C1504.3 384.835 1503.99 385.158 1503.97 385.189L1496.5 387.719C1495.43 388.083 1494.59 388.939 1494.08 390.194C1493.45 391.761 1493.29 394.249 1494.46 396.008L1499.89 404.16C1500.15 404.556 1500.37 405.381 1500.27 406.343L1498.89 418.924C1498.67 420.853 1499.21 422.635 1500.33 423.688C1500.97 424.301 1501.8 424.64 1502.65 424.64C1503.28 424.64 1504.21 424.461 1505.07 423.621L1511.48 417.193L1518.23 422.785C1519.04 423.466 1519.89 423.608 1520.46 423.61C1521.36 423.61 1522.24 423.246 1522.93 422.584C1524.14 421.435 1524.74 419.482 1524.51 417.486L1523.03 404.68C1522.93 403.809 1523.11 402.847 1523.49 402.231L1529.41 392.566C1530.59 390.634 1530.63 387.794 1529.51 385.96C1528.87 384.918 1527.89 384.281 1526.74 384.178L1518.97 383.495C1518.91 383.451 1518.72 383.239 1518.58 382.776L1515.18 371.502C1514.37 368.786 1512.31 368.577 1511.69 368.577C1510.28 368.577 1508.52 369.5 1507.81 372.086" fill="url(#paint27_linear_0_1)"/>
<path d="M1511.69 367.015C1509.59 367.015 1507.01 368.251 1506.05 371.724L1502.73 383.751C1502.71 383.829 1502.69 383.896 1502.67 383.95L1495.85 386.265C1494.75 386.638 1493.25 387.535 1492.38 389.674C1491.58 391.632 1491.44 394.588 1492.9 396.784L1498.32 404.934C1498.39 405.055 1498.53 405.555 1498.47 406.196L1497.09 418.776C1496.83 421.135 1497.54 423.365 1498.99 424.738C1499.98 425.682 1501.28 426.199 1502.65 426.199C1504.06 426.199 1505.4 425.654 1506.42 424.66L1511.7 419.542L1516.97 423.916C1517.95 424.725 1519.19 425.17 1520.46 425.17C1521.88 425.17 1523.24 424.624 1524.28 423.631C1525.84 422.146 1526.6 419.79 1526.31 417.333L1524.83 404.525C1524.76 403.889 1524.91 403.258 1525.09 402.963L1531.01 393.292C1532.47 390.905 1532.51 387.512 1531.11 385.228C1530.19 383.736 1528.67 382.786 1526.94 382.624L1520.22 381.992L1516.94 371.109C1516.03 368.09 1513.63 367.015 1511.69 367.015ZM1511.69 370.139C1512.4 370.139 1513.08 370.708 1513.43 371.895L1516.83 383.169C1517.15 384.225 1517.79 384.905 1518.52 384.975L1526.55 385.73C1528.44 385.908 1529.2 389.573 1527.81 391.834L1521.88 401.502C1521.34 402.394 1521.1 403.648 1521.23 404.836L1522.71 417.641C1522.99 420.026 1521.79 422.048 1520.46 422.048C1520.13 422.048 1519.8 421.927 1519.48 421.66L1512.52 415.89C1512.23 415.647 1511.91 415.528 1511.58 415.528C1511.2 415.528 1510.82 415.696 1510.47 416.032L1503.72 422.584C1503.37 422.922 1503.01 423.075 1502.65 423.075C1501.47 423.075 1500.44 421.308 1500.69 419.069L1502.07 406.491C1502.2 405.317 1501.97 404.145 1501.46 403.379L1496.03 395.23C1494.79 393.367 1495.47 389.749 1497.17 389.172L1504.63 386.64C1505.34 386.402 1505.95 385.588 1506.25 384.475L1509.57 372.449C1509.99 370.933 1510.86 370.139 1511.69 370.139" fill="white"/>
<path d="M1462.81 378.553L1459.98 389.633C1459.83 390.207 1459.61 390.504 1459.66 390.515L1453.29 392.791C1452.35 393.127 1451.61 393.885 1451.15 394.982C1450.54 396.458 1450.36 398.835 1451.41 400.558L1456.05 408.136C1456.27 408.501 1456.46 409.264 1456.37 410.146L1455.19 421.769C1455 423.636 1455.51 425.338 1456.55 426.319C1457.14 426.875 1457.89 427.18 1458.68 427.18C1459.53 427.18 1460.35 426.815 1460.98 426.161L1466.32 420.584L1471.71 425.46C1472.48 426.158 1473.3 426.303 1473.85 426.303C1474.67 426.303 1475.47 425.977 1476.09 425.39C1477.2 424.332 1477.77 422.478 1477.57 420.546L1476.31 408.728C1476.22 407.929 1476.37 407.047 1476.68 406.489L1481.72 397.62C1482.78 395.752 1482.77 393.057 1481.71 391.353C1481.14 390.432 1480.27 389.863 1479.26 389.752L1472.74 389.02C1472.68 388.916 1472.59 388.748 1472.52 388.492L1469.63 378.051C1468.9 375.418 1466.95 375.214 1466.37 375.214C1464.67 375.214 1463.34 376.46 1462.81 378.553" fill="url(#paint28_linear_0_1)"/>
<path d="M1466.37 373.654C1464.36 373.654 1461.9 374.851 1461.04 378.216L1458.21 389.294C1458.2 389.314 1458.2 389.333 1458.2 389.348L1452.6 391.347C1451.61 391.702 1450.26 392.527 1449.45 394.448C1448.68 396.3 1448.49 399.132 1449.81 401.287L1454.45 408.863C1454.51 408.976 1454.62 409.424 1454.57 410.011L1453.39 421.634C1453.16 423.931 1453.84 426.078 1455.21 427.376C1456.15 428.255 1457.38 428.742 1458.68 428.742C1460.08 428.742 1461.39 428.178 1462.37 427.156L1466.41 422.933L1470.4 426.538C1471.35 427.394 1472.57 427.865 1473.85 427.865C1475.18 427.865 1476.45 427.358 1477.42 426.44C1478.9 425.051 1479.62 422.793 1479.37 420.403L1478.11 408.586C1478.04 407.939 1478.2 407.381 1478.31 407.176L1483.34 398.307C1484.66 395.993 1484.64 392.757 1483.31 390.615C1482.45 389.237 1481.1 388.381 1479.49 388.202L1474.14 387.602L1471.39 377.691C1470.56 374.714 1468.26 373.654 1466.37 373.654ZM1466.37 376.778C1466.98 376.778 1467.56 377.311 1467.87 378.415L1470.76 388.854C1471.03 389.832 1471.57 390.465 1472.2 390.533L1479.03 391.298C1480.63 391.479 1481.27 394.862 1480.1 396.931L1475.06 405.803C1474.6 406.62 1474.39 407.774 1474.51 408.873L1475.77 420.688C1476 422.883 1474.98 424.741 1473.85 424.741C1473.57 424.741 1473.29 424.627 1473.02 424.381L1467.09 419.025C1466.84 418.797 1466.56 418.683 1466.29 418.683C1465.96 418.683 1465.64 418.838 1465.35 419.144L1459.58 425.167C1459.28 425.478 1458.97 425.617 1458.68 425.617C1457.66 425.617 1456.78 423.978 1456.99 421.906L1458.17 410.282C1458.28 409.199 1458.08 408.115 1457.65 407.401L1453.01 399.828C1451.95 398.098 1452.53 394.754 1453.98 394.234L1460.36 391.955C1460.96 391.74 1461.48 390.993 1461.74 389.966L1464.57 378.889C1464.93 377.502 1465.66 376.778 1466.37 376.778" fill="white"/>
<path d="M1698.11 567.687C1698.11 599.062 1717.04 624.5 1740.38 624.5C1763.72 624.5 1782.65 599.062 1782.65 567.687C1782.65 536.308 1763.72 510.871 1740.38 510.871C1717.04 510.871 1698.11 536.308 1698.11 567.687" fill="url(#paint29_linear_0_1)"/>
<path d="M1733.85 624.5H1740.38V510.871H1733.85V624.5Z" fill="url(#paint30_linear_0_1)"/>
<path d="M1689.12 567.687C1689.12 599.062 1708.05 624.5 1731.39 624.5C1754.73 624.5 1773.66 599.062 1773.66 567.687C1773.66 536.308 1754.73 510.871 1731.39 510.871C1708.05 510.871 1689.12 536.308 1689.12 567.687" fill="url(#paint31_radial_0_1)"/>
<path d="M1692 567.687C1692 596.929 1709.63 620.641 1731.39 620.641C1753.15 620.641 1770.78 596.929 1770.78 567.687C1770.78 538.44 1753.15 514.73 1731.39 514.73C1709.63 514.73 1692 538.44 1692 567.687Z" fill="url(#paint32_linear_0_1)"/>
<path d="M1746.18 549.033C1746.18 560.015 1739.56 568.915 1731.39 568.915C1723.22 568.915 1716.6 560.015 1716.6 549.033C1716.6 538.054 1723.22 529.152 1731.39 529.152C1739.56 529.152 1746.18 538.054 1746.18 549.033Z" fill="white"/>
<path d="M1755.66 620.64H1707.12V596.858C1707.12 585.289 1717.99 575.91 1731.39 575.91C1744.8 575.91 1755.66 585.289 1755.66 596.858V620.64Z" fill="white"/>
<path d="M1611.01 698.034H1621.51V594.296H1611.01V698.034Z" fill="url(#paint33_linear_0_1)"/>
<path d="M1577.46 646.166C1577.46 674.811 1596.71 698.039 1620.46 698.039C1644.2 698.039 1663.45 674.811 1663.45 646.166C1663.45 617.519 1644.2 594.293 1620.46 594.293C1596.71 594.293 1577.46 617.519 1577.46 646.166Z" fill="url(#paint34_linear_0_1)"/>
<path d="M1568.15 646.166C1568.15 674.811 1587.4 698.039 1611.15 698.039C1634.89 698.039 1654.14 674.811 1654.14 646.166C1654.14 617.519 1634.89 594.293 1611.15 594.293C1587.4 594.293 1568.15 617.519 1568.15 646.166Z" fill="url(#paint35_linear_0_1)"/>
<path d="M1571.73 646.166C1571.73 672.426 1589.38 693.715 1611.15 693.715C1632.92 693.715 1650.56 672.426 1650.56 646.166C1650.56 619.904 1632.92 598.615 1611.15 598.615C1589.38 598.615 1571.73 619.904 1571.73 646.166Z" fill="url(#paint36_radial_0_1)"/>
<path d="M1625.43 669.534H1602.94V631.886H1629.76C1635.02 631.886 1638.65 637.429 1637.86 644.262L1636.38 657.158C1635.6 663.991 1630.7 669.534 1625.43 669.534Z" fill="#FFFFFD"/>
<path d="M1602.94 631.887L1606.11 623.843V617.677C1606.11 615.354 1608.01 613.699 1609.83 614.483C1611.94 615.396 1614.17 617.545 1614.17 622.56C1614.17 632.091 1619.08 633.043 1619.08 633.043L1602.94 631.887Z" fill="#FFFFFD"/>
<path d="M1579.08 669.534H1599.62V631.886H1579.08V669.534Z" fill="url(#paint37_linear_0_1)"/>
<path d="M1596.56 661.699C1596.56 664.275 1594.83 666.367 1592.69 666.367C1590.55 666.367 1588.82 664.275 1588.82 661.699C1588.82 659.12 1590.55 657.03 1592.69 657.03C1594.83 657.03 1596.56 659.12 1596.56 661.699Z" fill="white"/>
<path d="M1638.13 642.263H1632.9C1630.1 642.263 1627.82 640.3 1627.82 637.876V636.278C1627.82 633.852 1630.1 631.886 1632.9 631.886H1638.13C1640.94 631.886 1643.21 633.852 1643.21 636.278V637.876C1643.21 640.3 1640.94 642.263 1638.13 642.263Z" fill="#FFFFFD"/>
<path d="M1635.97 651.353H1630.74C1627.93 651.353 1625.66 649.387 1625.66 646.967V645.366C1625.66 642.942 1627.93 640.976 1630.74 640.976H1635.97C1638.77 640.976 1641.05 642.942 1641.05 645.366V646.967C1641.05 649.387 1638.77 651.353 1635.97 651.353Z" fill="#FFFFFD"/>
<path d="M1633.8 660.444H1628.57C1625.76 660.444 1623.49 658.478 1623.49 656.054V654.456C1623.49 652.03 1625.76 650.067 1628.57 650.067H1633.8C1636.61 650.067 1638.88 652.03 1638.88 654.456V656.054C1638.88 658.478 1636.61 660.444 1633.8 660.444Z" fill="#FFFFFD"/>
<path d="M1631.63 669.534H1626.41C1623.6 669.534 1621.32 667.568 1621.32 665.144V663.546C1621.32 661.12 1623.6 659.154 1626.41 659.154H1631.63C1634.44 659.154 1636.72 661.12 1636.72 663.546V665.144C1636.72 667.568 1634.44 669.534 1631.63 669.534Z" fill="#FFFFFD"/>
<path d="M1732.9 759.632C1732.9 785.219 1749.86 805.962 1770.78 805.962C1791.71 805.962 1808.68 785.219 1808.68 759.632C1808.68 734.042 1791.71 713.299 1770.78 713.299C1749.86 713.299 1732.9 734.042 1732.9 759.632Z" fill="url(#paint38_linear_0_1)"/>
<path d="M1761.02 805.924H1771.21V713.299H1761.02V805.924Z" fill="url(#paint39_linear_0_1)"/>
<path d="M1723.13 759.632C1723.13 785.219 1740.1 805.962 1761.02 805.962C1781.95 805.962 1798.91 785.219 1798.91 759.632C1798.91 734.042 1781.95 713.299 1761.02 713.299C1740.1 713.299 1723.13 734.042 1723.13 759.632Z" fill="url(#paint40_radial_0_1)"/>
<path d="M1725.71 759.632C1725.71 783.479 1741.52 802.815 1761.02 802.815C1780.53 802.815 1796.33 783.479 1796.33 759.632C1796.33 735.783 1780.53 716.449 1761.02 716.449C1741.52 716.449 1725.71 735.783 1725.71 759.632Z" fill="url(#paint41_linear_0_1)"/>
<path d="M1772.83 734.949C1768.44 734.949 1763.7 737.758 1761.02 742.608C1758.35 737.758 1753.6 734.949 1749.21 734.949C1741.34 734.949 1734.78 741.935 1735.83 753.825C1737.54 773.176 1759.8 791.31 1761.02 792.293C1762.24 791.31 1784.51 773.176 1786.21 753.825C1787.26 741.935 1780.71 734.949 1772.83 734.949Z" fill="#FEFEFE"/>
<path d="M1625.79 232.697C1625.79 260.917 1644.66 283.792 1667.94 283.792C1691.23 283.792 1710.1 260.917 1710.1 232.697C1710.1 204.482 1691.23 181.605 1667.94 181.605C1644.66 181.605 1625.79 204.482 1625.79 232.697Z" fill="url(#paint42_linear_0_1)"/>
<path d="M1658.95 283.717H1669.1V181.608H1658.95V283.717Z" fill="url(#paint43_linear_0_1)"/>
<path d="M1616.8 232.697C1616.8 260.917 1635.67 283.792 1658.95 283.792C1682.24 283.792 1701.11 260.917 1701.11 232.697C1701.11 204.482 1682.24 181.605 1658.95 181.605C1635.67 181.605 1616.8 204.482 1616.8 232.697Z" fill="url(#paint44_linear_0_1)"/>
<path d="M1620.32 232.697C1620.32 258.559 1637.62 279.521 1658.95 279.521C1680.29 279.521 1697.58 258.559 1697.58 232.697C1697.58 206.838 1680.29 185.875 1658.95 185.875C1637.62 185.875 1620.32 206.838 1620.32 232.697Z" fill="url(#paint45_radial_0_1)"/>
<path d="M1679.26 215.747H1638.65L1658.95 225.661L1679.26 215.747Z" fill="#FFFFFD"/>
<path d="M1659.31 229.875C1659.2 229.929 1659.08 229.958 1658.95 229.958C1658.83 229.958 1658.71 229.929 1658.59 229.875L1633.69 217.719V246.927C1633.69 249.074 1635.13 250.812 1636.9 250.812H1681.01C1682.78 250.812 1684.22 249.074 1684.22 246.927V217.719L1659.31 229.875Z" fill="url(#paint46_linear_0_1)"/>
<path d="M1476.16 474.053L1521.15 451.636L1510.3 435.424L1465.32 457.838L1476.16 474.053Z" fill="#FFBAA2"/>
<path d="M1525.22 452.677C1515.1 456.593 1509.75 453.207 1508.24 451.87C1500.92 445.399 1501.03 436.483 1510.86 429.557C1513.61 427.617 1516.06 425.45 1526.92 419.374C1533.92 415.459 1546.57 435.653 1546.57 435.653C1547.74 437.006 1545.98 439.453 1540.41 443.775C1534.83 448.094 1525.22 452.677 1525.22 452.677Z" fill="#FFBAA2"/>
<path d="M1520.14 424.695C1519 424.99 1517.45 425.551 1516.75 426.244C1515.96 426.948 1515.84 427.623 1515.88 428.267C1515.89 428.887 1516.23 429.831 1516.55 430.731L1517.31 432.281L1518.28 433.908C1520.27 437.262 1518.74 441.377 1514.85 443.1C1510.97 444.822 1506.2 443.501 1504.21 440.146C1503.64 439.205 1503.36 438.204 1503.33 437.213L1503.33 437.076L1503.25 434.045C1503.28 433.002 1503.42 431.901 1503.53 430.866C1504.01 428.631 1504.61 426.327 1506.38 424.115C1508.08 421.927 1510.77 420.337 1513.33 419.742C1515.96 419.124 1518.15 419.193 1520.67 419.623C1522.24 419.889 1523.26 421.211 1522.95 422.571C1522.74 423.513 1521.94 424.227 1520.94 424.488L1520.14 424.695Z" fill="#FFBAA2"/>
<path d="M1519.79 421.002L1545.75 408.249C1547.45 407.416 1549.61 407.925 1550.58 409.389C1551.47 410.747 1551.03 412.446 1549.61 413.352L1549.49 413.424L1525.95 428.474L1525.6 428.697C1523.23 430.207 1519.9 429.778 1518.14 427.737C1516.39 425.697 1516.89 422.815 1519.25 421.305C1519.42 421.199 1519.62 421.09 1519.79 421.002Z" fill="#FFBAA2"/>
<path d="M1530.25 425.45C1530.25 428.104 1532.74 430.253 1535.81 430.253C1538.89 430.253 1541.38 428.104 1541.38 425.45C1541.38 422.796 1538.89 420.644 1535.81 420.644C1532.74 420.644 1530.25 422.796 1530.25 425.45Z" fill="#FFBAA2"/>
<path d="M1533.47 430.687C1533.47 433.341 1535.96 435.49 1539.04 435.49C1542.11 435.49 1544.6 433.341 1544.6 430.687C1544.6 428.034 1542.11 425.882 1539.04 425.882C1535.96 425.882 1533.47 428.034 1533.47 430.687Z" fill="#FFBAA2"/>
<path d="M1536.49 436.621C1536.49 439.274 1538.98 441.426 1542.05 441.426C1545.13 441.426 1547.62 439.274 1547.62 436.621C1547.62 433.967 1545.13 431.818 1542.05 431.818C1538.98 431.818 1536.49 433.967 1536.49 436.621Z" fill="#FFBAA2"/>
<path d="M1360.67 454.565C1360.67 454.565 1419.5 507.943 1435.23 507.943C1450.95 507.943 1513.59 459.14 1513.59 459.14L1500.48 436.703L1435.54 465.5L1394.6 398.946L1360.67 454.565Z" fill="url(#paint47_linear_0_1)"/>
<path d="M1360.67 454.565C1360.67 454.565 1395.29 485.974 1418.52 500.6C1408.21 469.512 1398.65 438.239 1389.8 406.814L1360.67 454.565Z" fill="url(#paint48_linear_0_1)"/>
<path d="M1367.24 831.334C1368.05 840.678 1368.85 850.026 1369.66 859.37C1376.53 859.301 1383.39 859.233 1390.25 859.169L1389.6 829.896C1382.15 830.374 1374.69 830.853 1367.24 831.334Z" fill="#FFBF98"/>
<path d="M1284.99 541.988C1298.27 563.962 1339.7 707.397 1339.7 707.397C1339.7 707.397 1358.57 822.461 1365.89 861.025C1375.03 861.193 1385.17 859.524 1394.43 859.486C1400.98 812.452 1395.22 691.382 1394.6 680.183C1393.26 655.909 1382.02 553.084 1382.02 553.084C1382.02 553.084 1319.44 541.859 1290.01 541.856C1288.21 541.856 1286.53 541.9 1284.99 541.988" fill="url(#paint49_linear_0_1)"/>
<path d="M1284.99 541.988C1298.27 563.962 1339.7 707.397 1339.7 707.397C1339.7 707.397 1358.57 822.461 1365.89 861.025C1375.03 861.193 1385.17 859.524 1394.43 859.486C1400.98 812.452 1395.22 691.382 1394.6 680.183C1393.26 655.909 1382.02 553.084 1382.02 553.084C1382.02 553.084 1319.44 541.859 1290.01 541.856C1288.21 541.856 1286.53 541.9 1284.99 541.988" fill="url(#paint50_linear_0_1)"/>
<path d="M1284.99 541.988C1298.27 563.962 1339.7 707.397 1339.7 707.397C1339.7 707.397 1344.32 735.581 1349.88 768.721C1350.08 748.627 1351.34 728.536 1352 708.455C1353.69 657.844 1354 607.192 1349.91 556.658C1349.59 552.667 1351.73 550.003 1354.79 548.622C1334.22 545.487 1306.75 541.856 1290.02 541.856C1288.21 541.856 1286.53 541.9 1284.99 541.988Z" fill="url(#paint51_linear_0_1)"/>
<path d="M1365.96 867.445C1366.03 865.521 1365.77 862.763 1365.89 861.025C1366.02 859.285 1366.87 858.664 1368.69 858.501C1371.36 858.258 1375.06 858.493 1377.68 858.328C1381.76 858.069 1384.03 856.657 1386.31 853.967C1387.06 853.082 1386.92 852.343 1387.83 851.375C1391.02 847.979 1397.16 845.533 1402.59 848.192C1408.01 850.845 1412.29 854.668 1419.4 856.147C1426.51 857.629 1436.15 859.163 1437.75 866.519C1413.85 866.84 1389.9 867.168 1365.96 867.445Z" fill="#250A20"/>
<path d="M1437.87 872.57C1413.94 872.883 1390.01 873.193 1366.08 873.506C1366.04 871.491 1366.01 869.479 1365.97 867.462C1389.9 867.149 1413.84 866.838 1437.77 866.525C1437.8 868.54 1437.84 870.557 1437.87 872.57Z" fill="#D58A4D"/>
<path d="M1264.6 835.423C1264.13 844.788 1263.67 854.151 1263.21 863.514C1270.04 864.14 1276.87 864.763 1283.69 865.387C1284.8 855.667 1285.91 845.95 1287.03 836.235C1279.56 835.964 1272.08 835.692 1264.6 835.423Z" fill="#FFBF98"/>
<path d="M1274.22 559.772L1272.73 606.069L1275.39 707.961C1275.39 707.961 1258.2 815.139 1260.4 865.507C1269.23 865.68 1276.92 867.188 1286.46 864.77C1291.81 824.786 1335.84 710.498 1335.84 710.498L1351.86 616.766L1365.52 547.401L1274.22 559.772Z" fill="url(#paint52_linear_0_1)"/>
<path d="M1274.22 559.772L1272.73 606.069L1275.39 707.961C1275.39 707.961 1258.2 815.139 1260.4 865.507C1260.96 865.522 1261.52 865.546 1262.08 865.569C1262.17 865.204 1262.26 864.834 1262.35 864.472C1271.33 830.086 1297.84 709.011 1297.84 709.011C1297.84 709.011 1305.97 567.963 1310.46 554.863L1274.22 559.772Z" fill="url(#paint53_linear_0_1)"/>
<path d="M1287.36 856.294C1286.5 859.217 1285.67 862.157 1284.87 865.106C1285.4 864.992 1285.92 864.909 1286.46 864.77C1287.07 860.22 1288.19 854.701 1289.67 848.506C1288.9 851.098 1288.13 853.687 1287.36 856.294Z" fill="url(#paint54_linear_0_1)"/>
<path d="M1275.63 852.366C1272.98 852.237 1270.32 852.141 1267.66 852.087C1262.99 851.988 1258.77 854.221 1256.36 857.676C1255.68 858.656 1254.85 859.629 1253.8 860.555C1242.44 870.567 1242.97 874.938 1242.97 874.938H1289.37C1289.43 868.446 1289.58 863.927 1289.39 859.986C1286.49 858.842 1283.88 857.148 1281.9 855.051C1280.37 853.429 1278.06 852.485 1275.63 852.366Z" fill="#250A20"/>
<path d="M1242.98 880.97V874.936H1289.48V880.97" fill="#D58A4D"/>
<path d="M1270.4 398.096C1264.59 400.043 1260.87 404.981 1261.17 410.353L1274.22 559.772H1381.69L1384.08 511.567C1384.08 511.567 1403.98 429.722 1394.6 398.947C1385.04 389.716 1353.05 385.515 1353.05 385.515L1341.35 395.119L1316.85 383.462L1270.4 398.096Z" fill="url(#paint55_linear_0_1)"/>
<path d="M1262.59 426.575L1274.22 559.772H1309.41L1291.47 435.937C1291.47 435.937 1289.58 430.627 1287 423.714C1278.9 424.495 1270.66 425.279 1262.59 426.575" fill="url(#paint56_linear_0_1)"/>
<path d="M1328.07 375.312C1327.56 375.454 1315.1 380.436 1315.1 380.436L1301.7 388.96L1338.38 423.577L1352.28 405.082L1373 413.283L1365.26 389.465L1353.89 379.313C1353.89 379.313 1330.07 375.304 1328.17 375.304C1328.13 375.304 1328.09 375.307 1328.07 375.312" fill="url(#paint57_linear_0_1)"/>
<path d="M1317.12 352.51L1316.81 387.249L1350.94 402.384L1353.04 389.796L1350.93 362.709L1317.12 352.51Z" fill="#FFBAA2"/>
<path d="M1317.06 360.239L1317.12 352.511L1350.93 362.709L1353.05 389.797L1352.81 391.209C1340.9 380.892 1328.73 370.74 1317.06 360.239Z" fill="#FAAA93"/>
<path d="M1349.32 311.771L1353.38 348.819C1353.38 348.819 1371.68 342.925 1372.68 328.169C1373.55 315.149 1361.65 309.162 1361.65 309.162L1349.32 311.771Z" fill="url(#paint58_linear_0_1)"/>
<path d="M1358.23 308.051C1362.53 307.839 1366.2 310.669 1366.45 314.372L1369.17 355.458C1369.71 363.54 1362.55 370.464 1353.19 370.927L1344.04 371.379C1341.42 371.509 1334.34 370.151 1328.93 366.274C1319.45 359.49 1317.12 352.509 1317.12 352.509L1315.12 322.382C1314.68 315.666 1320.63 309.911 1328.41 309.525L1358.23 308.051Z" fill="#FFBAA2"/>
<path d="M1355.42 342.219L1358.05 347.2L1356.67 348.819" stroke="#D1826C" stroke-width="1.228" stroke-miterlimit="10" stroke-linecap="round" stroke-linejoin="round"/>
<path d="M1360.22 353.773C1360.22 353.773 1356.43 353.801 1343.5 354.694C1343.5 354.694 1345.67 358.713 1352.77 359.189C1359.86 359.667 1360.22 353.773 1360.22 353.773Z" fill="white"/>
<path d="M1314.58 307.605C1309.5 305.66 1305.42 315.214 1305.04 318.183C1303.29 332.434 1310.91 338.425 1310.91 338.425C1310.91 338.425 1315.12 337.25 1317.8 338.125C1318.84 340.6 1319.09 345.796 1319.09 345.796L1322.78 345.695C1326.85 343.639 1329.02 337.998 1328.53 333.239C1328.53 333.239 1339.99 331.24 1332.94 320.353C1351.1 321.344 1376.41 323.186 1376.91 311.966C1377.24 304.535 1372.72 296.708 1355.42 295.689C1354.37 295.627 1353.14 295.594 1351.79 295.594C1339.74 295.594 1317.62 298.289 1314.58 307.605" fill="url(#paint59_linear_0_1)"/>
<path d="M1314.58 307.605C1309.5 305.66 1305.42 315.214 1305.04 318.183C1303.29 332.434 1310.91 338.425 1310.91 338.425C1310.91 338.425 1315.12 337.25 1317.8 338.125C1318.84 340.6 1319.09 345.796 1319.09 345.796L1322.78 345.695C1326.85 343.639 1329.02 337.998 1328.53 333.239C1328.53 333.239 1339.99 331.24 1332.94 320.353C1351.1 321.344 1376.41 323.186 1376.91 311.966C1377.24 304.535 1372.72 296.708 1355.42 295.689C1354.37 295.627 1353.14 295.594 1351.79 295.594C1339.74 295.594 1317.62 298.289 1314.58 307.605" fill="url(#paint60_radial_0_1)"/>
<path d="M1313.84 311.533L1317.79 307.468C1317.79 307.468 1312.94 304.679 1317.6 298.588C1317.6 298.588 1309.13 302.336 1313.84 311.533" fill="url(#paint61_linear_0_1)"/>
<path d="M1340.37 339.736C1340.45 340.851 1341.27 341.717 1342.2 341.671C1343.14 341.624 1343.84 340.683 1343.76 339.568C1343.69 338.453 1342.87 337.587 1341.94 337.633C1341 337.68 1340.3 338.621 1340.37 339.736Z" fill="#250A20"/>
<path d="M1359.33 337.776C1359.4 338.891 1360.22 339.757 1361.15 339.711C1362.09 339.664 1362.78 338.725 1362.71 337.61C1362.64 336.493 1361.82 335.627 1360.89 335.676C1359.95 335.722 1359.25 336.661 1359.33 337.776Z" fill="#250A20"/>
<path d="M1310.05 346.782C1312.14 350.842 1316.36 353.168 1319.49 351.973C1322.61 350.778 1323.46 346.515 1321.37 342.455C1319.29 338.391 1315.06 336.069 1311.94 337.264C1308.81 338.459 1307.97 342.718 1310.05 346.782Z" fill="#FFBAA2"/>
<path d="M1346.11 333.193C1344.24 333.576 1342.65 333.824 1341.16 334.264C1339.63 334.662 1338.26 335.275 1336.45 335.968L1336.39 335.989C1336.06 336.118 1335.66 335.986 1335.52 335.694C1335.44 335.552 1335.44 335.394 1335.5 335.257C1335.88 334.398 1336.46 333.573 1337.29 332.96C1338.08 332.298 1339.09 331.845 1340.14 331.535C1342.26 330.948 1344.63 331.1 1346.44 332.295C1346.69 332.464 1346.74 332.771 1346.55 332.989C1346.46 333.084 1346.35 333.144 1346.22 333.17L1346.11 333.193Z" fill="#401411"/>
<path d="M1356.01 331.658C1356.86 330.251 1358.62 329.582 1360.42 329.659C1361.31 329.719 1362.21 329.944 1362.92 330.401C1363.66 330.805 1364.17 331.457 1364.46 332.163C1364.55 332.408 1364.41 332.675 1364.12 332.76C1364.06 332.781 1363.98 332.789 1363.92 332.786L1363.86 332.783C1362.2 332.698 1361.25 332.569 1360.21 332.52C1359.19 332.427 1358.1 332.452 1356.56 332.339L1356.44 332.328C1356.15 332.305 1355.93 332.085 1355.95 331.829C1355.96 331.77 1355.98 331.71 1356.01 331.658Z" fill="#401411"/>
<path d="M1291.81 530.373C1294.16 531.174 1295.03 532.897 1295.27 534.847L1297.84 541.199L1297.41 546C1297.51 546.765 1297.18 547.614 1296.52 548.328C1294.56 550.435 1291.04 550.267 1290.63 548.048L1290.81 541.013L1286.9 534.736L1291.81 530.373Z" fill="#FFBAA2"/>
<path d="M1267.78 516.281L1283.63 528.357C1284.17 528.761 1284.58 529.273 1284.83 529.85L1292.54 544.251C1292.7 544.636 1292.94 544.993 1293.24 545.311L1297.33 546.858C1299.33 548.958 1299.77 550.013 1295.6 552.864C1291.73 555.517 1285.77 561.081 1280.64 560.925C1277.24 560.822 1269.14 561.67 1266.72 559.586C1266.03 559.004 1265.19 558.582 1264.79 557.832L1251.65 526.715C1250.79 525.101 1251.35 523.187 1252.99 522.119L1262.26 516.098C1263.92 515.019 1266.22 515.097 1267.78 516.281Z" fill="#FFBAA2"/>
<path d="M1293.52 545.416L1297.33 546.86C1299.33 548.957 1299.77 550.012 1295.6 552.863C1291.73 555.516 1285.77 561.082 1280.64 560.924C1277.24 560.821 1269.14 561.669 1266.72 559.587C1266.42 559.329 1266.09 559.104 1265.78 558.868C1275.47 555.208 1285.05 550.706 1293.52 545.416Z" fill="#FAAA93"/>
<path d="M1274.15 521.131L1291.81 530.375L1295 535.369C1296.16 537.182 1295.01 539.45 1292.69 539.96L1282.51 542.184L1274.15 521.131Z" fill="#FFBAA2"/>
<path d="M1194.9 451.42C1189.05 457.097 1188.93 465.64 1194.37 471.617L1254.98 535.582L1278.88 523.278L1239.84 465.738L1287.66 447.478C1287.66 447.478 1310.22 437.176 1310.46 418.267C1310.7 399.358 1268.52 398.724 1268.52 398.724C1268.52 398.724 1220.95 426.132 1194.9 451.42" fill="url(#paint62_linear_0_1)"/>
<path d="M958.365 626.882C949.273 629.091 949.004 638.27 959.684 654.836C967.2 658.475 976.028 660.218 984.862 659.129C978.602 660.792 971.865 662.042 965.003 662.476C969.909 669.087 976.205 676.616 984.017 685.105C1015.54 722.124 1026.9 749.092 1032.97 766.039C1038.63 783.111 1039 790.159 1039.01 790.263C1045.02 788 1051.13 785.843 1057.34 783.792C1057.06 783.789 1058.25 764.872 1053.62 740.384C1049.35 715.989 1039.27 686.025 1024.44 666.211C1015.81 653.905 1005.28 644.552 994.991 638.014C993.289 640.745 991.152 643.308 988.764 645.667C990.031 641.836 989.654 638.36 989.498 634.781C979.186 629.155 969.516 626.406 962.731 626.406C961.098 626.406 959.633 626.566 958.365 626.882" fill="url(#paint63_linear_0_1)"/>
<path d="M974.871 642.739C974.365 643.306 974.488 644.118 975.141 644.552C975.824 645.01 1043.32 691.128 1045.18 785.556C1045.19 786.262 1045.85 786.826 1046.67 786.826H1046.7C1047.53 786.815 1048.19 786.226 1048.17 785.512C1046.29 689.856 977.667 642.969 976.972 642.506C976.702 642.328 976.379 642.24 976.058 642.24C975.611 642.24 975.168 642.408 974.871 642.739Z" fill="url(#paint64_radial_0_1)"/>
<path d="M987.224 665.264C986.405 665.357 985.83 666.007 985.935 666.715C986.043 667.424 986.81 667.91 987.616 667.827C987.697 667.817 995.692 666.938 1000.74 667.964C1000.85 667.988 1000.97 667.998 1001.08 667.998C1001.76 667.998 1002.37 667.595 1002.54 667.002C1002.73 666.309 1002.23 665.613 1001.43 665.448C999.306 665.013 996.798 664.879 994.482 664.879C990.706 664.879 987.442 665.241 987.224 665.264" fill="url(#paint65_radial_0_1)"/>
<path d="M998.227 652.322C998.099 652.503 995.201 656.845 996.19 662.952C996.295 663.599 996.933 664.067 997.67 664.067C997.739 664.067 997.811 664.059 997.88 664.054C998.701 663.955 999.27 663.301 999.156 662.592C998.32 657.42 1000.79 653.664 1000.81 653.628C1001.22 653.01 1000.98 652.221 1000.27 651.856C1000.03 651.74 999.774 651.683 999.516 651.683C999.004 651.683 998.506 651.911 998.227 652.322" fill="url(#paint66_radial_0_1)"/>
<path d="M993.106 679.264C992.291 679.37 991.725 680.025 991.839 680.733C991.961 681.442 992.723 681.9 993.541 681.827C993.655 681.809 1005.31 680.4 1012.98 683.816C1013.2 683.912 1013.44 683.959 1013.67 683.959C1014.21 683.959 1014.73 683.703 1015 683.26C1015.38 682.624 1015.09 681.843 1014.35 681.514C1009.62 679.409 1003.75 678.931 999.375 678.931C995.878 678.931 993.337 679.236 993.106 679.264" fill="url(#paint67_radial_0_1)"/>
<path d="M1020.18 674.805C1020 675.067 1015.85 681.279 1017.27 690.047C1017.38 690.691 1018.02 691.159 1018.75 691.159C1018.82 691.159 1018.89 691.154 1018.96 691.149C1019.78 691.048 1020.35 690.394 1020.24 689.685C1018.97 681.853 1022.72 676.171 1022.76 676.114C1023.18 675.499 1022.94 674.707 1022.22 674.348C1021.98 674.226 1021.72 674.169 1021.46 674.169C1020.95 674.169 1020.45 674.394 1020.18 674.805" fill="url(#paint68_radial_0_1)"/>
<path d="M1013.52 720.414C1012.7 720.52 1012.14 721.177 1012.25 721.883C1012.37 722.592 1013.15 723.047 1013.95 722.977C1014.07 722.959 1026.37 721.472 1034.46 725.075C1034.68 725.176 1034.92 725.22 1035.15 725.22C1035.69 725.22 1036.21 724.966 1036.48 724.521C1036.86 723.883 1036.57 723.107 1035.84 722.778C1030.87 720.567 1024.7 720.062 1020.11 720.062C1016.43 720.062 1013.76 720.386 1013.52 720.414Z" fill="url(#paint69_radial_0_1)"/>
<path d="M1032.45 698.528C1032.26 698.802 1027.91 705.32 1029.4 714.527C1029.51 715.174 1030.15 715.642 1030.88 715.642C1030.95 715.642 1031.02 715.637 1031.09 715.629C1031.91 715.531 1032.48 714.877 1032.37 714.171C1031.03 705.891 1034.99 699.896 1035.03 699.837C1035.45 699.224 1035.21 698.43 1034.49 698.07C1034.25 697.949 1033.99 697.892 1033.73 697.892C1033.22 697.892 1032.73 698.117 1032.45 698.528" fill="url(#paint70_radial_0_1)"/>
<path d="M1018.35 567.521C1006.26 567.503 1002.24 578.731 1008.71 602.337C1016.5 609.074 1026.67 613.875 1037.99 615.189C1029.61 615.357 1020.8 614.871 1012.18 613.345C1015.56 622.961 1020.27 634.121 1026.47 646.924C1050.37 701.978 1053.49 738.605 1054.13 761.298C1054.22 784.025 1051.84 792.816 1051.8 792.943C1060.12 791.96 1068.52 791.137 1076.99 790.478C1076.65 790.39 1085.73 767.453 1089.91 735.902C1094.48 704.58 1094.15 664.649 1083.88 635.792C1078.21 618.049 1069.02 603.371 1058.97 592.227C1055.78 595.079 1052.11 597.596 1048.22 599.776C1051.32 595.441 1052.26 591.05 1053.51 586.593C1040.62 574.204 1027.16 567.521 1018.46 567.519C1018.42 567.519 1018.39 567.521 1018.35 567.521" fill="url(#paint71_linear_0_1)"/>
<path d="M1032.54 592.291C1031.88 592.721 1031.74 593.527 1032.23 594.104C1032.88 594.87 1097.52 672.147 1061.7 789.086C1061.49 789.779 1061.97 790.485 1062.76 790.669C1062.9 790.7 1063.02 790.71 1063.15 790.71C1063.81 790.71 1064.42 790.328 1064.6 789.751C1100.8 671.552 1035.31 593.339 1034.63 592.563C1034.34 592.221 1033.89 592.043 1033.43 592.043C1033.12 592.043 1032.81 592.123 1032.54 592.291" fill="url(#paint72_radial_0_1)"/>
<path d="M1036.66 624.903C1036.55 625.609 1037.11 626.266 1037.93 626.37C1038.04 626.383 1048.31 627.697 1054.18 630.518C1054.41 630.63 1054.66 630.681 1054.9 630.681C1055.43 630.681 1055.94 630.443 1056.21 630.019C1056.62 629.396 1056.36 628.604 1055.64 628.26C1049.29 625.208 1038.81 623.866 1038.37 623.809C1038.3 623.804 1038.23 623.799 1038.17 623.799C1037.43 623.799 1036.78 624.251 1036.66 624.903" fill="url(#paint73_radial_0_1)"/>
<path d="M1057.48 611.076C1057.26 611.26 1052.03 615.654 1050.81 623.344C1050.7 624.052 1051.27 624.704 1052.09 624.8C1052.16 624.807 1052.23 624.81 1052.3 624.81C1053.03 624.81 1053.68 624.342 1053.78 623.695C1054.85 616.934 1059.5 612.98 1059.55 612.941C1060.15 612.447 1060.16 611.627 1059.59 611.112C1059.3 610.849 1058.9 610.717 1058.51 610.717C1058.14 610.717 1057.77 610.836 1057.48 611.076Z" fill="url(#paint74_radial_0_1)"/>
<path d="M1038.28 643.934C1038.18 644.643 1038.76 645.292 1039.58 645.388C1039.73 645.403 1054.8 647.19 1062.94 653.768C1063.24 653.998 1063.6 654.114 1063.97 654.114C1064.37 654.114 1064.77 653.977 1065.06 653.705C1065.63 653.183 1065.6 652.363 1064.99 651.877C1056.13 644.728 1040.62 642.897 1039.97 642.822C1039.9 642.814 1039.83 642.809 1039.77 642.809C1039.03 642.809 1038.39 643.282 1038.28 643.934" fill="url(#paint75_radial_0_1)"/>
<path d="M1075.45 645.359C1075.13 645.623 1067.62 651.941 1065.85 663.042C1065.74 663.751 1066.31 664.403 1067.13 664.499C1067.2 664.506 1067.27 664.514 1067.34 664.514C1068.07 664.514 1068.72 664.043 1068.82 663.397C1070.44 653.224 1077.45 647.283 1077.52 647.224C1078.11 646.732 1078.13 645.913 1077.56 645.398C1077.27 645.134 1076.87 645.002 1076.48 645.002C1076.11 645.002 1075.74 645.119 1075.45 645.359" fill="url(#paint76_radial_0_1)"/>
<path d="M1046.83 700.742C1046.73 701.453 1047.31 702.102 1048.12 702.196C1048.28 702.211 1064.16 704.084 1072.77 711.031C1073.06 711.263 1073.43 711.38 1073.8 711.38C1074.2 711.38 1074.6 711.24 1074.89 710.971C1075.46 710.449 1075.42 709.631 1074.82 709.145C1065.51 701.634 1049.2 699.707 1048.52 699.627C1048.46 699.622 1048.39 699.617 1048.33 699.617C1047.59 699.617 1046.93 700.09 1046.83 700.742" fill="url(#paint77_radial_0_1)"/>
<path d="M1081 678.258C1080.66 678.535 1072.77 685.172 1070.92 696.834C1070.8 697.545 1071.38 698.197 1072.2 698.293C1072.27 698.3 1072.34 698.306 1072.4 698.306C1073.14 698.306 1073.78 697.835 1073.89 697.188C1075.6 686.457 1082.99 680.188 1083.07 680.123C1083.66 679.629 1083.68 678.812 1083.11 678.297C1082.82 678.033 1082.42 677.901 1082.03 677.901C1081.66 677.901 1081.28 678.018 1081 678.258" fill="url(#paint78_radial_0_1)"/>
<path d="M1143.76 634.781C1143.6 638.36 1143.22 641.836 1144.49 645.667C1142.1 643.308 1139.97 640.745 1138.26 638.014C1127.97 644.552 1117.44 653.905 1108.82 666.211C1093.98 686.025 1083.91 715.989 1079.63 740.384C1075.01 764.872 1076.19 783.789 1075.91 783.792C1082.12 785.843 1088.23 788 1094.25 790.263C1094.25 790.159 1094.62 783.111 1100.28 766.039C1106.35 749.092 1117.71 722.124 1149.23 685.105C1157.05 676.616 1163.35 669.087 1168.25 662.476C1161.39 662.042 1154.65 660.792 1148.39 659.129C1157.23 660.218 1166.06 658.475 1173.57 654.836C1184.25 638.27 1183.98 629.091 1174.89 626.882C1173.62 626.566 1172.16 626.406 1170.52 626.406C1163.74 626.406 1154.07 629.155 1143.76 634.781" fill="url(#paint79_linear_0_1)"/>
<path d="M1156.28 642.506C1155.59 642.969 1086.96 689.856 1085.08 785.512C1085.07 786.226 1085.73 786.815 1086.56 786.826H1086.58C1087.4 786.826 1088.07 786.262 1088.08 785.556C1089.93 691.198 1157.43 645.01 1158.11 644.552C1158.77 644.118 1158.89 643.303 1158.38 642.739C1158.08 642.408 1157.64 642.237 1157.2 642.237C1156.87 642.237 1156.55 642.325 1156.28 642.506" fill="url(#paint80_radial_0_1)"/>
<path d="M1131.83 665.448C1131.02 665.613 1130.53 666.309 1130.71 667.002C1130.88 667.595 1131.49 667.998 1132.17 667.998C1132.29 667.998 1132.4 667.988 1132.52 667.964C1137.57 666.938 1145.56 667.817 1145.64 667.827C1146.44 667.913 1147.21 667.424 1147.32 666.715C1147.42 666.007 1146.85 665.357 1146.03 665.264C1145.81 665.241 1142.55 664.879 1138.77 664.879C1136.46 664.879 1133.95 665.013 1131.83 665.448" fill="url(#paint81_radial_0_1)"/>
<path d="M1132.98 651.856C1132.27 652.221 1132.03 653.01 1132.44 653.628C1132.47 653.664 1134.94 657.42 1134.1 662.592C1133.98 663.301 1134.56 663.955 1135.37 664.054C1135.45 664.059 1135.52 664.067 1135.58 664.067C1136.32 664.067 1136.96 663.599 1137.07 662.952C1138.06 656.845 1135.15 652.503 1135.03 652.322C1134.75 651.908 1134.25 651.683 1133.74 651.683C1133.48 651.683 1133.22 651.74 1132.98 651.856" fill="url(#paint82_radial_0_1)"/>
<path d="M1118.9 681.514C1118.16 681.843 1117.88 682.624 1118.26 683.26C1118.52 683.703 1119.05 683.959 1119.59 683.959C1119.82 683.959 1120.06 683.912 1120.28 683.816C1127.92 680.41 1139.59 681.807 1139.72 681.827C1140.52 681.915 1141.3 681.439 1141.41 680.731C1141.53 680.025 1140.96 679.37 1140.15 679.264C1139.91 679.238 1137.38 678.931 1133.88 678.931C1129.51 678.931 1123.63 679.412 1118.9 681.514Z" fill="url(#paint83_radial_0_1)"/>
<path d="M1111.03 674.348C1110.31 674.71 1110.07 675.504 1110.5 676.117C1110.54 676.174 1114.29 681.804 1113.02 689.685C1112.9 690.394 1113.47 691.048 1114.29 691.149C1114.36 691.154 1114.43 691.159 1114.5 691.159C1115.24 691.159 1115.88 690.691 1115.98 690.047C1117.4 681.279 1113.26 675.067 1113.08 674.805C1112.8 674.394 1112.3 674.169 1111.79 674.169C1111.53 674.169 1111.27 674.226 1111.03 674.348" fill="url(#paint84_radial_0_1)"/>
<path d="M1097.42 722.778C1096.68 723.107 1096.4 723.883 1096.77 724.521C1097.04 724.966 1097.57 725.22 1098.1 725.22C1098.34 725.22 1098.58 725.176 1098.79 725.075C1106.87 721.482 1119.18 722.962 1119.31 722.977C1120.12 723.07 1120.89 722.584 1121 721.881C1121.12 721.177 1120.55 720.52 1119.73 720.414C1119.49 720.386 1116.83 720.062 1113.15 720.062C1108.55 720.062 1102.38 720.567 1097.42 722.778" fill="url(#paint85_radial_0_1)"/>
<path d="M1098.76 698.07C1098.04 698.432 1097.81 699.226 1098.23 699.839C1098.26 699.899 1102.23 705.845 1100.89 714.171C1100.77 714.877 1101.34 715.531 1102.16 715.629C1102.23 715.637 1102.3 715.642 1102.37 715.642C1103.11 715.642 1103.75 715.174 1103.85 714.527C1105.35 705.32 1100.99 698.802 1100.81 698.528C1100.53 698.117 1100.03 697.892 1099.52 697.892C1099.26 697.892 1098.99 697.949 1098.76 698.07" fill="url(#paint86_radial_0_1)"/>
<path d="M1014.17 780.184C1008.3 780.184 1003.85 784.751 1004.86 789.743L1021.68 873.31C1022.47 877.221 1026.4 880.074 1031 880.074H1099.64C1104.24 880.074 1108.17 877.221 1108.96 873.31L1125.78 789.743C1126.79 784.751 1122.34 780.184 1116.46 780.184H1014.17Z" fill="url(#paint87_linear_0_1)"/>
<path d="M1004.42 768.721C999.195 768.721 994.961 772.373 994.961 776.883V792.2C994.961 796.708 999.195 800.36 1004.42 800.36H1126.22C1131.44 800.36 1135.67 796.708 1135.67 792.2V776.883C1135.67 772.373 1131.44 768.721 1126.22 768.721H1004.42Z" fill="url(#paint88_linear_0_1)"/>
<path d="M1104.87 768.718C1099.14 792.324 1090.93 815.522 1077.16 836.596C1065.98 853.71 1051.24 868.233 1033.83 880.074H1099.64C1104.24 880.074 1108.17 877.221 1108.96 873.31L1123.64 800.36H1126.22C1131.44 800.36 1135.67 796.708 1135.67 792.2V776.883C1135.67 772.373 1131.44 768.718 1126.22 768.718H1104.87Z" fill="url(#paint89_linear_0_1)"/>
<path d="M1290.05 254.371C1290.05 261.378 1296.66 267.078 1304.78 267.078C1312.9 267.078 1319.5 261.378 1319.5 254.371C1319.5 247.362 1312.9 241.661 1304.78 241.661C1296.66 241.661 1290.05 247.362 1290.05 254.371ZM1292.98 254.371C1292.98 248.758 1298.27 244.188 1304.78 244.188C1311.28 244.188 1316.58 248.758 1316.58 254.371C1316.58 259.986 1311.28 264.554 1304.78 264.554C1298.27 264.554 1292.98 259.986 1292.98 254.371Z" fill="url(#paint90_radial_0_1)"/>
<path d="M1908.42 185.875C1908.42 192.884 1915.03 198.585 1923.14 198.585C1931.26 198.585 1937.87 192.884 1937.87 185.875C1937.87 178.869 1931.26 173.166 1923.14 173.166C1915.03 173.166 1908.42 178.869 1908.42 185.875ZM1911.35 185.875C1911.35 180.26 1916.64 175.693 1923.14 175.693C1929.65 175.693 1934.94 180.26 1934.94 185.875C1934.94 191.493 1929.65 196.058 1923.14 196.058C1916.64 196.058 1911.35 191.493 1911.35 185.875Z" fill="url(#paint91_radial_0_1)"/>
<path d="M1089.44 202.208C1089.44 209.218 1096.05 214.918 1104.16 214.918C1112.29 214.918 1118.89 209.218 1118.89 202.208C1118.89 195.202 1112.29 189.501 1104.16 189.501C1096.05 189.501 1089.44 195.202 1089.44 202.208ZM1092.37 202.208C1092.37 196.593 1097.66 192.028 1104.16 192.028C1110.67 192.028 1115.96 196.593 1115.96 202.208C1115.96 207.824 1110.67 212.394 1104.16 212.394C1097.66 212.394 1092.37 207.824 1092.37 202.208Z" fill="url(#paint92_radial_0_1)"/>
<path d="M1047.49 435.493C1047.49 446.635 1057.99 455.698 1070.91 455.698C1083.82 455.698 1094.32 446.635 1094.32 435.493C1094.32 424.348 1083.82 415.287 1070.91 415.287C1057.99 415.287 1047.49 424.348 1047.49 435.493ZM1052.14 435.493C1052.14 426.564 1060.56 419.302 1070.91 419.302C1081.25 419.302 1089.66 426.564 1089.66 435.493C1089.66 444.421 1081.25 451.681 1070.91 451.681C1060.56 451.681 1052.14 444.421 1052.14 435.493Z" fill="url(#paint93_radial_0_1)"/>
<path d="M814.295 713.299C814.295 719.938 820.553 725.339 828.248 725.339C835.938 725.339 842.195 719.938 842.195 713.299C842.195 706.66 835.938 701.257 828.248 701.257C820.553 701.257 814.295 706.66 814.295 713.299ZM817.067 713.299C817.067 707.981 822.084 703.652 828.248 703.652C834.409 703.652 839.426 707.981 839.426 713.299C839.426 718.617 834.409 722.949 828.248 722.949C822.084 722.949 817.067 718.617 817.067 713.299Z" fill="url(#paint94_radial_0_1)"/>
<path d="M1471.99 178.447C1471.99 189.589 1482.49 198.655 1495.4 198.655C1508.31 198.655 1518.81 189.589 1518.81 178.447C1518.81 167.305 1508.31 158.239 1495.4 158.239C1482.49 158.239 1471.99 167.305 1471.99 178.447ZM1476.64 178.447C1476.64 169.521 1485.05 162.259 1495.4 162.259C1505.74 162.259 1514.16 169.521 1514.16 178.447C1514.16 187.375 1505.74 194.638 1495.4 194.638C1485.05 194.638 1476.64 187.375 1476.64 178.447Z" fill="url(#paint95_radial_0_1)"/>
</g>
<defs>
<radialGradient id="paint0_radial_0_1" cx="0" cy="0" r="1" gradientUnits="userSpaceOnUse" gradientTransform="translate(1067.6 886.806) rotate(-47.8093) scale(1959.7 2009.33)">
<stop stop-color="white"/>
<stop offset="0.742545" stop-color="#95C5FF"/>
<stop offset="1" stop-color="#95C5FF"/>
</radialGradient>
<radialGradient id="paint1_radial_0_1" cx="0" cy="0" r="1" gradientUnits="userSpaceOnUse" gradientTransform="translate(1705.29 635.311) rotate(-62.1129) scale(689.461 754.255)">
<stop stop-color="white"/>
<stop offset="0.742545" stop-color="#78B6FF"/>
<stop offset="1" stop-color="#78B6FF"/>
</radialGradient>
<radialGradient id="paint2_radial_0_1" cx="0" cy="0" r="1" gradientUnits="userSpaceOnUse" gradientTransform="translate(857.082 573.228) rotate(66.9969) scale(289.998 322.913)">
<stop stop-color="white"/>
<stop offset="0.742545" stop-color="#95C5FF"/>
<stop offset="1" stop-color="#95C5FF"/>
</radialGradient>
<radialGradient id="paint3_radial_0_1" cx="0" cy="0" r="1" gradientUnits="userSpaceOnUse" gradientTransform="translate(993.082 -365.703) scale(69.1691 59.6988)">
<stop stop-color="white"/>
<stop offset="0.742545" stop-color="#DBEDFF"/>
<stop offset="1" stop-color="#DBEDFF"/>
</radialGradient>
<radialGradient id="paint4_radial_0_1" cx="0" cy="0" r="1" gradientUnits="userSpaceOnUse" gradientTransform="translate(906.376 -404.95) scale(54.2635 46.834)">
<stop stop-color="white"/>
<stop offset="0.742545" stop-color="#DBEDFF"/>
<stop offset="1" stop-color="#DBEDFF"/>
</radialGradient>
<radialGradient id="paint5_radial_0_1" cx="0" cy="0" r="1" gradientUnits="userSpaceOnUse" gradientTransform="translate(1151.18 -484.855) scale(42.8239 36.9606)">
<stop stop-color="white"/>
<stop offset="0.742545" stop-color="#DBEDFF"/>
<stop offset="1" stop-color="#DBEDFF"/>
</radialGradient>
<radialGradient id="paint6_radial_0_1" cx="0" cy="0" r="1" gradientUnits="userSpaceOnUse" gradientTransform="translate(1078.38 460.693) rotate(87.6447) scale(162.663 188.386)">
<stop stop-color="white"/>
<stop offset="0.742545" stop-color="#95C5FF"/>
<stop offset="1" stop-color="#95C5FF"/>
</radialGradient>
<radialGradient id="paint7_radial_0_1" cx="0" cy="0" r="1" gradientUnits="userSpaceOnUse" gradientTransform="translate(1227.39 -317.563) rotate(-87.6447) scale(126.848 146.907)">
<stop stop-color="white"/>
<stop offset="0.742545" stop-color="#DBEDFF"/>
<stop offset="1" stop-color="#DBEDFF"/>
</radialGradient>
<radialGradient id="paint8_radial_0_1" cx="0" cy="0" r="1" gradientUnits="userSpaceOnUse" gradientTransform="translate(1629.33 555.096) rotate(113.003) scale(284.163 316.417)">
<stop stop-color="white"/>
<stop offset="0.742545" stop-color="#95C5FF"/>
<stop offset="1" stop-color="#95C5FF"/>
</radialGradient>
<radialGradient id="paint9_radial_0_1" cx="0" cy="0" r="1" gradientUnits="userSpaceOnUse" gradientTransform="translate(1496.23 -396.277) rotate(180) scale(67.8026 58.5194)">
<stop stop-color="white"/>
<stop offset="0.742545" stop-color="#DBEDFF"/>
<stop offset="1" stop-color="#DBEDFF"/>
</radialGradient>
<radialGradient id="paint10_radial_0_1" cx="0" cy="0" r="1" gradientUnits="userSpaceOnUse" gradientTransform="translate(1579.99 -436.374) rotate(180) scale(52.5119 45.3222)">
<stop stop-color="white"/>
<stop offset="0.742545" stop-color="#DBEDFF"/>
<stop offset="1" stop-color="#DBEDFF"/>
</radialGradient>
<radialGradient id="paint11_radial_0_1" cx="0" cy="0" r="1" gradientUnits="userSpaceOnUse" gradientTransform="translate(1335.18 -512.587) rotate(180) scale(42.8239 36.9606)">
<stop stop-color="white"/>
<stop offset="0.742545" stop-color="#DBEDFF"/>
<stop offset="1" stop-color="#DBEDFF"/>
</radialGradient>
<radialGradient id="paint12_radial_0_1" cx="0" cy="0" r="1" gradientUnits="userSpaceOnUse" gradientTransform="translate(2028.9 445.982) rotate(92.3553) scale(162.384 188.063)">
<stop stop-color="white"/>
<stop offset="0.742545" stop-color="#95C5FF"/>
<stop offset="1" stop-color="#95C5FF"/>
</radialGradient>
<radialGradient id="paint13_radial_0_1" cx="0" cy="0" r="1" gradientUnits="userSpaceOnUse" gradientTransform="translate(1883 -340.025) rotate(-92.3553) scale(124.006 143.615)">
<stop stop-color="white"/>
<stop offset="0.742545" stop-color="#DBEDFF"/>
<stop offset="1" stop-color="#DBEDFF"/>
</radialGradient>
<radialGradient id="paint14_radial_0_1" cx="0" cy="0" r="1" gradientUnits="userSpaceOnUse" gradientTransform="translate(872.812 694.712) rotate(43.208) scale(548.016 518.372)">
<stop stop-color="white"/>
<stop offset="0.742545" stop-color="#95C5FF"/>
<stop offset="1" stop-color="#95C5FF"/>
</radialGradient>
<linearGradient id="paint15_linear_0_1" x1="1874.33" y1="551.915" x2="1614.08" y2="551.915" gradientUnits="userSpaceOnUse">
<stop stop-color="#301A61"/>
<stop offset="1" stop-color="#240973"/>
</linearGradient>
<radialGradient id="paint16_radial_0_1" cx="0" cy="0" r="1" gradientUnits="userSpaceOnUse" gradientTransform="translate(1983.11 140.127) rotate(112.415) scale(742.519 828.399)">
<stop stop-color="#A6BEFB"/>
<stop offset="0.984484" stop-color="#002BFF"/>
<stop offset="1" stop-color="#002BFF"/>
</radialGradient>
<linearGradient id="paint17_linear_0_1" x1="1823.23" y1="399.436" x2="1619.12" y2="905.442" gradientUnits="userSpaceOnUse">
<stop stop-color="#7797FF"/>
<stop offset="1" stop-color="#415FC6"/>
</linearGradient>
<linearGradient id="paint18_linear_0_1" x1="1586.57" y1="311.459" x2="1920.91" y2="1004.31" gradientUnits="userSpaceOnUse">
<stop stop-color="#FFE565"/>
<stop offset="0.901242" stop-color="#FF713E"/>
<stop offset="1" stop-color="#FF713E"/>
</linearGradient>
<linearGradient id="paint19_linear_0_1" x1="1832.49" y1="446.734" x2="1610.31" y2="446.734" gradientUnits="userSpaceOnUse">
<stop stop-color="#FFDD6D"/>
<stop offset="0.0987581" stop-color="#FFDD6D"/>
<stop offset="1" stop-color="#FF9D7C"/>
</linearGradient>
<linearGradient id="paint20_linear_0_1" x1="1688.95" y1="808.938" x2="1699.36" y2="834.752" gradientUnits="userSpaceOnUse">
<stop stop-color="#4D70DD"/>
<stop offset="1" stop-color="#213EA0"/>
</linearGradient>
<linearGradient id="paint21_linear_0_1" x1="1790.53" y1="375.101" x2="1453.71" y2="375.101" gradientUnits="userSpaceOnUse">
<stop stop-color="#301A61"/>
<stop offset="1" stop-color="#240973"/>
</linearGradient>
<radialGradient id="paint22_radial_0_1" cx="0" cy="0" r="1" gradientUnits="userSpaceOnUse" gradientTransform="translate(1827.19 235.974) rotate(111.863) scale(247.233 276.32)">
<stop stop-color="#A6BEFB"/>
<stop offset="0.984484" stop-color="#002BFF"/>
<stop offset="1" stop-color="#002BFF"/>
</radialGradient>
<radialGradient id="paint23_radial_0_1" cx="0" cy="0" r="1" gradientUnits="userSpaceOnUse" gradientTransform="translate(1726.02 324.256) rotate(121.794) scale(488.949 526.399)">
<stop stop-color="white"/>
<stop offset="0.742545" stop-color="#95C5FF"/>
<stop offset="1" stop-color="#95C5FF"/>
</radialGradient>
<linearGradient id="paint24_linear_0_1" x1="1708.55" y1="467.019" x2="1693.25" y2="286.695" gradientUnits="userSpaceOnUse">
<stop stop-color="#301A61"/>
<stop offset="1" stop-color="#240973"/>
</linearGradient>
<linearGradient id="paint25_linear_0_1" x1="1609.56" y1="426.883" x2="1637.47" y2="354.131" gradientUnits="userSpaceOnUse">
<stop stop-color="#FF7E00"/>
<stop offset="1" stop-color="#FFE600"/>
</linearGradient>
<linearGradient id="paint26_linear_0_1" x1="1550.84" y1="418.301" x2="1580.7" y2="356.722" gradientUnits="userSpaceOnUse">
<stop stop-color="#FF7E00"/>
<stop offset="1" stop-color="#FFE600"/>
</linearGradient>
<linearGradient id="paint27_linear_0_1" x1="1496.47" y1="427.892" x2="1528.43" y2="351.785" gradientUnits="userSpaceOnUse">
<stop stop-color="#FF7E00"/>
<stop offset="1" stop-color="#FFE600"/>
</linearGradient>
<linearGradient id="paint28_linear_0_1" x1="1457.2" y1="422.989" x2="1481.04" y2="360.37" gradientUnits="userSpaceOnUse">
<stop stop-color="#FF7E00"/>
<stop offset="1" stop-color="#FFE600"/>
</linearGradient>
<linearGradient id="paint29_linear_0_1" x1="1698.12" y1="567.685" x2="1782.65" y2="567.685" gradientUnits="userSpaceOnUse">
<stop stop-color="#301A61"/>
<stop offset="1" stop-color="#240973"/>
</linearGradient>
<linearGradient id="paint30_linear_0_1" x1="1733.85" y1="567.685" x2="1740.38" y2="567.685" gradientUnits="userSpaceOnUse">
<stop stop-color="#301A61"/>
<stop offset="1" stop-color="#240973"/>
</linearGradient>
<radialGradient id="paint31_radial_0_1" cx="0" cy="0" r="1" gradientUnits="userSpaceOnUse" gradientTransform="translate(1731.39 567.685) scale(55.3161 47.7425)">
<stop stop-color="white"/>
<stop offset="0.742545" stop-color="#95C5FF"/>
<stop offset="1" stop-color="#95C5FF"/>
</radialGradient>
<linearGradient id="paint32_linear_0_1" x1="1686.34" y1="496.944" x2="1742.09" y2="614.466" gradientUnits="userSpaceOnUse">
<stop stop-color="#7797FF"/>
<stop offset="1" stop-color="#415FC6"/>
</linearGradient>
<linearGradient id="paint33_linear_0_1" x1="1611.01" y1="646.163" x2="1621.51" y2="646.163" gradientUnits="userSpaceOnUse">
<stop stop-color="#301A61"/>
<stop offset="1" stop-color="#240973"/>
</linearGradient>
<linearGradient id="paint34_linear_0_1" x1="1577.46" y1="646.165" x2="1663.45" y2="646.165" gradientUnits="userSpaceOnUse">
<stop stop-color="#301A61"/>
<stop offset="1" stop-color="#240973"/>
</linearGradient>
<linearGradient id="paint35_linear_0_1" x1="1568.15" y1="646.165" x2="1654.14" y2="646.165" gradientUnits="userSpaceOnUse">
<stop stop-color="#7797FF"/>
<stop offset="1" stop-color="#415FC6"/>
</linearGradient>
<radialGradient id="paint36_radial_0_1" cx="0" cy="0" r="1" gradientUnits="userSpaceOnUse" gradientTransform="translate(1574.1 569.103) rotate(76.7908) scale(109.764 175.41)">
<stop stop-color="white"/>
<stop offset="0.742545" stop-color="#95C5FF"/>
<stop offset="1" stop-color="#95C5FF"/>
</radialGradient>
<linearGradient id="paint37_linear_0_1" x1="1579.08" y1="650.71" x2="1599.62" y2="650.71" gradientUnits="userSpaceOnUse">
<stop stop-color="#7797FF"/>
<stop offset="1" stop-color="#415FC6"/>
</linearGradient>
<linearGradient id="paint38_linear_0_1" x1="1732.9" y1="759.631" x2="1808.67" y2="759.631" gradientUnits="userSpaceOnUse">
<stop stop-color="#301A61"/>
<stop offset="1" stop-color="#240973"/>
</linearGradient>
<linearGradient id="paint39_linear_0_1" x1="1761.02" y1="759.612" x2="1771.21" y2="759.612" gradientUnits="userSpaceOnUse">
<stop stop-color="#301A61"/>
<stop offset="1" stop-color="#240973"/>
</linearGradient>
<radialGradient id="paint40_radial_0_1" cx="0" cy="0" r="1" gradientUnits="userSpaceOnUse" gradientTransform="translate(1761.02 759.631) scale(37.8895 46.3319)">
<stop stop-color="white"/>
<stop offset="0.742545" stop-color="#95C5FF"/>
<stop offset="1" stop-color="#95C5FF"/>
</radialGradient>
<linearGradient id="paint41_linear_0_1" x1="1723.86" y1="701.281" x2="1769.85" y2="798.218" gradientUnits="userSpaceOnUse">
<stop stop-color="#7797FF"/>
<stop offset="1" stop-color="#415FC6"/>
</linearGradient>
<linearGradient id="paint42_linear_0_1" x1="1625.79" y1="232.699" x2="1710.1" y2="232.699" gradientUnits="userSpaceOnUse">
<stop stop-color="#301A61"/>
<stop offset="1" stop-color="#240973"/>
</linearGradient>
<linearGradient id="paint43_linear_0_1" x1="1658.95" y1="232.661" x2="1669.1" y2="232.661" gradientUnits="userSpaceOnUse">
<stop stop-color="#301A61"/>
<stop offset="1" stop-color="#240973"/>
</linearGradient>
<linearGradient id="paint44_linear_0_1" x1="1616.8" y1="232.699" x2="1701.11" y2="232.699" gradientUnits="userSpaceOnUse">
<stop stop-color="#7797FF"/>
<stop offset="1" stop-color="#415FC6"/>
</linearGradient>
<radialGradient id="paint45_radial_0_1" cx="0" cy="0" r="1" gradientUnits="userSpaceOnUse" gradientTransform="translate(1612.26 179.253) rotate(58.9759) scale(104.191 158.042)">
<stop stop-color="white"/>
<stop offset="0.742545" stop-color="#95C5FF"/>
<stop offset="1" stop-color="#95C5FF"/>
</radialGradient>
<linearGradient id="paint46_linear_0_1" x1="1633.69" y1="234.266" x2="1684.21" y2="234.266" gradientUnits="userSpaceOnUse">
<stop stop-color="#7797FF"/>
<stop offset="1" stop-color="#415FC6"/>
</linearGradient>
<linearGradient id="paint47_linear_0_1" x1="1513.59" y1="453.445" x2="1360.67" y2="453.445" gradientUnits="userSpaceOnUse">
<stop stop-color="#7797FF"/>
<stop offset="1" stop-color="#415FC6"/>
</linearGradient>
<linearGradient id="paint48_linear_0_1" x1="1513.59" y1="453.706" x2="1360.67" y2="453.706" gradientUnits="userSpaceOnUse">
<stop stop-color="#4D70DD"/>
<stop offset="1" stop-color="#213EA0"/>
</linearGradient>
<linearGradient id="paint49_linear_0_1" x1="1286.33" y1="779.57" x2="1427.83" y2="499.051" gradientUnits="userSpaceOnUse">
<stop stop-color="#FF9824"/>
<stop offset="1" stop-color="#FFDC49"/>
</linearGradient>
<linearGradient id="paint50_linear_0_1" x1="1286.33" y1="779.57" x2="1427.83" y2="499.051" gradientUnits="userSpaceOnUse">
<stop stop-color="#F4851F"/>
<stop offset="1" stop-color="#ECC240"/>
</linearGradient>
<linearGradient id="paint51_linear_0_1" x1="1246.82" y1="759.641" x2="1388.31" y2="479.122" gradientUnits="userSpaceOnUse">
<stop stop-color="#F4851F"/>
<stop offset="1" stop-color="#ECC240"/>
</linearGradient>
<linearGradient id="paint52_linear_0_1" x1="1247.9" y1="760.185" x2="1389.39" y2="479.665" gradientUnits="userSpaceOnUse">
<stop stop-color="#FF9824"/>
<stop offset="1" stop-color="#FFDC49"/>
</linearGradient>
<linearGradient id="paint53_linear_0_1" x1="1237.37" y1="758.12" x2="1374.23" y2="486.787" gradientUnits="userSpaceOnUse">
<stop stop-color="#F4851F"/>
<stop offset="1" stop-color="#ECC240"/>
</linearGradient>
<linearGradient id="paint54_linear_0_1" x1="1326.52" y1="799.843" x2="1468.02" y2="519.324" gradientUnits="userSpaceOnUse">
<stop stop-color="#FF9824"/>
<stop offset="1" stop-color="#FFDC49"/>
</linearGradient>
<linearGradient id="paint55_linear_0_1" x1="1413.51" y1="416.183" x2="1306.81" y2="518.274" gradientUnits="userSpaceOnUse">
<stop stop-color="#7797FF"/>
<stop offset="1" stop-color="#415FC6"/>
</linearGradient>
<linearGradient id="paint56_linear_0_1" x1="1405.61" y1="407.925" x2="1298.91" y2="510.016" gradientUnits="userSpaceOnUse">
<stop stop-color="#4D70DD"/>
<stop offset="1" stop-color="#213EA0"/>
</linearGradient>
<linearGradient id="paint57_linear_0_1" x1="1360.45" y1="361.697" x2="1331.01" y2="429.162" gradientUnits="userSpaceOnUse">
<stop stop-color="#4D70DD"/>
<stop offset="1" stop-color="#213EA0"/>
</linearGradient>
<linearGradient id="paint58_linear_0_1" x1="1372.72" y1="328.989" x2="1349.32" y2="328.989" gradientUnits="userSpaceOnUse">
<stop stop-color="#301A61"/>
<stop offset="1" stop-color="#240973"/>
</linearGradient>
<linearGradient id="paint59_linear_0_1" x1="1376.92" y1="320.695" x2="1304.78" y2="320.695" gradientUnits="userSpaceOnUse">
<stop stop-color="#301A61"/>
<stop offset="1" stop-color="#240973"/>
</linearGradient>
<radialGradient id="paint60_radial_0_1" cx="0" cy="0" r="1" gradientUnits="userSpaceOnUse" gradientTransform="translate(1388.98 276.128) rotate(124.021) scale(68.5864 73.1213)">
<stop stop-color="#00F1FA"/>
<stop offset="0.984484" stop-color="#008BFF"/>
<stop offset="1" stop-color="#008BFF"/>
</radialGradient>
<linearGradient id="paint61_linear_0_1" x1="1317.79" y1="305.061" x2="1312.41" y2="305.061" gradientUnits="userSpaceOnUse">
<stop stop-color="#301A61"/>
<stop offset="1" stop-color="#240973"/>
</linearGradient>
<linearGradient id="paint62_linear_0_1" x1="1390.19" y1="413.474" x2="1262.25" y2="485.254" gradientUnits="userSpaceOnUse">
<stop stop-color="#7797FF"/>
<stop offset="1" stop-color="#415FC6"/>
</linearGradient>
<linearGradient id="paint63_linear_0_1" x1="951.605" y1="708.334" x2="1057.34" y2="708.334" gradientUnits="userSpaceOnUse">
<stop stop-color="#7797FF"/>
<stop offset="1" stop-color="#415FC6"/>
</linearGradient>
<radialGradient id="paint64_radial_0_1" cx="0" cy="0" r="1" gradientUnits="userSpaceOnUse" gradientTransform="translate(975.853 514.203) rotate(75.8385) scale(267.616 305.335)">
<stop stop-color="white"/>
<stop offset="0.742545" stop-color="#759AFF"/>
<stop offset="1" stop-color="#759AFF"/>
</radialGradient>
<radialGradient id="paint65_radial_0_1" cx="0" cy="0" r="1" gradientUnits="userSpaceOnUse" gradientTransform="translate(975.853 514.203) rotate(75.8384) scale(267.615 305.334)">
<stop stop-color="white"/>
<stop offset="0.742545" stop-color="#759AFF"/>
<stop offset="1" stop-color="#759AFF"/>
</radialGradient>
<radialGradient id="paint66_radial_0_1" cx="0" cy="0" r="1" gradientUnits="userSpaceOnUse" gradientTransform="translate(975.853 514.202) rotate(75.8385) scale(267.616 305.334)">
<stop stop-color="white"/>
<stop offset="0.742545" stop-color="#759AFF"/>
<stop offset="1" stop-color="#759AFF"/>
</radialGradient>
<radialGradient id="paint67_radial_0_1" cx="0" cy="0" r="1" gradientUnits="userSpaceOnUse" gradientTransform="translate(975.853 514.202) rotate(75.8385) scale(267.616 305.335)">
<stop stop-color="white"/>
<stop offset="0.742545" stop-color="#759AFF"/>
<stop offset="1" stop-color="#759AFF"/>
</radialGradient>
<radialGradient id="paint68_radial_0_1" cx="0" cy="0" r="1" gradientUnits="userSpaceOnUse" gradientTransform="translate(975.852 514.203) rotate(75.8384) scale(267.616 305.336)">
<stop stop-color="white"/>
<stop offset="0.742545" stop-color="#759AFF"/>
<stop offset="1" stop-color="#759AFF"/>
</radialGradient>
<radialGradient id="paint69_radial_0_1" cx="0" cy="0" r="1" gradientUnits="userSpaceOnUse" gradientTransform="translate(975.852 514.202) rotate(75.8384) scale(267.616 305.336)">
<stop stop-color="white"/>
<stop offset="0.742545" stop-color="#759AFF"/>
<stop offset="1" stop-color="#759AFF"/>
</radialGradient>
<radialGradient id="paint70_radial_0_1" cx="0" cy="0" r="1" gradientUnits="userSpaceOnUse" gradientTransform="translate(975.853 514.203) rotate(75.8384) scale(267.616 305.335)">
<stop stop-color="white"/>
<stop offset="0.742545" stop-color="#759AFF"/>
<stop offset="1" stop-color="#759AFF"/>
</radialGradient>
<linearGradient id="paint71_linear_0_1" x1="977.193" y1="665.797" x2="1104.19" y2="707.37" gradientUnits="userSpaceOnUse">
<stop stop-color="#7797FF"/>
<stop offset="1" stop-color="#415FC6"/>
</linearGradient>
<radialGradient id="paint72_radial_0_1" cx="0" cy="0" r="1" gradientUnits="userSpaceOnUse" gradientTransform="translate(975.853 514.203) rotate(75.8385) scale(267.616 305.335)">
<stop stop-color="white"/>
<stop offset="0.742545" stop-color="#759AFF"/>
<stop offset="1" stop-color="#759AFF"/>
</radialGradient>
<radialGradient id="paint73_radial_0_1" cx="0" cy="0" r="1" gradientUnits="userSpaceOnUse" gradientTransform="translate(975.853 514.203) rotate(75.8385) scale(267.616 305.334)">
<stop stop-color="white"/>
<stop offset="0.742545" stop-color="#759AFF"/>
<stop offset="1" stop-color="#759AFF"/>
</radialGradient>
<radialGradient id="paint74_radial_0_1" cx="0" cy="0" r="1" gradientUnits="userSpaceOnUse" gradientTransform="translate(975.852 514.203) rotate(75.8384) scale(267.616 305.336)">
<stop stop-color="white"/>
<stop offset="0.742545" stop-color="#759AFF"/>
<stop offset="1" stop-color="#759AFF"/>
</radialGradient>
<radialGradient id="paint75_radial_0_1" cx="0" cy="0" r="1" gradientUnits="userSpaceOnUse" gradientTransform="translate(975.853 514.202) rotate(75.8385) scale(267.616 305.335)">
<stop stop-color="white"/>
<stop offset="0.742545" stop-color="#759AFF"/>
<stop offset="1" stop-color="#759AFF"/>
</radialGradient>
<radialGradient id="paint76_radial_0_1" cx="0" cy="0" r="1" gradientUnits="userSpaceOnUse" gradientTransform="translate(975.853 514.203) rotate(75.8385) scale(267.616 305.334)">
<stop stop-color="white"/>
<stop offset="0.742545" stop-color="#759AFF"/>
<stop offset="1" stop-color="#759AFF"/>
</radialGradient>
<radialGradient id="paint77_radial_0_1" cx="0" cy="0" r="1" gradientUnits="userSpaceOnUse" gradientTransform="translate(975.853 514.202) rotate(75.8384) scale(267.616 305.335)">
<stop stop-color="white"/>
<stop offset="0.742545" stop-color="#759AFF"/>
<stop offset="1" stop-color="#759AFF"/>
</radialGradient>
<radialGradient id="paint78_radial_0_1" cx="0" cy="0" r="1" gradientUnits="userSpaceOnUse" gradientTransform="translate(975.853 514.203) rotate(75.8385) scale(267.616 305.334)">
<stop stop-color="white"/>
<stop offset="0.742545" stop-color="#759AFF"/>
<stop offset="1" stop-color="#759AFF"/>
</radialGradient>
<linearGradient id="paint79_linear_0_1" x1="1181.65" y1="708.334" x2="1075.91" y2="708.334" gradientUnits="userSpaceOnUse">
<stop stop-color="#7797FF"/>
<stop offset="1" stop-color="#415FC6"/>
</linearGradient>
<radialGradient id="paint80_radial_0_1" cx="0" cy="0" r="1" gradientUnits="userSpaceOnUse" gradientTransform="translate(975.853 514.203) rotate(75.8385) scale(267.616 305.335)">
<stop stop-color="white"/>
<stop offset="0.742545" stop-color="#759AFF"/>
<stop offset="1" stop-color="#759AFF"/>
</radialGradient>
<radialGradient id="paint81_radial_0_1" cx="0" cy="0" r="1" gradientUnits="userSpaceOnUse" gradientTransform="translate(975.852 514.203) rotate(75.8383) scale(267.615 305.336)">
<stop stop-color="white"/>
<stop offset="0.742545" stop-color="#759AFF"/>
<stop offset="1" stop-color="#759AFF"/>
</radialGradient>
<radialGradient id="paint82_radial_0_1" cx="0" cy="0" r="1" gradientUnits="userSpaceOnUse" gradientTransform="translate(975.853 514.202) rotate(75.8385) scale(267.616 305.334)">
<stop stop-color="white"/>
<stop offset="0.742545" stop-color="#759AFF"/>
<stop offset="1" stop-color="#759AFF"/>
</radialGradient>
<radialGradient id="paint83_radial_0_1" cx="0" cy="0" r="1" gradientUnits="userSpaceOnUse" gradientTransform="translate(975.853 514.202) rotate(75.8385) scale(267.616 305.335)">
<stop stop-color="white"/>
<stop offset="0.742545" stop-color="#759AFF"/>
<stop offset="1" stop-color="#759AFF"/>
</radialGradient>
<radialGradient id="paint84_radial_0_1" cx="0" cy="0" r="1" gradientUnits="userSpaceOnUse" gradientTransform="translate(975.853 514.203) rotate(75.8385) scale(267.616 305.334)">
<stop stop-color="white"/>
<stop offset="0.742545" stop-color="#759AFF"/>
<stop offset="1" stop-color="#759AFF"/>
</radialGradient>
<radialGradient id="paint85_radial_0_1" cx="0" cy="0" r="1" gradientUnits="userSpaceOnUse" gradientTransform="translate(975.853 514.202) rotate(75.8385) scale(267.616 305.335)">
<stop stop-color="white"/>
<stop offset="0.742545" stop-color="#759AFF"/>
<stop offset="1" stop-color="#759AFF"/>
</radialGradient>
<radialGradient id="paint86_radial_0_1" cx="0" cy="0" r="1" gradientUnits="userSpaceOnUse" gradientTransform="translate(975.852 514.203) rotate(75.8384) scale(267.616 305.336)">
<stop stop-color="white"/>
<stop offset="0.742545" stop-color="#759AFF"/>
<stop offset="1" stop-color="#759AFF"/>
</radialGradient>
<linearGradient id="paint87_linear_0_1" x1="1004.71" y1="830.129" x2="1125.92" y2="830.129" gradientUnits="userSpaceOnUse">
<stop stop-color="#FFE565"/>
<stop offset="0.901242" stop-color="#FF713E"/>
<stop offset="1" stop-color="#FF713E"/>
</linearGradient>
<linearGradient id="paint88_linear_0_1" x1="994.959" y1="784.541" x2="1135.68" y2="784.541" gradientUnits="userSpaceOnUse">
<stop stop-color="#FFE565"/>
<stop offset="0.901242" stop-color="#FF713E"/>
<stop offset="1" stop-color="#FF713E"/>
</linearGradient>
<linearGradient id="paint89_linear_0_1" x1="978.695" y1="668.317" x2="1068.2" y2="848.518" gradientUnits="userSpaceOnUse">
<stop stop-color="#FFE565"/>
<stop offset="0.901242" stop-color="#FF713E"/>
<stop offset="1" stop-color="#FF713E"/>
</linearGradient>
<radialGradient id="paint90_radial_0_1" cx="0" cy="0" r="1" gradientUnits="userSpaceOnUse" gradientTransform="translate(1304.78 254.372) scale(14.7247 12.7087)">
<stop stop-color="white"/>
<stop offset="0.742545" stop-color="#95C5FF"/>
<stop offset="1" stop-color="#95C5FF"/>
</radialGradient>
<radialGradient id="paint91_radial_0_1" cx="0" cy="0" r="1" gradientUnits="userSpaceOnUse" gradientTransform="translate(1620 2.60094) rotate(86.9546) scale(367.785 425.82)">
<stop stop-color="white"/>
<stop offset="0.742545" stop-color="#95C5FF"/>
<stop offset="1" stop-color="#95C5FF"/>
</radialGradient>
<radialGradient id="paint92_radial_0_1" cx="0" cy="0" r="1" gradientUnits="userSpaceOnUse" gradientTransform="translate(1104.16 202.209) scale(14.7247 12.7087)">
<stop stop-color="white"/>
<stop offset="0.742545" stop-color="#95C5FF"/>
<stop offset="1" stop-color="#95C5FF"/>
</radialGradient>
<radialGradient id="paint93_radial_0_1" cx="0" cy="0" r="1" gradientUnits="userSpaceOnUse" gradientTransform="translate(1070.9 435.492) scale(23.4125 20.2069)">
<stop stop-color="white"/>
<stop offset="0.742545" stop-color="#95C5FF"/>
<stop offset="1" stop-color="#95C5FF"/>
</radialGradient>
<radialGradient id="paint94_radial_0_1" cx="0" cy="0" r="1" gradientUnits="userSpaceOnUse" gradientTransform="translate(828.246 713.299) scale(13.95 12.0401)">
<stop stop-color="white"/>
<stop offset="0.742545" stop-color="#95C5FF"/>
<stop offset="1" stop-color="#95C5FF"/>
</radialGradient>
<radialGradient id="paint95_radial_0_1" cx="0" cy="0" r="1" gradientUnits="userSpaceOnUse" gradientTransform="translate(1620 2.60104) rotate(86.9546) scale(367.785 425.821)">
<stop stop-color="white"/>
<stop offset="0.742545" stop-color="#95C5FF"/>
<stop offset="1" stop-color="#95C5FF"/>
</radialGradient>
<clipPath id="clip0_0_1">
<rect width="2000" height="1000" fill="white"/>
</clipPath>
</defs>
</svg>
